# This file uses centimeters as units for non-parametric coordinates.

mtllib Item_Base_4.mtl
g default
v -2.825441 3.100944 -3.320292
v 2.825455 3.100944 -3.320292
v -2.825438 -0.037234 -3.320292
v 2.825452 -0.037234 -3.320292
v -2.825441 3.100944 -3.644424
v 2.825455 3.100944 -3.644424
v 2.825452 -0.037234 -3.644424
v -2.825438 -0.037234 -3.644424
v -2.552629 2.853116 -3.644424
v 2.552643 2.853116 -3.644424
v 2.552640 -0.037233 -3.644424
v -2.552627 -0.037233 -3.644424
v -5.690832 -0.037233 2.542595
v 5.690861 -0.037233 2.542595
v -5.690835 3.604120 2.542595
v 5.690866 3.604120 2.542595
v -5.690835 3.604120 -3.341022
v 5.690866 3.604120 -3.341022
v -5.690832 -0.037233 -3.341022
v 5.690861 -0.037233 -3.341022
v 4.973814 4.064926 2.124238
v 4.973814 4.064926 -2.922664
v -4.973787 4.064926 -2.922664
v -4.973787 4.064926 2.124238
v 4.285443 4.064926 1.722614
v 4.285443 4.064926 -2.521040
v -4.285420 4.064926 -2.521040
v -4.285420 4.064926 1.722614
v 4.285443 3.711987 1.722614
v 4.285443 3.711987 -2.521040
v -4.285420 3.711987 -2.521040
v -4.285420 3.711987 1.722614
v -5.690845 3.604120 -3.341022
v 5.690861 3.604120 -3.341022
v -5.690842 -0.037233 -3.341022
v 5.690858 -0.037233 -3.341022
v 4.468446 3.604120 -3.341022
v 4.468444 -0.037233 -3.341022
v -4.712913 3.604120 -3.341022
v -4.712911 -0.037233 -3.341022
v -5.690845 0.975987 -6.238429
v -4.712913 0.975987 -6.238429
v -4.712911 -0.037233 -6.238429
v -5.690842 -0.037233 -6.238429
v 4.468446 0.975987 -6.238429
v 4.468444 -0.037233 -6.238429
v 5.690861 0.975987 -6.238429
v 5.690858 -0.037233 -6.238429
v -2.552629 2.853116 -3.393856
v -2.552629 2.853116 -3.393856
v -2.552629 2.853116 -3.393856
v 2.552643 2.853116 -3.393856
v 2.552643 2.853116 -3.393856
v 2.552643 2.853116 -3.393856
v 2.552640 -0.037233 -3.393856
v 2.552640 -0.037233 -3.393856
v -2.552627 -0.037233 -3.393856
v -2.552627 -0.037233 -3.393856
vt 0.974557 0.088605
vt 0.971083 0.238246
vt 0.960881 0.238399
vt 0.964314 0.088278
vt 0.980907 0.318634
vt 0.970747 0.318895
vt 0.980907 0.006443
vt 0.970891 0.007428
vt 0.953693 0.236041
vt 0.956660 0.090437
vt 0.962928 0.320908
vt 0.963121 0.005417
vt 0.108535 0.500000
vt 0.108535 0.827036
vt 0.294349 0.338194
vt 0.294348 0.003907
vt 0.114558 0.003933
vt 0.114558 0.338220
vt 0.108536 0.996094
vt 0.108535 0.330943
vt 0.569748 0.250178
vt 0.307831 0.262306
vt 0.308377 0.010065
vt 0.434257 0.010771
vt 0.131547 0.314611
vt 0.277153 0.315058
vt 0.131753 0.027069
vt 0.277359 0.027516
vt 0.300340 0.269101
vt 0.441768 0.269095
vt 0.300353 0.003906
vt 0.441768 0.003998
vt 0.758405 0.058375
vt 0.743988 0.078602
vt 0.719141 0.069256
vt 0.738961 0.038552
vt 0.713179 0.075262
vt 0.687820 0.084032
vt 0.670536 0.057858
vt 0.689874 0.037768
vt 0.852129 0.116821
vt 0.834975 0.143381
vt 0.719141 0.159106
vt 0.822254 0.003906
vt 0.713179 0.164327
vt 0.598378 0.149178
vt 0.575760 0.117044
vt 0.606189 0.003906
vt 0.569748 0.003907
vt 0.433738 0.262942
vt 0.447813 0.003907
vt 0.447813 0.250178
vt 0.265753 0.047386
vt 0.265576 0.295096
vt 0.143330 0.047031
vt 0.143152 0.294740
vt 0.003906 0.827037
vt 0.003907 0.003906
vt 0.003906 0.500000
vt 0.003906 0.330943
vt 0.941296 0.003907
vt 0.949711 0.086114
vt 0.948845 0.091014
vt 0.941296 0.150599
vt 0.945837 0.234995
vt 0.947225 0.240572
vt 0.858246 0.150599
vt 0.955217 0.322320
vt 0.858246 0.003907
vt 0.955717 0.003906
vt 0.003907 0.996094
vt 0.108536 0.003907
vn 0.000000 0.000000 -1.000000
vn 0.000000 0.000000 -1.000000
vn 0.000000 0.000000 -1.000000
vn 0.000000 0.000000 -1.000000
vn 0.000000 1.000000 0.000000
vn 0.000000 1.000000 0.000000
vn 0.000000 1.000000 0.000000
vn 0.000000 1.000000 0.000000
vn 1.000000 -0.000001 0.000000
vn 1.000000 -0.000001 0.000000
vn 1.000000 -0.000001 0.000000
vn 1.000000 -0.000001 0.000000
vn -1.000000 -0.000001 0.000000
vn -1.000000 -0.000001 0.000000
vn -1.000000 -0.000001 0.000000
vn -1.000000 -0.000001 0.000000
vn 0.000000 0.000000 -1.000000
vn 0.000000 0.000000 -1.000000
vn 0.000000 0.000000 -1.000000
vn 0.000000 0.000000 -1.000000
vn -0.000000 0.000000 -1.000000
vn -0.000000 0.000000 -1.000000
vn -0.000000 0.000000 -1.000000
vn -0.000000 0.000000 -1.000000
vn 0.000000 0.000000 -1.000000
vn 0.000000 0.000000 -1.000000
vn 0.000000 0.000000 -1.000000
vn 0.000000 0.000000 -1.000000
vn 0.000000 -1.000000 0.000000
vn 0.000000 -1.000000 0.000000
vn 0.000000 -1.000000 0.000000
vn 0.000000 -1.000000 0.000000
vn -1.000000 0.000001 0.000000
vn -1.000000 0.000001 0.000000
vn -1.000000 0.000001 0.000000
vn -1.000000 0.000001 0.000000
vn 1.000000 0.000001 0.000000
vn 1.000000 0.000001 0.000000
vn 1.000000 0.000001 0.000000
vn 1.000000 0.000001 0.000000
vn 0.000000 0.000000 1.000000
vn 0.000000 0.000000 1.000000
vn 0.000000 0.000000 1.000000
vn 0.000000 0.000000 1.000000
vn 0.000000 0.000000 -1.000000
vn 0.000000 0.000000 -1.000000
vn 0.000000 0.000000 -1.000000
vn 0.000000 0.000000 -1.000000
vn 1.000000 -0.000001 0.000000
vn 1.000000 -0.000001 0.000000
vn 1.000000 -0.000001 0.000000
vn 1.000000 -0.000001 0.000000
vn -1.000000 -0.000001 0.000000
vn -1.000000 -0.000001 0.000000
vn -1.000000 -0.000001 0.000000
vn -1.000000 -0.000001 0.000000
vn 0.000000 1.000000 0.000000
vn 0.000000 1.000000 0.000000
vn 0.000000 1.000000 0.000000
vn 0.000000 1.000000 0.000000
vn 0.540628 0.841262 0.000000
vn 0.540628 0.841262 0.000000
vn 0.540628 0.841262 0.000000
vn 0.540628 0.841262 0.000000
vn 0.000000 0.672183 -0.740385
vn 0.000000 0.672183 -0.740385
vn 0.000000 0.672183 -0.740385
vn 0.000000 0.672183 -0.740385
vn -0.540630 0.841261 0.000000
vn -0.540630 0.841261 0.000000
vn -0.540630 0.841261 0.000000
vn -0.540630 0.841261 0.000000
vn 0.000000 0.672183 0.740385
vn 0.000000 0.672183 0.740385
vn 0.000000 0.672183 0.740385
vn 0.000000 0.672183 0.740385
vn 0.000000 1.000000 0.000000
vn 0.000000 1.000000 0.000000
vn 0.000000 1.000000 0.000000
vn 0.000000 1.000000 0.000000
vn 0.000000 1.000000 -0.000001
vn 0.000000 1.000000 -0.000001
vn 0.000000 1.000000 -0.000001
vn 0.000000 1.000000 -0.000001
vn 0.000000 1.000000 0.000000
vn 0.000000 1.000000 0.000000
vn 0.000000 1.000000 0.000000
vn 0.000000 1.000000 0.000000
vn 0.000000 1.000000 0.000001
vn 0.000000 1.000000 0.000001
vn 0.000000 1.000000 0.000001
vn 0.000000 1.000000 0.000001
vn -1.000000 0.000000 0.000000
vn -1.000000 0.000000 0.000000
vn -1.000000 0.000000 0.000000
vn -1.000000 0.000000 0.000000
vn 0.000000 0.000000 1.000000
vn 0.000000 0.000000 1.000000
vn 0.000000 0.000000 1.000000
vn 0.000000 0.000000 1.000000
vn 1.000000 0.000000 0.000000
vn 1.000000 0.000000 0.000000
vn 1.000000 0.000000 0.000000
vn 1.000000 0.000000 0.000000
vn 0.000000 0.000000 -1.000000
vn 0.000000 0.000000 -1.000000
vn 0.000000 0.000000 -1.000000
vn 0.000000 0.000000 -1.000000
vn 0.000000 0.000000 -1.000000
vn 0.000000 0.000000 -1.000000
vn 0.000000 0.000000 -1.000000
vn 0.000000 0.000000 -1.000000
vn 0.000000 0.000000 -1.000000
vn 0.000000 0.000000 -1.000000
vn 0.000000 0.000000 -1.000000
vn 0.000000 0.000000 -1.000000
vn 0.000000 0.740687 -0.671850
vn 0.000000 0.740687 -0.671850
vn 0.000000 0.740687 -0.671850
vn 0.000000 0.740687 -0.671850
vn 1.000000 0.000001 -0.000000
vn 1.000000 0.000001 -0.000000
vn 1.000000 0.000001 -0.000000
vn 1.000000 0.000001 -0.000000
vn -1.000000 -0.000001 0.000000
vn -1.000000 -0.000001 0.000000
vn -1.000000 -0.000001 0.000000
vn -1.000000 -0.000001 0.000000
vn -1.000000 0.000001 -0.000000
vn -1.000000 0.000001 -0.000000
vn -1.000000 0.000001 -0.000000
vn -1.000000 0.000001 -0.000000
vn 0.000000 0.740687 -0.671850
vn 0.000000 0.740687 -0.671850
vn 0.000000 0.740687 -0.671850
vn 0.000000 0.740687 -0.671850
vn 1.000000 -0.000001 0.000001
vn 1.000000 -0.000001 0.000001
vn 1.000000 -0.000001 0.000001
vn 1.000000 -0.000001 0.000001
s off
g Item_Base_4 Obj_base
usemtl initialShadingGroup
f 50/61/1 52/64/2 55/67/3 58/69/4
f 1/1/5 2/2/6 6/3/7 5/4/8
f 2/2/9 4/5/10 7/6/11 6/3/12
f 3/7/13 1/1/14 5/4/15 8/8/16
f 5/4/17 6/3/18 10/9/19 9/10/20
f 6/3/21 7/6/22 11/11/23 10/9/24
f 8/8/25 5/4/26 9/10/27 12/12/28
f 9/10/29 10/9/30 54/65/31 51/63/32
f 10/9/33 11/11/34 56/68/35 53/66/36
f 12/12/37 9/10/38 49/62/39 57/70/40
f 13/13/41 14/14/42 16/57/43 15/59/44
f 17/60/45 18/58/46 20/72/47 19/20/48
f 14/14/49 20/19/50 18/71/51 16/57/52
f 19/20/53 13/13/54 15/59/55 17/60/56
f 29/21/57 30/52/58 31/51/59 32/49/60
f 16/15/61 18/18/62 22/25/63 21/26/64
f 18/18/65 17/17/66 23/27/67 22/25/68
f 17/17/69 15/16/70 24/28/71 23/27/72
f 15/16/73 16/15/74 21/26/75 24/28/76
f 21/26/77 22/25/78 26/56/79 25/54/80
f 22/25/81 23/27/82 27/55/83 26/56/84
f 23/27/85 24/28/86 28/53/87 27/55/88
f 24/28/89 21/26/90 25/54/91 28/53/92
f 25/30/93 26/29/94 30/22/95 29/50/96
f 26/29/97 27/31/98 31/23/99 30/22/100
f 27/31/101 28/32/102 32/24/103 31/23/104
f 28/32/105 25/30/106 29/50/107 32/24/108
f 41/33/109 42/34/110 43/35/111 44/36/112
f 46/37/113 45/38/114 47/39/115 48/40/116
f 33/41/117 39/42/118 42/34/119 41/33/120
f 39/42/121 40/43/122 43/35/123 42/34/124
f 35/44/125 33/41/126 41/33/127 44/36/128
f 38/45/129 37/46/130 45/38/131 46/37/132
f 37/46/133 34/47/134 47/39/135 45/38/136
f 34/47/137 36/48/138 48/40/139 47/39/140
