# This file uses centimeters as units for non-parametric coordinates.

mtllib Item_Contenedor_2.mtl
g default
v 1.189958 1.188428 0.141437
v 1.189958 1.188428 2.699711
v 1.189958 2.356546 0.141437
v 1.189958 2.356546 2.699711
v 1.225921 1.188428 0.141437
v 1.225921 1.188428 2.699711
v 1.225921 2.356546 0.141437
v 1.225921 2.356546 2.699711
v -1.224211 0.000000 2.999998
v 1.275788 0.000000 2.999999
v -1.224211 3.000000 2.999998
v 1.275788 3.000000 2.999999
v -1.224210 3.000000 -2.999998
v 1.275788 3.000000 -2.999998
v -1.224210 0.000000 -2.999998
v 1.275788 0.000000 -2.999998
v -1.064212 0.160000 3.000000
v 1.115788 0.160000 3.000000
v 1.115788 2.840000 3.000000
v -1.064212 2.840000 3.000000
v -1.064212 3.000000 2.839999
v 1.115788 3.000000 2.839999
v 1.115788 3.000000 -2.839999
v -1.064212 3.000000 -2.839999
v -1.064212 2.840000 -2.999998
v 1.115788 2.840000 -2.999999
v 1.115788 0.160000 -2.999999
v -1.064212 0.160000 -2.999998
v -1.064212 0.000000 -2.839999
v 1.115788 0.000000 -2.839999
v 1.115788 0.000000 2.839999
v -1.064212 0.000000 2.839999
v 1.275788 0.160000 -2.839999
v 1.275788 0.160000 2.839999
v 1.275788 2.840000 -2.839999
v 1.275788 2.840000 2.839999
v -1.224210 0.160000 -2.839999
v -1.224211 0.160000 2.839999
v -1.224211 2.840000 2.839999
v -1.224210 2.840000 -2.839999
v -1.004212 0.220000 2.919999
v 1.055788 0.220000 2.919999
v 1.055788 2.780000 2.919999
v -1.004212 2.780000 2.919999
v -1.004212 2.920000 2.779999
v 1.055788 2.920000 2.779999
v 1.055788 2.920000 -2.779999
v -1.004212 2.920000 -2.779999
v -1.004212 2.780000 -2.919999
v 1.055788 2.780000 -2.919999
v 1.055788 0.220000 -2.919999
v -1.004212 0.220000 -2.919999
v -1.004212 0.080000 -2.779999
v 1.055788 0.080000 -2.779999
v 1.055788 0.080000 2.779999
v -1.004212 0.080000 2.779999
v 1.195788 0.220000 -2.779999
v 1.195788 0.220000 2.779999
v 1.195788 2.780000 -2.779999
v 1.195788 2.780000 2.779999
v -1.144210 0.220000 -2.779999
v -1.144210 0.220000 2.779999
v -1.144210 2.780000 2.779999
v -1.144210 2.780000 -2.779999
v 0.025000 0.220000 -3.009419
v -0.025000 0.220000 -3.009419
v -0.050000 0.220000 -2.966117
v -0.025000 0.220000 -2.922816
v 0.025000 0.220000 -2.922816
v 0.050000 0.220000 -2.966117
v 0.025000 2.780000 -3.009419
v -0.025000 2.780000 -3.009419
v -0.050000 2.780000 -2.966117
v -0.025000 2.780000 -2.922816
v 0.025000 2.780000 -2.922816
v 0.050000 2.780000 -2.966117
v 0.000000 0.220000 -2.966117
v 0.000000 2.780000 -2.966117
v 0.025000 2.605852 -3.009419
v 0.050000 2.605852 -2.966117
v 0.025000 2.605852 -2.922816
v -0.025000 2.605852 -2.922816
v -0.050000 2.605852 -2.966117
v -0.025000 2.605852 -3.009419
v 0.025000 0.368548 -3.009419
v 0.050000 0.368548 -2.966117
v 0.025000 0.368548 -2.922816
v -0.025000 0.368548 -2.922816
v -0.050000 0.368548 -2.966117
v -0.025000 0.368548 -3.009419
v 0.020403 0.391476 -3.001456
v 0.040806 0.391476 -2.966117
v 0.020403 2.582924 -3.001456
v 0.040806 2.582924 -2.966117
v 0.020403 0.391476 -2.930779
v 0.020403 2.582924 -2.930779
v -0.020403 0.391476 -2.930779
v -0.020403 2.582924 -2.930779
v -0.040806 0.391476 -2.966117
v -0.040806 2.582924 -2.966117
v -0.020403 0.391476 -3.001456
v -0.020403 2.582924 -3.001456
v 0.625000 0.220000 -3.009419
v 0.575000 0.220000 -3.009419
v 0.550000 0.220000 -2.966117
v 0.575000 0.220000 -2.922816
v 0.625000 0.220000 -2.922816
v 0.650000 0.220000 -2.966117
v 0.625000 2.780000 -3.009419
v 0.575000 2.780000 -3.009419
v 0.550000 2.780000 -2.966117
v 0.575000 2.780000 -2.922816
v 0.625000 2.780000 -2.922816
v 0.650000 2.780000 -2.966117
v 0.600000 0.220000 -2.966117
v 0.600000 2.780000 -2.966117
v 0.625000 2.605852 -3.009419
v 0.650000 2.605852 -2.966117
v 0.625000 2.605852 -2.922816
v 0.575000 2.605852 -2.922816
v 0.550000 2.605852 -2.966117
v 0.575000 2.605852 -3.009419
v 0.625000 0.368548 -3.009419
v 0.650000 0.368548 -2.966117
v 0.625000 0.368548 -2.922816
v 0.575000 0.368548 -2.922816
v 0.550000 0.368548 -2.966117
v 0.575000 0.368548 -3.009419
v 0.620403 0.391476 -3.001456
v 0.640806 0.391476 -2.966117
v 0.620403 2.582924 -3.001456
v 0.640806 2.582924 -2.966117
v 0.620403 0.391476 -2.930779
v 0.620403 2.582924 -2.930779
v 0.579597 0.391476 -2.930779
v 0.579597 2.582924 -2.930779
v 0.559194 0.391476 -2.966117
v 0.559194 2.582924 -2.966117
v 0.579597 0.391476 -3.001456
v 0.579597 2.582924 -3.001456
v -0.575000 0.220000 -3.009419
v -0.625000 0.220000 -3.009419
v -0.650000 0.220000 -2.966117
v -0.625000 0.220000 -2.922816
v -0.575000 0.220000 -2.922816
v -0.550000 0.220000 -2.966117
v -0.575000 2.780000 -3.009419
v -0.625000 2.780000 -3.009419
v -0.650000 2.780000 -2.966117
v -0.625000 2.780000 -2.922816
v -0.575000 2.780000 -2.922816
v -0.550000 2.780000 -2.966117
v -0.600000 0.220000 -2.966117
v -0.600000 2.780000 -2.966117
v -0.575000 2.605852 -3.009419
v -0.550000 2.605852 -2.966117
v -0.575000 2.605852 -2.922816
v -0.625000 2.605852 -2.922816
v -0.650000 2.605852 -2.966117
v -0.625000 2.605852 -3.009419
v -0.575000 0.368548 -3.009419
v -0.550000 0.368548 -2.966117
v -0.575000 0.368548 -2.922816
v -0.625000 0.368548 -2.922816
v -0.650000 0.368548 -2.966117
v -0.625000 0.368548 -3.009419
v -0.579597 0.391476 -3.001456
v -0.559194 0.391476 -2.966117
v -0.579597 2.582924 -3.001456
v -0.559194 2.582924 -2.966117
v -0.579597 0.391476 -2.930779
v -0.579597 2.582924 -2.930779
v -0.620403 0.391476 -2.930779
v -0.620403 2.582924 -2.930779
v -0.640806 0.391476 -2.966117
v -0.640806 2.582924 -2.966117
v -0.620403 0.391476 -3.001456
v -0.620403 2.582924 -3.001456
vt 0.791590 0.018702
vt 0.672338 0.242941
vt 0.981545 0.142922
vt 0.672338 0.023048
vt 0.674460 0.091978
vt 0.674460 0.023048
vt 0.983667 0.142922
vt 0.674460 0.242941
vt 0.672338 0.091978
vt 0.981545 0.293885
vt 0.722660 0.018702
vt 0.672338 0.311871
vt 0.722660 0.169663
vt 0.791590 0.169663
vt 0.638199 0.174009
vt 0.569269 0.174009
vt 0.983667 0.293885
vt 0.569269 0.023048
vt 0.674460 0.311871
vt 0.638199 0.023048
vt 0.514398 0.169819
vt 0.392840 0.169819
vt 0.392840 0.018756
vt 0.514398 0.018756
vt 0.971842 0.331996
vt 0.850284 0.331996
vt 0.850284 0.003906
vt 0.971842 0.003906
vt 0.514398 0.519238
vt 0.392840 0.519238
vt 0.392840 0.368175
vt 0.514398 0.368175
vt 0.996094 0.669787
vt 0.874535 0.669787
vt 0.874535 0.341697
vt 0.996094 0.341697
vt 0.721545 0.367661
vt 0.721545 0.695751
vt 0.570482 0.695751
vt 0.570482 0.367661
vt 0.154969 0.367661
vt 0.154969 0.695751
vt 0.003906 0.695751
vt 0.003906 0.367661
vt 0.560673 0.879773
vt 0.413150 0.879773
vt 0.422592 0.870332
vt 0.551231 0.870332
vt 0.413150 0.702746
vt 0.422592 0.712188
vt 0.560673 0.702746
vt 0.551231 0.712188
vt 0.697391 0.357960
vt 0.549868 0.357960
vt 0.559310 0.348519
vt 0.687949 0.348519
vt 0.549868 0.003906
vt 0.559310 0.013348
vt 0.697391 0.003906
vt 0.687949 0.013348
vt 0.848465 0.702663
vt 0.995987 0.702663
vt 0.986546 0.712104
vt 0.857906 0.712104
vt 0.995987 0.879690
vt 0.986546 0.870249
vt 0.848465 0.879690
vt 0.857906 0.870249
vt 0.338165 0.721714
vt 0.190643 0.721714
vt 0.200084 0.712273
vt 0.328724 0.712273
vt 0.190643 0.367661
vt 0.200084 0.377102
vt 0.338165 0.367661
vt 0.328724 0.377102
vt 0.367670 0.003906
vt 0.367670 0.357960
vt 0.358228 0.348519
vt 0.358228 0.013348
vt 0.190643 0.357960
vt 0.200084 0.348519
vt 0.190643 0.003906
vt 0.200084 0.013348
vt 0.180933 0.003906
vt 0.180933 0.357960
vt 0.171492 0.348519
vt 0.171492 0.013348
vt 0.003906 0.357960
vt 0.013348 0.348519
vt 0.003906 0.003906
vt 0.013348 0.013348
vt 0.161348 0.185703
vt 0.028158 0.185703
vt 0.033469 0.180398
vt 0.155946 0.180499
vt 0.028158 0.023048
vt 0.033559 0.028252
vt 0.161348 0.023048
vt 0.156037 0.028353
vt 0.840480 0.343584
vt 0.707200 0.343586
vt 0.712686 0.338464
vt 0.834934 0.338561
vt 0.707200 0.003908
vt 0.712746 0.008931
vt 0.840480 0.003906
vt 0.834994 0.009028
vt 0.343234 0.185703
vt 0.210044 0.185703
vt 0.215355 0.180398
vt 0.337833 0.180499
vt 0.210044 0.023048
vt 0.215446 0.028252
vt 0.343234 0.023048
vt 0.337923 0.028354
vt 0.864732 0.692962
vt 0.731451 0.692964
vt 0.736937 0.687842
vt 0.859186 0.687939
vt 0.731451 0.353286
vt 0.736997 0.358309
vt 0.864732 0.353284
vt 0.859246 0.358406
vt 0.540163 0.003906
vt 0.540163 0.343625
vt 0.534665 0.338557
vt 0.534725 0.009061
vt 0.377380 0.343627
vt 0.382818 0.338472
vt 0.377379 0.003908
vt 0.382877 0.008976
vt 0.540163 0.353325
vt 0.540163 0.693044
vt 0.534665 0.687976
vt 0.534725 0.358480
vt 0.377380 0.693046
vt 0.382818 0.687891
vt 0.377379 0.353328
vt 0.382877 0.358395
vt 0.280953 0.047142
vt 0.280671 0.050236
vt 0.272001 0.049287
vt 0.272282 0.046526
vt 0.280245 0.053300
vt 0.271529 0.052043
vt 0.279710 0.056298
vt 0.270766 0.054803
vt 0.281037 0.038015
vt 0.281085 0.040984
vt 0.272372 0.040927
vt 0.272071 0.038020
vt 0.281085 0.044047
vt 0.272409 0.043746
vt 0.111046 0.038025
vt 0.113601 0.039500
vt 0.111046 0.040975
vt 0.108491 0.039500
vt 0.108491 0.042450
vt 0.111046 0.043926
vt 0.113601 0.042450
vt 0.128455 0.042463
vt 0.125900 0.043938
vt 0.125900 0.040988
vt 0.123345 0.042463
vt 0.123345 0.039512
vt 0.125900 0.038037
vt 0.128455 0.039512
vt 0.257593 0.044357
vt 0.257526 0.047148
vt 0.247331 0.047171
vt 0.247369 0.044084
vt 0.257828 0.041556
vt 0.247524 0.041012
vt 0.258333 0.038729
vt 0.247768 0.037987
vt 0.257809 0.052770
vt 0.258279 0.055659
vt 0.247793 0.056250
vt 0.247588 0.053292
vt 0.257593 0.049946
vt 0.247409 0.050249
vt 0.657718 0.152364
vt 0.655311 0.152364
vt 0.655311 0.023048
vt 0.657718 0.023048
vt 0.660126 0.152364
vt 0.660126 0.023048
vt 0.662534 0.152364
vt 0.662534 0.023048
vt 0.650495 0.152364
vt 0.648087 0.152364
vt 0.648087 0.023048
vt 0.650495 0.023048
vt 0.652903 0.152364
vt 0.652903 0.023048
vt 0.270856 0.046407
vt 0.270978 0.043738
vt 0.259012 0.044472
vt 0.258956 0.047161
vt 0.270940 0.041093
vt 0.259212 0.041835
vt 0.270610 0.038583
vt 0.259705 0.039399
vt 0.269460 0.054019
vt 0.270172 0.051647
vt 0.259226 0.052511
vt 0.259705 0.055003
vt 0.270594 0.049058
vt 0.259021 0.049856
vt 0.076937 0.047124
vt 0.076656 0.050218
vt 0.067985 0.049268
vt 0.068266 0.046507
vt 0.076229 0.053282
vt 0.067513 0.052024
vt 0.075694 0.056280
vt 0.066750 0.054785
vt 0.077021 0.037997
vt 0.077069 0.040966
vt 0.068356 0.040909
vt 0.068055 0.038002
vt 0.077069 0.044028
vt 0.068394 0.043728
vt 0.143309 0.042475
vt 0.140754 0.043950
vt 0.140754 0.041000
vt 0.143309 0.039525
vt 0.140754 0.038049
vt 0.138199 0.039525
vt 0.138199 0.042475
vt 0.296094 0.042451
vt 0.293539 0.043926
vt 0.293539 0.040976
vt 0.290983 0.042451
vt 0.290983 0.039501
vt 0.293539 0.038025
vt 0.296094 0.039500
vt 0.235463 0.044339
vt 0.235397 0.047130
vt 0.225201 0.047152
vt 0.225240 0.044065
vt 0.235699 0.041538
vt 0.225394 0.040993
vt 0.236203 0.038710
vt 0.225638 0.037969
vt 0.235679 0.052752
vt 0.236149 0.055640
vt 0.225664 0.056232
vt 0.225458 0.053273
vt 0.235463 0.049927
vt 0.225280 0.050231
vt 0.811109 0.148037
vt 0.808701 0.148037
vt 0.808701 0.018721
vt 0.811109 0.018721
vt 0.813517 0.148037
vt 0.813517 0.018721
vt 0.815925 0.148037
vt 0.815925 0.018721
vt 0.803885 0.148037
vt 0.801478 0.148037
vt 0.801478 0.018721
vt 0.803885 0.018721
vt 0.806293 0.148037
vt 0.806293 0.018721
vt 0.066840 0.046388
vt 0.066962 0.043720
vt 0.236882 0.044453
vt 0.236826 0.047143
vt 0.066925 0.041075
vt 0.237083 0.041817
vt 0.066594 0.038565
vt 0.237575 0.039380
vt 0.065444 0.054001
vt 0.066156 0.051629
vt 0.237096 0.052493
vt 0.237575 0.054984
vt 0.066578 0.049040
vt 0.236891 0.049838
vt 0.098461 0.047141
vt 0.098179 0.050236
vt 0.089508 0.049286
vt 0.089789 0.046525
vt 0.097752 0.053300
vt 0.089036 0.052042
vt 0.097217 0.056298
vt 0.088273 0.054803
vt 0.098544 0.038015
vt 0.098593 0.040983
vt 0.089880 0.040927
vt 0.089578 0.038020
vt 0.098593 0.044046
vt 0.089917 0.043746
vt 0.325802 0.039525
vt 0.325802 0.042476
vt 0.323247 0.041000
vt 0.323247 0.038050
vt 0.320691 0.039525
vt 0.320691 0.042476
vt 0.323247 0.043951
vt 0.310948 0.042463
vt 0.308393 0.043939
vt 0.308393 0.040988
vt 0.305837 0.042463
vt 0.305837 0.039513
vt 0.308393 0.038038
vt 0.310948 0.039513
vt 0.053577 0.044339
vt 0.053511 0.047130
vt 0.043315 0.047152
vt 0.043354 0.044065
vt 0.053813 0.041538
vt 0.043508 0.040993
vt 0.054317 0.038711
vt 0.043752 0.037969
vt 0.053793 0.052752
vt 0.054263 0.055640
vt 0.043778 0.056232
vt 0.043572 0.053273
vt 0.053577 0.049927
vt 0.043394 0.050231
vt 0.991177 0.133222
vt 0.988769 0.133222
vt 0.988769 0.003906
vt 0.991177 0.003906
vt 0.993585 0.133222
vt 0.993585 0.003906
vt 0.995992 0.133222
vt 0.995992 0.003906
vt 0.983953 0.133222
vt 0.981545 0.133222
vt 0.981545 0.003906
vt 0.983953 0.003906
vt 0.986361 0.133222
vt 0.986361 0.003906
vt 0.088363 0.046406
vt 0.088485 0.043737
vt 0.054996 0.044454
vt 0.054940 0.047143
vt 0.088448 0.041092
vt 0.055196 0.041817
vt 0.088117 0.038582
vt 0.055689 0.039380
vt 0.086968 0.054019
vt 0.087679 0.051646
vt 0.055210 0.052493
vt 0.055689 0.054984
vt 0.088101 0.049058
vt 0.055005 0.049838
vn 1.000000 0.000000 0.000000
vn 1.000000 0.000000 0.000000
vn 1.000000 0.000000 0.000000
vn 1.000000 0.000000 0.000000
vn -1.000000 0.000000 0.000000
vn -1.000000 0.000000 0.000000
vn -1.000000 0.000000 0.000000
vn -1.000000 0.000000 0.000000
vn 0.000000 -1.000000 0.000000
vn 0.000000 -1.000000 0.000000
vn 0.000000 -1.000000 0.000000
vn 0.000000 -1.000000 0.000000
vn 0.000000 0.000000 -1.000000
vn 0.000000 0.000000 -1.000000
vn 0.000000 0.000000 -1.000000
vn 0.000000 0.000000 -1.000000
vn 0.000000 1.000000 0.000000
vn 0.000000 1.000000 0.000000
vn 0.000000 1.000000 0.000000
vn 0.000000 1.000000 0.000000
vn 0.000000 0.000000 1.000000
vn 0.000000 0.000000 1.000000
vn 0.000000 0.000000 1.000000
vn 0.000000 0.000000 1.000000
vn 0.000000 0.000000 1.000000
vn 0.000000 0.000000 1.000000
vn 0.000000 0.000000 1.000000
vn 0.000000 0.000000 1.000000
vn 0.000000 1.000000 0.000000
vn 0.000000 1.000000 0.000000
vn 0.000000 1.000000 0.000000
vn 0.000000 1.000000 0.000000
vn 0.000000 0.000000 -1.000000
vn 0.000000 0.000000 -1.000000
vn 0.000000 0.000000 -1.000000
vn 0.000000 0.000000 -1.000000
vn 0.000000 -1.000000 0.000000
vn 0.000000 -1.000000 0.000000
vn 0.000000 -1.000000 0.000000
vn 0.000000 -1.000000 0.000000
vn 1.000000 0.000000 0.000000
vn 1.000000 0.000000 0.000000
vn 1.000000 0.000000 0.000000
vn 1.000000 0.000000 0.000000
vn -1.000000 0.000000 0.000000
vn -1.000000 0.000000 0.000000
vn -1.000000 0.000000 0.000000
vn -1.000000 0.000000 0.000000
vn -0.000004 -0.000003 1.000000
vn 0.000003 -0.000003 1.000000
vn 0.000003 -0.000003 1.000000
vn -0.000004 -0.000003 1.000000
vn 0.000003 0.000003 1.000000
vn 0.000003 0.000003 1.000000
vn -0.000004 0.000003 1.000000
vn -0.000004 0.000003 1.000000
vn 0.000000 1.000000 -0.000000
vn 0.000000 1.000000 -0.000000
vn 0.000000 1.000000 -0.000000
vn 0.000000 1.000000 -0.000000
vn 0.000000 1.000000 -0.000000
vn 0.000000 1.000000 -0.000000
vn 0.000000 1.000000 -0.000000
vn 0.000000 1.000000 -0.000000
vn -0.000002 0.000002 -1.000000
vn 0.000002 0.000002 -1.000000
vn 0.000002 0.000002 -1.000000
vn -0.000002 0.000002 -1.000000
vn 0.000002 -0.000002 -1.000000
vn 0.000002 -0.000002 -1.000000
vn -0.000002 -0.000002 -1.000000
vn -0.000002 -0.000002 -1.000000
vn 0.000000 -1.000000 0.000000
vn 0.000000 -1.000000 0.000000
vn 0.000000 -1.000000 0.000000
vn 0.000000 -1.000000 0.000000
vn 0.000000 -1.000000 0.000000
vn 0.000000 -1.000000 0.000000
vn 0.000000 -1.000000 0.000000
vn 0.000000 -1.000000 0.000000
vn 1.000000 -0.000000 0.000000
vn 1.000000 -0.000000 0.000000
vn 1.000000 -0.000000 0.000000
vn 1.000000 -0.000000 0.000000
vn 1.000000 -0.000000 0.000000
vn 1.000000 -0.000000 0.000000
vn 1.000000 -0.000000 0.000000
vn 1.000000 -0.000000 0.000000
vn -1.000000 -0.000000 -0.000000
vn -1.000000 -0.000000 -0.000000
vn -1.000000 -0.000000 -0.000000
vn -1.000000 -0.000000 -0.000000
vn -1.000000 -0.000000 -0.000000
vn -1.000000 -0.000000 -0.000000
vn -1.000000 -0.000000 -0.000000
vn -1.000000 -0.000000 -0.000000
vn 0.534839 0.432773 0.725710
vn -0.534840 0.432773 0.725710
vn -0.534840 0.432773 0.725710
vn 0.534839 0.432773 0.725710
vn -0.534840 -0.432773 0.725709
vn -0.534840 -0.432773 0.725709
vn 0.534840 -0.432773 0.725709
vn 0.534840 -0.432773 0.725709
vn 0.672791 0.694940 -0.253792
vn -0.672792 0.694939 -0.253793
vn -0.672792 0.694939 -0.253792
vn 0.672791 0.694940 -0.253792
vn -0.672792 0.694939 0.253792
vn -0.672792 0.694939 0.253793
vn 0.672792 0.694939 0.253792
vn 0.672792 0.694940 0.253792
vn 0.534836 -0.432768 -0.725715
vn -0.534837 -0.432769 -0.725714
vn -0.534836 -0.432769 -0.725714
vn 0.534835 -0.432769 -0.725715
vn -0.534836 0.432769 -0.725714
vn -0.534836 0.432769 -0.725714
vn 0.534836 0.432769 -0.725715
vn 0.534836 0.432769 -0.725715
vn 0.672792 -0.694939 0.253793
vn -0.672792 -0.694939 0.253793
vn -0.672792 -0.694939 0.253794
vn 0.672792 -0.694939 0.253794
vn -0.672792 -0.694939 -0.253794
vn -0.672792 -0.694939 -0.253793
vn 0.672792 -0.694939 -0.253794
vn 0.672792 -0.694939 -0.253793
vn 0.705923 0.641955 -0.299275
vn 0.705923 0.641956 0.299275
vn 0.705923 0.641956 0.299275
vn 0.705923 0.641955 -0.299275
vn 0.705923 -0.641956 0.299275
vn 0.705923 -0.641956 0.299275
vn 0.705923 -0.641955 -0.299276
vn 0.705923 -0.641956 -0.299275
vn -0.705922 0.641957 0.299275
vn -0.705922 0.641957 -0.299275
vn -0.705922 0.641956 -0.299275
vn -0.705923 0.641956 0.299275
vn -0.705922 -0.641957 -0.299275
vn -0.705922 -0.641957 -0.299275
vn -0.705922 -0.641957 0.299275
vn -0.705922 -0.641957 0.299275
vn 0.500000 0.000000 -0.866026
vn -0.500000 0.000000 -0.866026
vn -0.499515 0.044023 -0.865186
vn 0.499515 0.044023 -0.865186
vn -1.000000 0.000000 -0.000000
vn -0.999031 0.044023 -0.000000
vn -0.500002 0.000000 0.866025
vn -0.499517 0.044023 0.865185
vn 0.500002 0.000000 0.866024
vn 0.499517 0.044023 0.865185
vn 1.000000 0.000000 0.000000
vn 0.999031 0.044023 0.000000
vn 0.000000 -1.000000 0.000000
vn 0.000000 -1.000000 0.000000
vn 0.000000 -1.000000 0.000000
vn 0.000000 -1.000000 0.000000
vn 0.000000 -1.000000 0.000000
vn 0.000000 -1.000000 0.000000
vn 0.000000 -1.000000 0.000000
vn 0.000000 1.000000 0.000000
vn 0.000000 1.000000 0.000000
vn 0.000000 1.000000 0.000000
vn 0.000000 1.000000 0.000000
vn 0.000000 1.000000 0.000000
vn 0.000000 1.000000 0.000000
vn 0.000000 1.000000 0.000000
vn 0.999271 -0.038177 -0.000000
vn 0.499636 -0.038177 -0.865394
vn 0.500001 0.000000 -0.866025
vn 1.000000 0.000000 0.000000
vn 0.499636 -0.038177 0.865394
vn 0.500000 0.000000 0.866025
vn -0.499636 -0.038177 0.865394
vn -0.500000 0.000000 0.866025
vn -0.999271 -0.038177 0.000000
vn -1.000000 0.000000 -0.000000
vn -0.499636 -0.038177 -0.865394
vn -0.500001 0.000000 -0.866025
vn 1.000000 -0.000000 0.000000
vn 0.500002 0.000000 -0.866024
vn 0.500002 0.000000 -0.866024
vn 1.000000 -0.000000 0.000000
vn 0.500000 -0.000000 0.866026
vn 0.500000 -0.000000 0.866026
vn -0.500000 0.000000 0.866026
vn -0.500000 0.000000 0.866026
vn -1.000000 0.000000 -0.000000
vn -1.000000 0.000000 -0.000000
vn -0.500002 0.000000 -0.866024
vn -0.500002 0.000000 -0.866024
vn 0.464076 0.372196 -0.803806
vn 0.928155 0.372195 0.000000
vn 0.928155 -0.372195 -0.000003
vn 0.464077 -0.372196 -0.803806
vn 0.464080 0.372195 0.803804
vn 0.464082 -0.372198 0.803801
vn -0.464080 0.372195 0.803804
vn -0.464081 -0.372197 0.803803
vn -0.928155 0.372195 0.000000
vn -0.928155 -0.372195 0.000002
vn -0.464076 0.372196 -0.803806
vn -0.464077 -0.372196 -0.803805
vn 0.500000 0.000000 -0.866026
vn -0.500000 0.000000 -0.866026
vn -0.499515 0.044023 -0.865186
vn 0.499515 0.044023 -0.865186
vn -1.000000 0.000000 0.000000
vn -0.999031 0.044023 -0.000000
vn -0.500002 0.000000 0.866024
vn -0.499517 0.044023 0.865185
vn 0.500002 0.000000 0.866024
vn 0.499517 0.044023 0.865185
vn 1.000000 0.000000 0.000001
vn 0.999031 0.044023 0.000001
vn 0.000000 -1.000000 0.000000
vn 0.000000 -1.000000 0.000000
vn 0.000000 -1.000000 0.000000
vn 0.000000 -1.000000 0.000000
vn 0.000000 -1.000000 0.000000
vn 0.000000 -1.000000 0.000000
vn 0.000000 -1.000000 0.000000
vn 0.000000 1.000000 0.000000
vn 0.000000 1.000000 0.000000
vn 0.000000 1.000000 0.000000
vn 0.000000 1.000000 0.000000
vn 0.000000 1.000000 0.000000
vn 0.000000 1.000000 0.000000
vn 0.000000 1.000000 0.000000
vn 0.999271 -0.038177 0.000001
vn 0.499636 -0.038177 -0.865394
vn 0.500001 0.000000 -0.866025
vn 1.000000 0.000000 0.000000
vn 0.499636 -0.038178 0.865394
vn 0.500001 0.000000 0.866025
vn -0.499636 -0.038177 0.865394
vn -0.500001 0.000000 0.866025
vn -0.999271 -0.038178 0.000000
vn -1.000000 0.000000 0.000000
vn -0.499636 -0.038178 -0.865394
vn -0.500001 0.000000 -0.866025
vn 1.000000 0.000000 0.000001
vn 0.500002 0.000000 -0.866024
vn 0.500002 0.000000 -0.866024
vn 1.000000 0.000000 0.000001
vn 0.500000 0.000000 0.866026
vn 0.500000 0.000000 0.866026
vn -0.500000 0.000000 0.866026
vn -0.500000 0.000000 0.866026
vn -1.000000 0.000000 0.000000
vn -1.000000 0.000000 0.000000
vn -0.500002 0.000000 -0.866024
vn -0.500002 0.000000 -0.866024
vn 0.464076 0.372196 -0.803806
vn 0.928154 0.372196 0.000001
vn 0.928154 -0.372195 0.000002
vn 0.464076 -0.372195 -0.803806
vn 0.464080 0.372196 0.803804
vn 0.464080 -0.372196 0.803803
vn -0.464079 0.372196 0.803804
vn -0.464079 -0.372196 0.803804
vn -0.928154 0.372196 -0.000000
vn -0.928154 -0.372196 0.000000
vn -0.464076 0.372196 -0.803806
vn -0.464076 -0.372196 -0.803806
vn 0.500000 0.000000 -0.866026
vn -0.500000 0.000000 -0.866026
vn -0.499515 0.044023 -0.865186
vn 0.499515 0.044023 -0.865186
vn -1.000000 0.000000 0.000000
vn -0.999031 0.044023 0.000000
vn -0.500002 0.000000 0.866024
vn -0.499517 0.044023 0.865185
vn 0.500002 0.000000 0.866024
vn 0.499517 0.044023 0.865185
vn 1.000000 0.000000 0.000001
vn 0.999031 0.044023 0.000001
vn 0.000000 -1.000000 0.000000
vn 0.000000 -1.000000 0.000000
vn 0.000000 -1.000000 0.000000
vn 0.000000 -1.000000 0.000000
vn 0.000000 -1.000000 0.000000
vn 0.000000 -1.000000 0.000000
vn 0.000000 -1.000000 0.000000
vn 0.000000 1.000000 0.000000
vn 0.000000 1.000000 0.000000
vn 0.000000 1.000000 0.000000
vn 0.000000 1.000000 0.000000
vn 0.000000 1.000000 0.000000
vn 0.000000 1.000000 0.000000
vn 0.000000 1.000000 0.000000
vn 0.999271 -0.038177 0.000001
vn 0.499636 -0.038177 -0.865394
vn 0.500001 0.000000 -0.866025
vn 1.000000 0.000000 0.000000
vn 0.499636 -0.038178 0.865394
vn 0.500001 0.000000 0.866025
vn -0.499636 -0.038177 0.865394
vn -0.500001 0.000000 0.866025
vn -0.999271 -0.038178 0.000000
vn -1.000000 0.000000 0.000000
vn -0.499636 -0.038178 -0.865394
vn -0.500001 0.000000 -0.866025
vn 1.000000 0.000000 0.000001
vn 0.500002 0.000000 -0.866024
vn 0.500002 0.000000 -0.866024
vn 1.000000 0.000000 0.000001
vn 0.500000 0.000000 0.866026
vn 0.500000 0.000000 0.866026
vn -0.500000 0.000000 0.866026
vn -0.500000 0.000000 0.866026
vn -1.000000 0.000000 0.000000
vn -1.000000 0.000000 0.000000
vn -0.500002 0.000000 -0.866024
vn -0.500002 0.000000 -0.866024
vn 0.464077 0.372195 -0.803806
vn 0.928155 0.372195 0.000001
vn 0.928155 -0.372195 0.000002
vn 0.464076 -0.372195 -0.803806
vn 0.464080 0.372195 0.803804
vn 0.464080 -0.372196 0.803803
vn -0.464079 0.372196 0.803804
vn -0.464079 -0.372196 0.803804
vn -0.928154 0.372197 0.000000
vn -0.928154 -0.372197 0.000000
vn -0.464076 0.372196 -0.803805
vn -0.464076 -0.372196 -0.803806
s off
g Item_Contenedor_2 Obj_base
usemtl initialShadingGroup
f 6/1/1 5/14/2 7/13/3 8/11/4
f 2/15/5 4/16/6 3/18/7 1/20/8
f 2/5/9 1/8/10 5/2/11 6/9/12
f 1/8/13 3/19/14 7/12/15 5/2/16
f 3/7/17 4/17/18 8/10/19 7/3/20
f 4/6/21 2/5/22 6/9/23 8/4/24
f 41/21/25 42/22/26 43/23/27 44/24/28
f 45/25/29 46/26/30 47/27/31 48/28/32
f 49/29/33 50/30/34 51/31/35 52/32/36
f 53/33/37 54/34/38 55/35/39 56/36/40
f 58/37/41 57/38/42 59/39/43 60/40/44
f 61/41/45 62/42/46 63/43/47 64/44/48
s 1
f 9/45/49 10/46/50 18/47/51 17/48/52
f 10/46/50 12/49/53 19/50/54 18/47/51
f 12/49/53 11/51/55 20/52/56 19/50/54
f 11/51/55 9/45/49 17/48/52 20/52/56
s 2
f 11/53/57 12/54/58 22/55/59 21/56/60
f 12/54/58 14/57/61 23/58/62 22/55/59
f 14/57/61 13/59/63 24/60/64 23/58/62
f 13/59/63 11/53/57 21/56/60 24/60/64
s 3
f 13/61/65 14/62/66 26/63/67 25/64/68
f 14/62/66 16/65/69 27/66/70 26/63/67
f 16/65/69 15/67/71 28/68/72 27/66/70
f 15/67/71 13/61/65 25/64/68 28/68/72
s 4
f 15/69/73 16/70/74 30/71/75 29/72/76
f 16/70/74 10/73/77 31/74/78 30/71/75
f 10/73/77 9/75/79 32/76/80 31/74/78
f 9/75/79 15/69/73 29/72/76 32/76/80
s 5
f 10/77/81 16/78/82 33/79/83 34/80/84
f 16/78/82 14/81/85 35/82/86 33/79/83
f 14/81/85 12/83/87 36/84/88 35/82/86
f 12/83/87 10/77/81 34/80/84 36/84/88
s 6
f 15/85/89 9/86/90 38/87/91 37/88/92
f 9/86/90 11/89/93 39/90/94 38/87/91
f 11/89/93 13/91/95 40/92/96 39/90/94
f 13/91/95 15/85/89 37/88/92 40/92/96
s 7
f 17/93/97 18/94/98 42/95/99 41/96/100
f 18/94/98 19/97/101 43/98/102 42/95/99
f 19/97/101 20/99/103 44/100/104 43/98/102
f 20/99/103 17/93/97 41/96/100 44/100/104
s 8
f 21/101/105 22/102/106 46/103/107 45/104/108
f 22/102/106 23/105/109 47/106/110 46/103/107
f 23/105/109 24/107/111 48/108/112 47/106/110
f 24/107/111 21/101/105 45/104/108 48/108/112
s 9
f 25/109/113 26/110/114 50/111/115 49/112/116
f 26/110/114 27/113/117 51/114/118 50/111/115
f 27/113/117 28/115/119 52/116/120 51/114/118
f 28/115/119 25/109/113 49/112/116 52/116/120
s 10
f 29/117/121 30/118/122 54/119/123 53/120/124
f 30/118/122 31/121/125 55/122/126 54/119/123
f 31/121/125 32/123/127 56/124/128 55/122/126
f 32/123/127 29/117/121 53/120/124 56/124/128
s 11
f 34/125/129 33/126/130 57/127/131 58/128/132
f 33/126/130 35/129/133 59/130/134 57/127/131
f 35/129/133 36/131/135 60/132/136 59/130/134
f 36/131/135 34/125/129 58/128/132 60/132/136
s 12
f 37/133/137 38/134/138 62/135/139 61/136/140
f 38/134/138 39/137/141 63/138/142 62/135/139
f 39/137/141 40/139/143 64/140/144 63/138/142
f 40/139/143 37/133/137 61/136/140 64/140/144
s 13
f 65/141/145 66/142/146 90/143/147 85/144/148
f 66/142/146 67/145/149 89/146/150 90/143/147
f 67/145/149 68/147/151 88/148/152 89/146/150
f 68/149/151 69/150/153 87/151/154 88/152/152
f 69/150/153 70/153/155 86/154/156 87/151/154
f 70/153/155 65/141/145 85/144/148 86/154/156
s 14
f 66/155/157 65/156/158 77/157/159
f 67/158/160 66/155/157 77/157/159
f 68/159/161 67/158/160 77/157/159
f 69/160/162 68/159/161 77/157/159
f 70/161/163 69/160/162 77/157/159
f 65/156/158 70/161/163 77/157/159
s 15
f 71/162/164 72/163/165 78/164/166
f 72/163/165 73/165/167 78/164/166
f 73/165/167 74/166/168 78/164/166
f 74/166/168 75/167/169 78/164/166
f 75/167/169 76/168/170 78/164/166
f 76/168/170 71/162/164 78/164/166
s 16
f 80/169/171 79/170/172 71/171/173 76/172/174
f 81/173/175 80/169/171 76/172/174 75/174/176
f 82/175/177 81/173/175 75/174/176 74/176/178
f 83/177/179 82/178/177 74/179/178 73/180/180
f 84/181/181 83/177/179 73/180/180 72/182/182
f 79/170/172 84/181/181 72/182/182 71/171/173
s 17
f 92/183/183 91/184/184 93/185/185 94/186/186
f 95/187/187 92/183/183 94/186/186 96/188/188
f 97/189/189 95/187/187 96/188/188 98/190/190
f 99/191/191 97/192/189 98/193/190 100/194/192
f 101/195/193 99/191/191 100/194/192 102/196/194
f 91/184/184 101/195/193 102/196/194 93/185/185
s 13
f 86/154/156 85/144/148 91/197/195 92/198/196
s 16
f 79/170/172 80/169/171 94/199/197 93/200/198
s 13
f 87/151/154 86/154/156 92/198/196 95/201/199
s 16
f 80/169/171 81/173/175 96/202/200 94/199/197
s 13
f 88/152/152 87/151/154 95/201/199 97/203/201
s 16
f 81/173/175 82/175/177 98/204/202 96/202/200
s 13
f 89/146/150 88/148/152 97/205/201 99/206/203
s 16
f 82/178/177 83/177/179 100/207/204 98/208/202
s 13
f 90/143/147 89/146/150 99/206/203 101/209/205
s 16
f 83/177/179 84/181/181 102/210/206 100/207/204
s 13
f 85/144/148 90/143/147 101/209/205 91/197/195
s 16
f 84/181/181 79/170/172 93/200/198 102/210/206
s 18
f 103/211/207 104/212/208 128/213/209 123/214/210
f 104/212/208 105/215/211 127/216/212 128/213/209
f 105/215/211 106/217/213 126/218/214 127/216/212
f 106/219/213 107/220/215 125/221/216 126/222/214
f 107/220/215 108/223/217 124/224/218 125/221/216
f 108/223/217 103/211/207 123/214/210 124/224/218
s 19
f 104/225/219 103/226/220 115/227/221
f 105/228/222 104/225/219 115/227/221
f 106/229/223 105/228/222 115/227/221
f 107/230/224 106/229/223 115/227/221
f 108/231/225 107/230/224 115/227/221
f 103/226/220 108/231/225 115/227/221
s 20
f 109/232/226 110/233/227 116/234/228
f 110/233/227 111/235/229 116/234/228
f 111/235/229 112/236/230 116/234/228
f 112/236/230 113/237/231 116/234/228
f 113/237/231 114/238/232 116/234/228
f 114/238/232 109/232/226 116/234/228
s 21
f 118/239/233 117/240/234 109/241/235 114/242/236
f 119/243/237 118/239/233 114/242/236 113/244/238
f 120/245/239 119/243/237 113/244/238 112/246/240
f 121/247/241 120/248/239 112/249/240 111/250/242
f 122/251/243 121/247/241 111/250/242 110/252/244
f 117/240/234 122/251/243 110/252/244 109/241/235
s 22
f 130/253/245 129/254/246 131/255/247 132/256/248
f 133/257/249 130/253/245 132/256/248 134/258/250
f 135/259/251 133/257/249 134/258/250 136/260/252
f 137/261/253 135/262/251 136/263/252 138/264/254
f 139/265/255 137/261/253 138/264/254 140/266/256
f 129/254/246 139/265/255 140/266/256 131/255/247
s 18
f 124/224/218 123/214/210 129/267/257 130/268/258
s 21
f 117/240/234 118/239/233 132/269/259 131/270/260
s 18
f 125/221/216 124/224/218 130/268/258 133/271/261
s 21
f 118/239/233 119/243/237 134/272/262 132/269/259
s 18
f 126/222/214 125/221/216 133/271/261 135/273/263
s 21
f 119/243/237 120/245/239 136/274/264 134/272/262
s 18
f 127/216/212 126/218/214 135/275/263 137/276/265
s 21
f 120/248/239 121/247/241 138/277/266 136/278/264
s 18
f 128/213/209 127/216/212 137/276/265 139/279/267
s 21
f 121/247/241 122/251/243 140/280/268 138/277/266
s 18
f 123/214/210 128/213/209 139/279/267 129/267/257
s 21
f 122/251/243 117/240/234 131/270/260 140/280/268
s 23
f 141/281/269 142/282/270 166/283/271 161/284/272
f 142/282/270 143/285/273 165/286/274 166/283/271
f 143/285/273 144/287/275 164/288/276 165/286/274
f 144/289/275 145/290/277 163/291/278 164/292/276
f 145/290/277 146/293/279 162/294/280 163/291/278
f 146/293/279 141/281/269 161/284/272 162/294/280
s 24
f 142/295/281 141/296/282 153/297/283
f 143/298/284 142/295/281 153/297/283
f 144/299/285 143/298/284 153/297/283
f 145/300/286 144/299/285 153/297/283
f 146/301/287 145/300/286 153/297/283
f 141/296/282 146/301/287 153/297/283
s 25
f 147/302/288 148/303/289 154/304/290
f 148/303/289 149/305/291 154/304/290
f 149/305/291 150/306/292 154/304/290
f 150/306/292 151/307/293 154/304/290
f 151/307/293 152/308/294 154/304/290
f 152/308/294 147/302/288 154/304/290
s 26
f 156/309/295 155/310/296 147/311/297 152/312/298
f 157/313/299 156/309/295 152/312/298 151/314/300
f 158/315/301 157/313/299 151/314/300 150/316/302
f 159/317/303 158/318/301 150/319/302 149/320/304
f 160/321/305 159/317/303 149/320/304 148/322/306
f 155/310/296 160/321/305 148/322/306 147/311/297
s 27
f 168/323/307 167/324/308 169/325/309 170/326/310
f 171/327/311 168/323/307 170/326/310 172/328/312
f 173/329/313 171/327/311 172/328/312 174/330/314
f 175/331/315 173/332/313 174/333/314 176/334/316
f 177/335/317 175/331/315 176/334/316 178/336/318
f 167/324/308 177/335/317 178/336/318 169/325/309
s 23
f 162/294/280 161/284/272 167/337/319 168/338/320
s 26
f 155/310/296 156/309/295 170/339/321 169/340/322
s 23
f 163/291/278 162/294/280 168/338/320 171/341/323
s 26
f 156/309/295 157/313/299 172/342/324 170/339/321
s 23
f 164/292/276 163/291/278 171/341/323 173/343/325
s 26
f 157/313/299 158/315/301 174/344/326 172/342/324
s 23
f 165/286/274 164/288/276 173/345/325 175/346/327
s 26
f 158/318/301 159/317/303 176/347/328 174/348/326
s 23
f 166/283/271 165/286/274 175/346/327 177/349/329
s 26
f 159/317/303 160/321/305 178/350/330 176/347/328
s 23
f 161/284/272 166/283/271 177/349/329 167/337/319
s 26
f 160/321/305 155/310/296 169/340/322 178/350/330
