# This file uses centimeters as units for non-parametric coordinates.

mtllib Item_Contenedor_2.mtl
g default
v 1.189958 1.188428 0.141437
v 1.189958 1.188428 2.699711
v 1.189958 2.356546 0.141437
v 1.189958 2.356546 2.699711
v 1.225921 1.188428 0.141437
v 1.225921 1.188428 2.699711
v 1.225921 2.356546 0.141437
v 1.225921 2.356546 2.699711
v -1.224211 0.000000 2.999998
v 1.275788 0.000000 2.999999
v -1.224211 3.000000 2.999998
v 1.275788 3.000000 2.999999
v -1.224210 3.000000 -2.999998
v 1.275788 3.000000 -2.999998
v -1.224210 0.000000 -2.999998
v 1.275788 0.000000 -2.999998
v -1.064212 0.160000 3.000000
v 1.115788 0.160000 3.000000
v 1.115788 2.840000 3.000000
v -1.064212 2.840000 3.000000
v -1.064212 3.000000 2.839999
v 1.115788 3.000000 2.839999
v 1.115788 3.000000 -2.839999
v -1.064212 3.000000 -2.839999
v -1.064212 2.840000 -2.999998
v 1.115788 2.840000 -2.999999
v 1.115788 0.160000 -2.999999
v -1.064212 0.160000 -2.999998
v -1.064212 0.000000 -2.839999
v 1.115788 0.000000 -2.839999
v 1.115788 0.000000 2.839999
v -1.064212 0.000000 2.839999
v 1.275788 0.160000 -2.839999
v 1.275788 0.160000 2.839999
v 1.275788 2.840000 -2.839999
v 1.275788 2.840000 2.839999
v -1.224210 0.160000 -2.839999
v -1.224211 0.160000 2.839999
v -1.224211 2.840000 2.839999
v -1.224210 2.840000 -2.839999
v -1.004212 0.220000 2.919999
v 1.055788 0.220000 2.919999
v 1.055788 2.780000 2.919999
v -1.004212 2.780000 2.919999
v -1.004212 2.920000 2.779999
v 1.055788 2.920000 2.779999
v 1.055788 2.920000 -2.779999
v -1.004212 2.920000 -2.779999
v -1.004212 2.780000 -2.919999
v 1.055788 2.780000 -2.919999
v 1.055788 0.220000 -2.919999
v -1.004212 0.220000 -2.919999
v -1.004212 0.080000 -2.779999
v 1.055788 0.080000 -2.779999
v 1.055788 0.080000 2.779999
v -1.004212 0.080000 2.779999
v 1.195788 0.220000 -2.779999
v 1.195788 0.220000 2.779999
v 1.195788 2.780000 -2.779999
v 1.195788 2.780000 2.779999
v -1.144210 0.220000 -2.779999
v -1.144210 0.220000 2.779999
v -1.144210 2.780000 2.779999
v -1.144210 2.780000 -2.779999
v 0.025000 0.220000 -3.009419
v -0.025000 0.220000 -3.009419
v -0.050000 0.220000 -2.966117
v -0.025000 0.220000 -2.922816
v 0.025000 0.220000 -2.922816
v 0.050000 0.220000 -2.966117
v 0.025000 2.780000 -3.009419
v -0.025000 2.780000 -3.009419
v -0.050000 2.780000 -2.966117
v -0.025000 2.780000 -2.922816
v 0.025000 2.780000 -2.922816
v 0.050000 2.780000 -2.966117
v 0.000000 0.220000 -2.966117
v 0.000000 2.780000 -2.966117
v 0.025000 2.605852 -3.009419
v 0.050000 2.605852 -2.966117
v 0.025000 2.605852 -2.922816
v -0.025000 2.605852 -2.922816
v -0.050000 2.605852 -2.966117
v -0.025000 2.605852 -3.009419
v 0.025000 0.368548 -3.009419
v 0.050000 0.368548 -2.966117
v 0.025000 0.368548 -2.922816
v -0.025000 0.368548 -2.922816
v -0.050000 0.368548 -2.966117
v -0.025000 0.368548 -3.009419
v 0.020403 0.391476 -3.001456
v 0.040806 0.391476 -2.966117
v 0.020403 2.582924 -3.001456
v 0.040806 2.582924 -2.966117
v 0.020403 0.391476 -2.930779
v 0.020403 2.582924 -2.930779
v -0.020403 0.391476 -2.930779
v -0.020403 2.582924 -2.930779
v -0.040806 0.391476 -2.966117
v -0.040806 2.582924 -2.966117
v -0.020403 0.391476 -3.001456
v -0.020403 2.582924 -3.001456
v 0.625000 0.220000 -3.009419
v 0.575000 0.220000 -3.009419
v 0.550000 0.220000 -2.966117
v 0.575000 0.220000 -2.922816
v 0.625000 0.220000 -2.922816
v 0.650000 0.220000 -2.966117
v 0.625000 2.780000 -3.009419
v 0.575000 2.780000 -3.009419
v 0.550000 2.780000 -2.966117
v 0.575000 2.780000 -2.922816
v 0.625000 2.780000 -2.922816
v 0.650000 2.780000 -2.966117
v 0.600000 0.220000 -2.966117
v 0.600000 2.780000 -2.966117
v 0.625000 2.605852 -3.009419
v 0.650000 2.605852 -2.966117
v 0.625000 2.605852 -2.922816
v 0.575000 2.605852 -2.922816
v 0.550000 2.605852 -2.966117
v 0.575000 2.605852 -3.009419
v 0.625000 0.368548 -3.009419
v 0.650000 0.368548 -2.966117
v 0.625000 0.368548 -2.922816
v 0.575000 0.368548 -2.922816
v 0.550000 0.368548 -2.966117
v 0.575000 0.368548 -3.009419
v 0.620403 0.391476 -3.001456
v 0.640806 0.391476 -2.966117
v 0.620403 2.582924 -3.001456
v 0.640806 2.582924 -2.966117
v 0.620403 0.391476 -2.930779
v 0.620403 2.582924 -2.930779
v 0.579597 0.391476 -2.930779
v 0.579597 2.582924 -2.930779
v 0.559194 0.391476 -2.966117
v 0.559194 2.582924 -2.966117
v 0.579597 0.391476 -3.001456
v 0.579597 2.582924 -3.001456
v -0.575000 0.220000 -3.009419
v -0.625000 0.220000 -3.009419
v -0.650000 0.220000 -2.966117
v -0.625000 0.220000 -2.922816
v -0.575000 0.220000 -2.922816
v -0.550000 0.220000 -2.966117
v -0.575000 2.780000 -3.009419
v -0.625000 2.780000 -3.009419
v -0.650000 2.780000 -2.966117
v -0.625000 2.780000 -2.922816
v -0.575000 2.780000 -2.922816
v -0.550000 2.780000 -2.966117
v -0.600000 0.220000 -2.966117
v -0.600000 2.780000 -2.966117
v -0.575000 2.605852 -3.009419
v -0.550000 2.605852 -2.966117
v -0.575000 2.605852 -2.922816
v -0.625000 2.605852 -2.922816
v -0.650000 2.605852 -2.966117
v -0.625000 2.605852 -3.009419
v -0.575000 0.368548 -3.009419
v -0.550000 0.368548 -2.966117
v -0.575000 0.368548 -2.922816
v -0.625000 0.368548 -2.922816
v -0.650000 0.368548 -2.966117
v -0.625000 0.368548 -3.009419
v -0.579597 0.391476 -3.001456
v -0.559194 0.391476 -2.966117
v -0.579597 2.582924 -3.001456
v -0.559194 2.582924 -2.966117
v -0.579597 0.391476 -2.930779
v -0.579597 2.582924 -2.930779
v -0.620403 0.391476 -2.930779
v -0.620403 2.582924 -2.930779
v -0.640806 0.391476 -2.966117
v -0.640806 2.582924 -2.966117
v -0.620403 0.391476 -3.001456
v -0.620403 2.582924 -3.001456
vt 0.091140 0.393459
vt 0.796350 0.892398
vt 0.809524 0.678779
vt 0.796350 0.678768
vt 0.798412 0.745735
vt 0.798412 0.678768
vt 0.811585 0.678779
vt 0.798412 0.892398
vt 0.796350 0.745735
vt 0.809524 0.825442
vt 0.024173 0.393459
vt 0.796350 0.959365
vt 0.024173 0.540120
vt 0.091140 0.540120
vt 0.949789 0.166329
vt 0.882823 0.166329
vt 0.811585 0.825442
vt 0.882823 0.019668
vt 0.798412 0.959365
vt 0.949789 0.019668
vt 0.555847 0.374498
vt 0.673943 0.374498
vt 0.673943 0.521259
vt 0.555847 0.521259
vt 0.877756 0.344720
vt 0.995853 0.344720
vt 0.995853 0.663466
vt 0.877756 0.663466
vt 0.504713 0.521259
vt 0.386617 0.521259
vt 0.386617 0.374498
vt 0.504713 0.374498
vt 0.984706 0.993021
vt 0.866609 0.993021
vt 0.866609 0.674275
vt 0.984706 0.674275
vt 0.855287 0.003906
vt 0.855287 0.322652
vt 0.708526 0.322652
vt 0.708526 0.003906
vt 0.855624 0.333461
vt 0.855624 0.652206
vt 0.708864 0.652207
vt 0.708864 0.333461
vt 0.528586 0.871524
vt 0.385266 0.871524
vt 0.394438 0.862352
vt 0.519414 0.862352
vt 0.385266 0.699539
vt 0.394438 0.708712
vt 0.528586 0.699539
vt 0.519414 0.708712
vt 0.147227 0.717447
vt 0.003906 0.717447
vt 0.013079 0.708275
vt 0.138055 0.708275
vt 0.003906 0.373477
vt 0.013079 0.382650
vt 0.147227 0.373477
vt 0.138055 0.382650
vt 0.571723 0.699539
vt 0.715044 0.699539
vt 0.705871 0.708712
vt 0.580895 0.708712
vt 0.715044 0.871524
vt 0.705871 0.862352
vt 0.571723 0.871524
vt 0.580895 0.862352
vt 0.301595 0.717447
vt 0.158274 0.717447
vt 0.167447 0.708275
vt 0.292422 0.708275
vt 0.158274 0.373477
vt 0.167447 0.382650
vt 0.301595 0.373477
vt 0.292422 0.382650
vt 0.697432 0.003906
vt 0.697432 0.347876
vt 0.688259 0.338704
vt 0.688259 0.013079
vt 0.525446 0.347876
vt 0.534619 0.338704
vt 0.525446 0.003906
vt 0.534619 0.013079
vt 0.514352 0.003906
vt 0.514352 0.347876
vt 0.505179 0.338704
vt 0.505179 0.013079
vt 0.342367 0.347876
vt 0.351539 0.338704
vt 0.342367 0.003906
vt 0.351539 0.013079
vt 0.493720 0.181910
vt 0.364323 0.181910
vt 0.369483 0.176756
vt 0.488472 0.176855
vt 0.364323 0.023888
vt 0.369571 0.028943
vt 0.493720 0.023888
vt 0.488560 0.029042
vt 0.855575 0.993019
vt 0.726091 0.993020
vt 0.731421 0.988045
vt 0.850187 0.988139
vt 0.726091 0.663017
vt 0.731479 0.667897
vt 0.855575 0.663016
vt 0.850245 0.667992
vt 0.675110 0.181910
vt 0.545714 0.181910
vt 0.550873 0.176756
vt 0.669863 0.176854
vt 0.545714 0.023888
vt 0.550961 0.028943
vt 0.675110 0.023888
vt 0.669950 0.029042
vt 0.996094 0.333910
vt 0.866609 0.333911
vt 0.871939 0.328935
vt 0.990706 0.329030
vt 0.866609 0.003908
vt 0.871997 0.008788
vt 0.996094 0.003906
vt 0.990764 0.008882
vt 0.697781 0.358685
vt 0.697781 0.688728
vt 0.692440 0.683805
vt 0.692498 0.363693
vt 0.539634 0.688730
vt 0.544917 0.683722
vt 0.539633 0.358687
vt 0.544975 0.363611
vt 0.528551 0.358685
vt 0.528551 0.688728
vt 0.523209 0.683805
vt 0.523267 0.363693
vt 0.370403 0.688730
vt 0.375687 0.683722
vt 0.370403 0.358687
vt 0.375744 0.363611
vt 0.658552 0.146216
vt 0.658279 0.149222
vt 0.649855 0.148300
vt 0.650128 0.145617
vt 0.657864 0.152199
vt 0.649397 0.150977
vt 0.657345 0.155111
vt 0.648655 0.153659
vt 0.658634 0.137349
vt 0.658681 0.140233
vt 0.650216 0.140178
vt 0.649923 0.137354
vt 0.658681 0.143209
vt 0.650252 0.142917
vt 0.566892 0.137598
vt 0.564410 0.139031
vt 0.564410 0.136165
vt 0.566892 0.134731
vt 0.564410 0.133298
vt 0.561927 0.134731
vt 0.561927 0.137598
vt 0.452603 0.144834
vt 0.455085 0.146267
vt 0.452603 0.147701
vt 0.455085 0.149134
vt 0.452603 0.150567
vt 0.450120 0.149134
vt 0.450120 0.146267
vt 0.614458 0.084484
vt 0.614393 0.087196
vt 0.604488 0.087218
vt 0.604526 0.084219
vt 0.614687 0.081764
vt 0.604676 0.081235
vt 0.615177 0.079017
vt 0.604913 0.078296
vt 0.614668 0.092658
vt 0.615124 0.095464
vt 0.604938 0.096039
vt 0.604738 0.093165
vt 0.614458 0.089914
vt 0.604565 0.090209
vt 0.751662 0.804367
vt 0.749322 0.804367
vt 0.749322 0.678735
vt 0.751662 0.678735
vt 0.754001 0.804367
vt 0.754001 0.678735
vt 0.756340 0.804367
vt 0.756340 0.678735
vt 0.744644 0.804367
vt 0.742304 0.804367
vt 0.742304 0.678735
vt 0.744644 0.678735
vt 0.746983 0.804367
vt 0.746983 0.678735
vt 0.648742 0.145502
vt 0.648861 0.142909
vt 0.615836 0.084596
vt 0.615782 0.087209
vt 0.648825 0.140339
vt 0.616031 0.082035
vt 0.648504 0.137901
vt 0.616510 0.079667
vt 0.647387 0.152897
vt 0.648078 0.150593
vt 0.616044 0.092407
vt 0.616510 0.094827
vt 0.648488 0.148078
vt 0.615845 0.089827
vt 0.391702 0.148129
vt 0.391428 0.151135
vt 0.383005 0.150213
vt 0.383278 0.147530
vt 0.391014 0.154112
vt 0.382546 0.152890
vt 0.390494 0.157024
vt 0.381805 0.155572
vt 0.391784 0.139262
vt 0.391831 0.142146
vt 0.383366 0.142091
vt 0.383073 0.139267
vt 0.391831 0.145122
vt 0.383402 0.144830
vt 0.636476 0.149135
vt 0.633993 0.150568
vt 0.633993 0.147702
vt 0.636476 0.146268
vt 0.633993 0.144835
vt 0.631511 0.146268
vt 0.631511 0.149135
vt 0.580285 0.143026
vt 0.582768 0.144459
vt 0.580285 0.145892
vt 0.582768 0.147325
vt 0.580285 0.148758
vt 0.577803 0.147325
vt 0.577803 0.144459
vt 0.433068 0.084484
vt 0.433003 0.087196
vt 0.423098 0.087218
vt 0.423135 0.084219
vt 0.433296 0.081763
vt 0.423285 0.081234
vt 0.433786 0.079016
vt 0.423522 0.078296
vt 0.433277 0.092658
vt 0.433734 0.095464
vt 0.423547 0.096039
vt 0.423347 0.093164
vt 0.433067 0.089914
vt 0.423174 0.090208
vt 0.354764 0.791523
vt 0.352425 0.791523
vt 0.352425 0.665891
vt 0.354764 0.665891
vt 0.357104 0.791523
vt 0.357104 0.665891
vt 0.359443 0.791523
vt 0.359443 0.665891
vt 0.347746 0.791523
vt 0.345407 0.791523
vt 0.345407 0.665891
vt 0.347746 0.665891
vt 0.350086 0.791523
vt 0.350086 0.665891
vt 0.381892 0.147414
vt 0.382011 0.144822
vt 0.434446 0.084596
vt 0.434392 0.087208
vt 0.381975 0.142252
vt 0.434641 0.082034
vt 0.381653 0.139813
vt 0.435119 0.079667
vt 0.380537 0.154810
vt 0.381228 0.152505
vt 0.434654 0.092406
vt 0.435119 0.094827
vt 0.381638 0.149990
vt 0.434455 0.089827
vt 0.477162 0.146215
vt 0.476888 0.149221
vt 0.468464 0.148299
vt 0.468737 0.145616
vt 0.476474 0.152198
vt 0.468006 0.150976
vt 0.475954 0.155111
vt 0.467264 0.153658
vt 0.477243 0.137348
vt 0.477290 0.140232
vt 0.468825 0.140177
vt 0.468532 0.137353
vt 0.477290 0.143208
vt 0.468862 0.142916
vt 0.423671 0.148031
vt 0.423671 0.150897
vt 0.421189 0.149464
vt 0.421189 0.146598
vt 0.418706 0.148031
vt 0.418706 0.150897
vt 0.421189 0.152331
vt 0.407795 0.146545
vt 0.407795 0.149411
vt 0.405313 0.147978
vt 0.405313 0.150844
vt 0.402830 0.149411
vt 0.402830 0.146545
vt 0.405313 0.145111
vt 0.970821 0.142668
vt 0.970757 0.145380
vt 0.960851 0.145402
vt 0.960889 0.142402
vt 0.971050 0.139947
vt 0.961039 0.139418
vt 0.971540 0.137200
vt 0.961276 0.136480
vt 0.971031 0.150842
vt 0.971488 0.153648
vt 0.961301 0.154223
vt 0.961101 0.151348
vt 0.970821 0.148097
vt 0.960928 0.148392
vt 0.321999 0.499109
vt 0.319660 0.499109
vt 0.319660 0.373477
vt 0.321999 0.373477
vt 0.324338 0.499109
vt 0.324338 0.373477
vt 0.326678 0.499109
vt 0.326678 0.373477
vt 0.314981 0.499109
vt 0.312642 0.499109
vt 0.312642 0.373477
vt 0.314981 0.373477
vt 0.317320 0.499109
vt 0.317320 0.373477
vt 0.467352 0.145501
vt 0.467470 0.142908
vt 0.972200 0.142780
vt 0.972145 0.145392
vt 0.467434 0.140338
vt 0.972394 0.140218
vt 0.467113 0.137900
vt 0.972873 0.137851
vt 0.465996 0.152896
vt 0.466688 0.150592
vt 0.972408 0.150590
vt 0.972873 0.153011
vt 0.467098 0.148077
vt 0.972208 0.148011
vn 1.000000 0.000000 0.000000
vn 1.000000 0.000000 0.000000
vn 1.000000 0.000000 0.000000
vn 1.000000 0.000000 0.000000
vn -1.000000 0.000000 0.000000
vn -1.000000 0.000000 0.000000
vn -1.000000 0.000000 0.000000
vn -1.000000 0.000000 0.000000
vn 0.000000 -1.000000 0.000000
vn 0.000000 -1.000000 0.000000
vn 0.000000 -1.000000 0.000000
vn 0.000000 -1.000000 0.000000
vn 0.000000 0.000000 -1.000000
vn 0.000000 0.000000 -1.000000
vn 0.000000 0.000000 -1.000000
vn 0.000000 0.000000 -1.000000
vn 0.000000 1.000000 0.000000
vn 0.000000 1.000000 0.000000
vn 0.000000 1.000000 0.000000
vn 0.000000 1.000000 0.000000
vn 0.000000 0.000000 1.000000
vn 0.000000 0.000000 1.000000
vn 0.000000 0.000000 1.000000
vn 0.000000 0.000000 1.000000
vn 0.000000 0.000000 1.000000
vn 0.000000 0.000000 1.000000
vn 0.000000 0.000000 1.000000
vn 0.000000 0.000000 1.000000
vn 0.000000 1.000000 0.000000
vn 0.000000 1.000000 0.000000
vn 0.000000 1.000000 0.000000
vn 0.000000 1.000000 0.000000
vn 0.000000 0.000000 -1.000000
vn 0.000000 0.000000 -1.000000
vn 0.000000 0.000000 -1.000000
vn 0.000000 0.000000 -1.000000
vn 0.000000 -1.000000 0.000000
vn 0.000000 -1.000000 0.000000
vn 0.000000 -1.000000 0.000000
vn 0.000000 -1.000000 0.000000
vn 1.000000 0.000000 0.000000
vn 1.000000 0.000000 0.000000
vn 1.000000 0.000000 0.000000
vn 1.000000 0.000000 0.000000
vn -1.000000 0.000000 0.000000
vn -1.000000 0.000000 0.000000
vn -1.000000 0.000000 0.000000
vn -1.000000 0.000000 0.000000
vn -0.000004 -0.000003 1.000000
vn 0.000003 -0.000003 1.000000
vn 0.000003 -0.000003 1.000000
vn -0.000004 -0.000003 1.000000
vn 0.000003 0.000003 1.000000
vn 0.000003 0.000003 1.000000
vn -0.000004 0.000003 1.000000
vn -0.000004 0.000003 1.000000
vn 0.000000 1.000000 -0.000000
vn 0.000000 1.000000 -0.000000
vn 0.000000 1.000000 -0.000000
vn 0.000000 1.000000 -0.000000
vn 0.000000 1.000000 -0.000000
vn 0.000000 1.000000 -0.000000
vn 0.000000 1.000000 -0.000000
vn 0.000000 1.000000 -0.000000
vn -0.000002 0.000002 -1.000000
vn 0.000002 0.000002 -1.000000
vn 0.000002 0.000002 -1.000000
vn -0.000002 0.000002 -1.000000
vn 0.000002 -0.000002 -1.000000
vn 0.000002 -0.000002 -1.000000
vn -0.000002 -0.000002 -1.000000
vn -0.000002 -0.000002 -1.000000
vn 0.000000 -1.000000 0.000000
vn 0.000000 -1.000000 0.000000
vn 0.000000 -1.000000 0.000000
vn 0.000000 -1.000000 0.000000
vn 0.000000 -1.000000 0.000000
vn 0.000000 -1.000000 0.000000
vn 0.000000 -1.000000 0.000000
vn 0.000000 -1.000000 0.000000
vn 1.000000 -0.000000 0.000000
vn 1.000000 -0.000000 0.000000
vn 1.000000 -0.000000 0.000000
vn 1.000000 -0.000000 0.000000
vn 1.000000 -0.000000 0.000000
vn 1.000000 -0.000000 0.000000
vn 1.000000 -0.000000 0.000000
vn 1.000000 -0.000000 0.000000
vn -1.000000 -0.000000 -0.000000
vn -1.000000 -0.000000 -0.000000
vn -1.000000 -0.000000 -0.000000
vn -1.000000 -0.000000 -0.000000
vn -1.000000 -0.000000 -0.000000
vn -1.000000 -0.000000 -0.000000
vn -1.000000 -0.000000 -0.000000
vn -1.000000 -0.000000 -0.000000
vn 0.534839 0.432773 0.725710
vn -0.534840 0.432773 0.725710
vn -0.534840 0.432773 0.725710
vn 0.534839 0.432773 0.725710
vn -0.534840 -0.432773 0.725709
vn -0.534840 -0.432773 0.725709
vn 0.534840 -0.432773 0.725709
vn 0.534840 -0.432773 0.725709
vn 0.672791 0.694940 -0.253792
vn -0.672792 0.694939 -0.253793
vn -0.672792 0.694939 -0.253792
vn 0.672791 0.694940 -0.253792
vn -0.672792 0.694939 0.253792
vn -0.672792 0.694939 0.253793
vn 0.672792 0.694939 0.253792
vn 0.672792 0.694940 0.253792
vn 0.534836 -0.432768 -0.725715
vn -0.534837 -0.432769 -0.725714
vn -0.534836 -0.432769 -0.725714
vn 0.534835 -0.432769 -0.725715
vn -0.534836 0.432769 -0.725714
vn -0.534836 0.432769 -0.725714
vn 0.534836 0.432769 -0.725715
vn 0.534836 0.432769 -0.725715
vn 0.672792 -0.694939 0.253793
vn -0.672792 -0.694939 0.253793
vn -0.672792 -0.694939 0.253794
vn 0.672792 -0.694939 0.253794
vn -0.672792 -0.694939 -0.253794
vn -0.672792 -0.694939 -0.253793
vn 0.672792 -0.694939 -0.253794
vn 0.672792 -0.694939 -0.253793
vn 0.705923 0.641955 -0.299275
vn 0.705923 0.641956 0.299275
vn 0.705923 0.641956 0.299275
vn 0.705923 0.641955 -0.299275
vn 0.705923 -0.641956 0.299275
vn 0.705923 -0.641956 0.299275
vn 0.705923 -0.641955 -0.299276
vn 0.705923 -0.641956 -0.299275
vn -0.705922 0.641957 0.299275
vn -0.705922 0.641957 -0.299275
vn -0.705922 0.641956 -0.299275
vn -0.705923 0.641956 0.299275
vn -0.705922 -0.641957 -0.299275
vn -0.705922 -0.641957 -0.299275
vn -0.705922 -0.641957 0.299275
vn -0.705922 -0.641957 0.299275
vn 0.500000 0.000000 -0.866026
vn -0.500000 0.000000 -0.866026
vn -0.499515 0.044023 -0.865186
vn 0.499515 0.044023 -0.865186
vn -1.000000 0.000000 -0.000000
vn -0.999031 0.044023 -0.000000
vn -0.500002 0.000000 0.866025
vn -0.499517 0.044023 0.865185
vn 0.500002 0.000000 0.866024
vn 0.499517 0.044023 0.865185
vn 1.000000 0.000000 0.000000
vn 0.999031 0.044023 0.000000
vn 0.000000 -1.000000 0.000000
vn 0.000000 -1.000000 0.000000
vn 0.000000 -1.000000 0.000000
vn 0.000000 -1.000000 0.000000
vn 0.000000 -1.000000 0.000000
vn 0.000000 -1.000000 0.000000
vn 0.000000 -1.000000 0.000000
vn 0.000000 1.000000 0.000000
vn 0.000000 1.000000 0.000000
vn 0.000000 1.000000 0.000000
vn 0.000000 1.000000 0.000000
vn 0.000000 1.000000 0.000000
vn 0.000000 1.000000 0.000000
vn 0.000000 1.000000 0.000000
vn 0.999271 -0.038177 -0.000000
vn 0.499636 -0.038177 -0.865394
vn 0.500001 0.000000 -0.866025
vn 1.000000 0.000000 0.000000
vn 0.499636 -0.038177 0.865394
vn 0.500000 0.000000 0.866025
vn -0.499636 -0.038177 0.865394
vn -0.500000 0.000000 0.866025
vn -0.999271 -0.038177 0.000000
vn -1.000000 0.000000 -0.000000
vn -0.499636 -0.038177 -0.865394
vn -0.500001 0.000000 -0.866025
vn 1.000000 -0.000000 0.000000
vn 0.500002 0.000000 -0.866024
vn 0.500002 0.000000 -0.866024
vn 1.000000 -0.000000 0.000000
vn 0.500000 -0.000000 0.866026
vn 0.500000 -0.000000 0.866026
vn -0.500000 0.000000 0.866026
vn -0.500000 0.000000 0.866026
vn -1.000000 0.000000 -0.000000
vn -1.000000 0.000000 -0.000000
vn -0.500002 0.000000 -0.866024
vn -0.500002 0.000000 -0.866024
vn 0.464076 0.372196 -0.803806
vn 0.928155 0.372195 0.000000
vn 0.928155 -0.372195 -0.000003
vn 0.464077 -0.372196 -0.803806
vn 0.464080 0.372195 0.803804
vn 0.464082 -0.372198 0.803801
vn -0.464080 0.372195 0.803804
vn -0.464081 -0.372197 0.803803
vn -0.928155 0.372195 0.000000
vn -0.928155 -0.372195 0.000002
vn -0.464076 0.372196 -0.803806
vn -0.464077 -0.372196 -0.803805
vn 0.500000 0.000000 -0.866026
vn -0.500000 0.000000 -0.866026
vn -0.499515 0.044023 -0.865186
vn 0.499515 0.044023 -0.865186
vn -1.000000 0.000000 0.000000
vn -0.999031 0.044023 -0.000000
vn -0.500002 0.000000 0.866024
vn -0.499517 0.044023 0.865185
vn 0.500002 0.000000 0.866024
vn 0.499517 0.044023 0.865185
vn 1.000000 0.000000 0.000001
vn 0.999031 0.044023 0.000001
vn 0.000000 -1.000000 0.000000
vn 0.000000 -1.000000 0.000000
vn 0.000000 -1.000000 0.000000
vn 0.000000 -1.000000 0.000000
vn 0.000000 -1.000000 0.000000
vn 0.000000 -1.000000 0.000000
vn 0.000000 -1.000000 0.000000
vn 0.000000 1.000000 0.000000
vn 0.000000 1.000000 0.000000
vn 0.000000 1.000000 0.000000
vn 0.000000 1.000000 0.000000
vn 0.000000 1.000000 0.000000
vn 0.000000 1.000000 0.000000
vn 0.000000 1.000000 0.000000
vn 0.999271 -0.038177 0.000001
vn 0.499636 -0.038177 -0.865394
vn 0.500001 0.000000 -0.866025
vn 1.000000 0.000000 0.000000
vn 0.499636 -0.038178 0.865394
vn 0.500001 0.000000 0.866025
vn -0.499636 -0.038177 0.865394
vn -0.500001 0.000000 0.866025
vn -0.999271 -0.038178 0.000000
vn -1.000000 0.000000 0.000000
vn -0.499636 -0.038178 -0.865394
vn -0.500001 0.000000 -0.866025
vn 1.000000 0.000000 0.000001
vn 0.500002 0.000000 -0.866024
vn 0.500002 0.000000 -0.866024
vn 1.000000 0.000000 0.000001
vn 0.500000 0.000000 0.866026
vn 0.500000 0.000000 0.866026
vn -0.500000 0.000000 0.866026
vn -0.500000 0.000000 0.866026
vn -1.000000 0.000000 0.000000
vn -1.000000 0.000000 0.000000
vn -0.500002 0.000000 -0.866024
vn -0.500002 0.000000 -0.866024
vn 0.464076 0.372196 -0.803806
vn 0.928154 0.372196 0.000001
vn 0.928154 -0.372195 0.000002
vn 0.464076 -0.372195 -0.803806
vn 0.464080 0.372196 0.803804
vn 0.464080 -0.372196 0.803803
vn -0.464079 0.372196 0.803804
vn -0.464079 -0.372196 0.803804
vn -0.928154 0.372196 -0.000000
vn -0.928154 -0.372196 0.000000
vn -0.464076 0.372196 -0.803806
vn -0.464076 -0.372196 -0.803806
vn 0.500000 0.000000 -0.866026
vn -0.500000 0.000000 -0.866026
vn -0.499515 0.044023 -0.865186
vn 0.499515 0.044023 -0.865186
vn -1.000000 0.000000 0.000000
vn -0.999031 0.044023 0.000000
vn -0.500002 0.000000 0.866024
vn -0.499517 0.044023 0.865185
vn 0.500002 0.000000 0.866024
vn 0.499517 0.044023 0.865185
vn 1.000000 0.000000 0.000001
vn 0.999031 0.044023 0.000001
vn 0.000000 -1.000000 0.000000
vn 0.000000 -1.000000 0.000000
vn 0.000000 -1.000000 0.000000
vn 0.000000 -1.000000 0.000000
vn 0.000000 -1.000000 0.000000
vn 0.000000 -1.000000 0.000000
vn 0.000000 -1.000000 0.000000
vn 0.000000 1.000000 0.000000
vn 0.000000 1.000000 0.000000
vn 0.000000 1.000000 0.000000
vn 0.000000 1.000000 0.000000
vn 0.000000 1.000000 0.000000
vn 0.000000 1.000000 0.000000
vn 0.000000 1.000000 0.000000
vn 0.999271 -0.038177 0.000001
vn 0.499636 -0.038177 -0.865394
vn 0.500001 0.000000 -0.866025
vn 1.000000 0.000000 0.000000
vn 0.499636 -0.038178 0.865394
vn 0.500001 0.000000 0.866025
vn -0.499636 -0.038177 0.865394
vn -0.500001 0.000000 0.866025
vn -0.999271 -0.038178 0.000000
vn -1.000000 0.000000 0.000000
vn -0.499636 -0.038178 -0.865394
vn -0.500001 0.000000 -0.866025
vn 1.000000 0.000000 0.000001
vn 0.500002 0.000000 -0.866024
vn 0.500002 0.000000 -0.866024
vn 1.000000 0.000000 0.000001
vn 0.500000 0.000000 0.866026
vn 0.500000 0.000000 0.866026
vn -0.500000 0.000000 0.866026
vn -0.500000 0.000000 0.866026
vn -1.000000 0.000000 0.000000
vn -1.000000 0.000000 0.000000
vn -0.500002 0.000000 -0.866024
vn -0.500002 0.000000 -0.866024
vn 0.464077 0.372195 -0.803806
vn 0.928155 0.372195 0.000001
vn 0.928155 -0.372195 0.000002
vn 0.464076 -0.372195 -0.803806
vn 0.464080 0.372195 0.803804
vn 0.464080 -0.372196 0.803803
vn -0.464079 0.372196 0.803804
vn -0.464079 -0.372196 0.803804
vn -0.928154 0.372197 0.000000
vn -0.928154 -0.372197 0.000000
vn -0.464076 0.372196 -0.803805
vn -0.464076 -0.372196 -0.803806
s off
g Item_Contenedor_2 Obj_base
usemtl initialShadingGroup
f 6/1/1 5/14/2 7/13/3 8/11/4
f 2/15/5 4/16/6 3/18/7 1/20/8
f 2/5/9 1/8/10 5/2/11 6/9/12
f 1/8/13 3/19/14 7/12/15 5/2/16
f 3/7/17 4/17/18 8/10/19 7/3/20
f 4/6/21 2/5/22 6/9/23 8/4/24
f 41/21/25 42/22/26 43/23/27 44/24/28
f 45/25/29 46/26/30 47/27/31 48/28/32
f 49/29/33 50/30/34 51/31/35 52/32/36
f 53/33/37 54/34/38 55/35/39 56/36/40
f 58/37/41 57/38/42 59/39/43 60/40/44
f 61/41/45 62/42/46 63/43/47 64/44/48
s 1
f 9/45/49 10/46/50 18/47/51 17/48/52
f 10/46/50 12/49/53 19/50/54 18/47/51
f 12/49/53 11/51/55 20/52/56 19/50/54
f 11/51/55 9/45/49 17/48/52 20/52/56
s 2
f 11/53/57 12/54/58 22/55/59 21/56/60
f 12/54/58 14/57/61 23/58/62 22/55/59
f 14/57/61 13/59/63 24/60/64 23/58/62
f 13/59/63 11/53/57 21/56/60 24/60/64
s 3
f 13/61/65 14/62/66 26/63/67 25/64/68
f 14/62/66 16/65/69 27/66/70 26/63/67
f 16/65/69 15/67/71 28/68/72 27/66/70
f 15/67/71 13/61/65 25/64/68 28/68/72
s 4
f 15/69/73 16/70/74 30/71/75 29/72/76
f 16/70/74 10/73/77 31/74/78 30/71/75
f 10/73/77 9/75/79 32/76/80 31/74/78
f 9/75/79 15/69/73 29/72/76 32/76/80
s 5
f 10/77/81 16/78/82 33/79/83 34/80/84
f 16/78/82 14/81/85 35/82/86 33/79/83
f 14/81/85 12/83/87 36/84/88 35/82/86
f 12/83/87 10/77/81 34/80/84 36/84/88
s 6
f 15/85/89 9/86/90 38/87/91 37/88/92
f 9/86/90 11/89/93 39/90/94 38/87/91
f 11/89/93 13/91/95 40/92/96 39/90/94
f 13/91/95 15/85/89 37/88/92 40/92/96
s 7
f 17/93/97 18/94/98 42/95/99 41/96/100
f 18/94/98 19/97/101 43/98/102 42/95/99
f 19/97/101 20/99/103 44/100/104 43/98/102
f 20/99/103 17/93/97 41/96/100 44/100/104
s 8
f 21/101/105 22/102/106 46/103/107 45/104/108
f 22/102/106 23/105/109 47/106/110 46/103/107
f 23/105/109 24/107/111 48/108/112 47/106/110
f 24/107/111 21/101/105 45/104/108 48/108/112
s 9
f 25/109/113 26/110/114 50/111/115 49/112/116
f 26/110/114 27/113/117 51/114/118 50/111/115
f 27/113/117 28/115/119 52/116/120 51/114/118
f 28/115/119 25/109/113 49/112/116 52/116/120
s 10
f 29/117/121 30/118/122 54/119/123 53/120/124
f 30/118/122 31/121/125 55/122/126 54/119/123
f 31/121/125 32/123/127 56/124/128 55/122/126
f 32/123/127 29/117/121 53/120/124 56/124/128
s 11
f 34/125/129 33/126/130 57/127/131 58/128/132
f 33/126/130 35/129/133 59/130/134 57/127/131
f 35/129/133 36/131/135 60/132/136 59/130/134
f 36/131/135 34/125/129 58/128/132 60/132/136
s 12
f 37/133/137 38/134/138 62/135/139 61/136/140
f 38/134/138 39/137/141 63/138/142 62/135/139
f 39/137/141 40/139/143 64/140/144 63/138/142
f 40/139/143 37/133/137 61/136/140 64/140/144
s 13
f 65/141/145 66/142/146 90/143/147 85/144/148
f 66/142/146 67/145/149 89/146/150 90/143/147
f 67/145/149 68/147/151 88/148/152 89/146/150
f 68/149/151 69/150/153 87/151/154 88/152/152
f 69/150/153 70/153/155 86/154/156 87/151/154
f 70/153/155 65/141/145 85/144/148 86/154/156
s 14
f 66/155/157 65/156/158 77/157/159
f 67/158/160 66/155/157 77/157/159
f 68/159/161 67/158/160 77/157/159
f 69/160/162 68/159/161 77/157/159
f 70/161/163 69/160/162 77/157/159
f 65/156/158 70/161/163 77/157/159
s 15
f 71/162/164 72/163/165 78/164/166
f 72/163/165 73/165/167 78/164/166
f 73/165/167 74/166/168 78/164/166
f 74/166/168 75/167/169 78/164/166
f 75/167/169 76/168/170 78/164/166
f 76/168/170 71/162/164 78/164/166
s 16
f 80/169/171 79/170/172 71/171/173 76/172/174
f 81/173/175 80/169/171 76/172/174 75/174/176
f 82/175/177 81/173/175 75/174/176 74/176/178
f 83/177/179 82/178/177 74/179/178 73/180/180
f 84/181/181 83/177/179 73/180/180 72/182/182
f 79/170/172 84/181/181 72/182/182 71/171/173
s 17
f 92/183/183 91/184/184 93/185/185 94/186/186
f 95/187/187 92/183/183 94/186/186 96/188/188
f 97/189/189 95/187/187 96/188/188 98/190/190
f 99/191/191 97/192/189 98/193/190 100/194/192
f 101/195/193 99/191/191 100/194/192 102/196/194
f 91/184/184 101/195/193 102/196/194 93/185/185
s 13
f 86/154/156 85/144/148 91/197/195 92/198/196
s 16
f 79/170/172 80/169/171 94/199/197 93/200/198
s 13
f 87/151/154 86/154/156 92/198/196 95/201/199
s 16
f 80/169/171 81/173/175 96/202/200 94/199/197
s 13
f 88/152/152 87/151/154 95/201/199 97/203/201
s 16
f 81/173/175 82/175/177 98/204/202 96/202/200
s 13
f 89/146/150 88/148/152 97/205/201 99/206/203
s 16
f 82/178/177 83/177/179 100/207/204 98/208/202
s 13
f 90/143/147 89/146/150 99/206/203 101/209/205
s 16
f 83/177/179 84/181/181 102/210/206 100/207/204
s 13
f 85/144/148 90/143/147 101/209/205 91/197/195
s 16
f 84/181/181 79/170/172 93/200/198 102/210/206
s 18
f 103/211/207 104/212/208 128/213/209 123/214/210
f 104/212/208 105/215/211 127/216/212 128/213/209
f 105/215/211 106/217/213 126/218/214 127/216/212
f 106/219/213 107/220/215 125/221/216 126/222/214
f 107/220/215 108/223/217 124/224/218 125/221/216
f 108/223/217 103/211/207 123/214/210 124/224/218
s 19
f 104/225/219 103/226/220 115/227/221
f 105/228/222 104/225/219 115/227/221
f 106/229/223 105/228/222 115/227/221
f 107/230/224 106/229/223 115/227/221
f 108/231/225 107/230/224 115/227/221
f 103/226/220 108/231/225 115/227/221
s 20
f 109/232/226 110/233/227 116/234/228
f 110/233/227 111/235/229 116/234/228
f 111/235/229 112/236/230 116/234/228
f 112/236/230 113/237/231 116/234/228
f 113/237/231 114/238/232 116/234/228
f 114/238/232 109/232/226 116/234/228
s 21
f 118/239/233 117/240/234 109/241/235 114/242/236
f 119/243/237 118/239/233 114/242/236 113/244/238
f 120/245/239 119/243/237 113/244/238 112/246/240
f 121/247/241 120/248/239 112/249/240 111/250/242
f 122/251/243 121/247/241 111/250/242 110/252/244
f 117/240/234 122/251/243 110/252/244 109/241/235
s 22
f 130/253/245 129/254/246 131/255/247 132/256/248
f 133/257/249 130/253/245 132/256/248 134/258/250
f 135/259/251 133/257/249 134/258/250 136/260/252
f 137/261/253 135/262/251 136/263/252 138/264/254
f 139/265/255 137/261/253 138/264/254 140/266/256
f 129/254/246 139/265/255 140/266/256 131/255/247
s 18
f 124/224/218 123/214/210 129/267/257 130/268/258
s 21
f 117/240/234 118/239/233 132/269/259 131/270/260
s 18
f 125/221/216 124/224/218 130/268/258 133/271/261
s 21
f 118/239/233 119/243/237 134/272/262 132/269/259
s 18
f 126/222/214 125/221/216 133/271/261 135/273/263
s 21
f 119/243/237 120/245/239 136/274/264 134/272/262
s 18
f 127/216/212 126/218/214 135/275/263 137/276/265
s 21
f 120/248/239 121/247/241 138/277/266 136/278/264
s 18
f 128/213/209 127/216/212 137/276/265 139/279/267
s 21
f 121/247/241 122/251/243 140/280/268 138/277/266
s 18
f 123/214/210 128/213/209 139/279/267 129/267/257
s 21
f 122/251/243 117/240/234 131/270/260 140/280/268
s 23
f 141/281/269 142/282/270 166/283/271 161/284/272
f 142/282/270 143/285/273 165/286/274 166/283/271
f 143/285/273 144/287/275 164/288/276 165/286/274
f 144/289/275 145/290/277 163/291/278 164/292/276
f 145/290/277 146/293/279 162/294/280 163/291/278
f 146/293/279 141/281/269 161/284/272 162/294/280
s 24
f 142/295/281 141/296/282 153/297/283
f 143/298/284 142/295/281 153/297/283
f 144/299/285 143/298/284 153/297/283
f 145/300/286 144/299/285 153/297/283
f 146/301/287 145/300/286 153/297/283
f 141/296/282 146/301/287 153/297/283
s 25
f 147/302/288 148/303/289 154/304/290
f 148/303/289 149/305/291 154/304/290
f 149/305/291 150/306/292 154/304/290
f 150/306/292 151/307/293 154/304/290
f 151/307/293 152/308/294 154/304/290
f 152/308/294 147/302/288 154/304/290
s 26
f 156/309/295 155/310/296 147/311/297 152/312/298
f 157/313/299 156/309/295 152/312/298 151/314/300
f 158/315/301 157/313/299 151/314/300 150/316/302
f 159/317/303 158/318/301 150/319/302 149/320/304
f 160/321/305 159/317/303 149/320/304 148/322/306
f 155/310/296 160/321/305 148/322/306 147/311/297
s 27
f 168/323/307 167/324/308 169/325/309 170/326/310
f 171/327/311 168/323/307 170/326/310 172/328/312
f 173/329/313 171/327/311 172/328/312 174/330/314
f 175/331/315 173/332/313 174/333/314 176/334/316
f 177/335/317 175/331/315 176/334/316 178/336/318
f 167/324/308 177/335/317 178/336/318 169/325/309
s 23
f 162/294/280 161/284/272 167/337/319 168/338/320
s 26
f 155/310/296 156/309/295 170/339/321 169/340/322
s 23
f 163/291/278 162/294/280 168/338/320 171/341/323
s 26
f 156/309/295 157/313/299 172/342/324 170/339/321
s 23
f 164/292/276 163/291/278 171/341/323 173/343/325
s 26
f 157/313/299 158/315/301 174/344/326 172/342/324
s 23
f 165/286/274 164/288/276 173/345/325 175/346/327
s 26
f 158/318/301 159/317/303 176/347/328 174/348/326
s 23
f 166/283/271 165/286/274 175/346/327 177/349/329
s 26
f 159/317/303 160/321/305 178/350/330 176/347/328
s 23
f 161/284/272 166/283/271 177/349/329 167/337/319
s 26
f 160/321/305 155/310/296 169/340/322 178/350/330
