# This file uses centimeters as units for non-parametric coordinates.

mtllib Item_Barril_1.mtl
g default
v -1.613794 -0.000000 -4.449434
v -1.689424 -0.000000 -4.597865
v -1.807219 -0.000000 -4.715661
v -1.955651 -0.000000 -4.791290
v -2.120188 -0.000000 -4.817350
v -2.284725 -0.000000 -4.791290
v -2.433157 -0.000000 -4.715660
v -2.550952 -0.000000 -4.597865
v -2.626582 -0.000000 -4.449433
v -2.652642 0.000000 -4.284896
v -2.626582 0.000000 -4.120359
v -2.550952 -0.000000 -3.971928
v -2.433157 -0.000000 -3.854132
v -2.284725 -0.000000 -3.778503
v -2.120188 -0.000000 -3.752443
v -1.955651 -0.000000 -3.778503
v -1.807219 -0.000000 -3.854132
v -1.689424 -0.000000 -3.971928
v -1.613795 -0.000000 -4.120359
v -1.587734 -0.000000 -4.284896
v -1.613794 1.400000 -4.449434
v -1.689424 1.400000 -4.597865
v -1.807219 1.400000 -4.715661
v -1.955651 1.400000 -4.791290
v -2.120188 1.400000 -4.817350
v -2.284725 1.400000 -4.791290
v -2.433157 1.400000 -4.715660
v -2.550952 1.400000 -4.597865
v -2.626582 1.400000 -4.449433
v -2.652642 1.400000 -4.284896
v -2.626582 1.400000 -4.120359
v -2.550952 1.400000 -3.971928
v -2.433157 1.400000 -3.854132
v -2.284725 1.400000 -3.778503
v -2.120188 1.400000 -3.752443
v -1.955651 1.400000 -3.778503
v -1.807219 1.400000 -3.854132
v -1.689424 1.400000 -3.971928
v -1.613795 1.400000 -4.120359
v -1.587734 1.400000 -4.284896
v -1.685558 -0.000000 -4.426116
v -1.750470 0.000000 -4.553512
v -1.851572 -0.000000 -4.654614
v -1.978968 -0.000000 -4.719526
v -2.120188 -0.000000 -4.741893
v -2.261408 -0.000000 -4.719526
v -2.388804 -0.000000 -4.654614
v -2.489906 -0.000000 -4.553512
v -2.554818 -0.000000 -4.426116
v -2.577185 -0.000000 -4.284896
v -2.554818 -0.000000 -4.143676
v -2.489906 -0.000000 -4.016280
v -2.388804 -0.000000 -3.915178
v -2.261408 -0.000000 -3.850266
v -2.120188 -0.000000 -3.827900
v -1.978968 -0.000000 -3.850266
v -1.851572 -0.000000 -3.915178
v -1.750470 -0.000000 -4.016280
v -1.685558 -0.000000 -4.143676
v -1.663192 -0.000000 -4.284896
v -1.685558 1.400000 -4.426116
v -1.750470 1.400000 -4.553512
v -1.851572 1.400000 -4.654614
v -1.978968 1.400000 -4.719526
v -2.120188 1.400000 -4.741893
v -2.261408 1.400000 -4.719526
v -2.388804 1.400000 -4.654614
v -2.489906 1.400000 -4.553512
v -2.554818 1.400000 -4.426116
v -2.577185 1.400000 -4.284896
v -2.554818 1.400000 -4.143676
v -2.489906 1.400000 -4.016280
v -2.388804 1.400000 -3.915178
v -2.261408 1.400000 -3.850266
v -2.120188 1.400000 -3.827900
v -1.978968 1.400000 -3.850266
v -1.851572 1.400000 -3.915178
v -1.750470 1.400000 -4.016280
v -1.685558 1.400000 -4.143676
v -1.663192 1.400000 -4.284896
v -1.685558 0.077528 -4.426116
v -1.750470 0.077528 -4.553512
v -2.120188 0.077528 -4.284896
v -1.851572 0.077528 -4.654614
v -1.978968 0.077528 -4.719526
v -2.120188 0.077528 -4.741893
v -2.261408 0.077528 -4.719526
v -2.388804 0.077528 -4.654614
v -2.489906 0.077528 -4.553512
v -2.554818 0.077528 -4.426116
v -2.577185 0.077528 -4.284896
v -2.554818 0.077528 -4.143676
v -2.489906 0.077528 -4.016280
v -2.388804 0.077528 -3.915178
v -2.261408 0.077528 -3.850266
v -2.120188 0.077528 -3.827900
v -1.978968 0.077528 -3.850266
v -1.851572 0.077528 -3.915178
v -1.750470 0.077528 -4.016280
v -1.685558 0.077528 -4.143676
v -1.663192 0.077528 -4.284896
v -1.685558 1.322472 -4.426116
v -1.750470 1.322472 -4.553512
v -2.120188 1.322472 -4.284896
v -1.851572 1.322472 -4.654614
v -1.978968 1.322472 -4.719526
v -2.120188 1.322472 -4.741893
v -2.261408 1.322472 -4.719526
v -2.388804 1.322472 -4.654614
v -2.489906 1.322472 -4.553512
v -2.554818 1.322472 -4.426116
v -2.577185 1.322472 -4.284896
v -2.554818 1.322472 -4.143676
v -2.489906 1.322472 -4.016280
v -2.388804 1.322472 -3.915178
v -2.261408 1.322472 -3.850266
v -2.120188 1.322472 -3.827900
v -1.978968 1.322472 -3.850266
v -1.851572 1.322472 -3.915178
v -1.750470 1.322472 -4.016280
v -1.685558 1.322472 -4.143676
v -1.663192 1.322472 -4.284896
v -1.613794 0.140000 -4.449434
v -1.587734 0.140000 -4.284896
v -1.613795 0.140000 -4.120359
v -1.689424 0.140000 -3.971928
v -1.807219 0.140000 -3.854132
v -1.955651 0.140000 -3.778503
v -2.120188 0.140000 -3.752443
v -2.284725 0.140000 -3.778503
v -2.433157 0.140000 -3.854132
v -2.550952 0.140000 -3.971928
v -2.626582 0.140000 -4.120359
v -2.652642 0.140000 -4.284896
v -2.626582 0.140000 -4.449433
v -2.550952 0.140000 -4.597865
v -2.433157 0.140000 -4.715660
v -2.284725 0.140000 -4.791290
v -2.120188 0.140000 -4.817350
v -1.955651 0.140000 -4.791290
v -1.807219 0.140000 -4.715661
v -1.689424 0.140000 -4.597865
v -1.613794 1.274000 -4.449434
v -1.587734 1.274000 -4.284896
v -1.613795 1.274000 -4.120359
v -1.689424 1.274000 -3.971928
v -1.807219 1.274000 -3.854132
v -1.955651 1.274000 -3.778503
v -2.120188 1.274000 -3.752443
v -2.284725 1.274000 -3.778503
v -2.433157 1.274000 -3.854132
v -2.550952 1.274000 -3.971928
v -2.626582 1.274000 -4.120359
v -2.652642 1.274000 -4.284896
v -2.626582 1.274000 -4.449433
v -2.550952 1.274000 -4.597865
v -2.433157 1.274000 -4.715660
v -2.284725 1.274000 -4.791290
v -2.120188 1.274000 -4.817350
v -1.955651 1.274000 -4.791290
v -1.807219 1.274000 -4.715661
v -1.689424 1.274000 -4.597865
v -1.650216 0.180781 -4.437599
v -1.626031 0.180781 -4.284896
v -1.650216 1.233219 -4.437599
v -1.626031 1.233219 -4.284896
v -1.650217 0.180781 -4.132193
v -1.650217 1.233219 -4.132193
v -1.720406 0.180781 -3.994438
v -1.720406 1.233219 -3.994438
v -1.829729 0.180781 -3.885115
v -1.829729 1.233219 -3.885115
v -1.967485 0.180781 -3.814925
v -1.967485 1.233219 -3.814925
v -2.120188 0.180781 -3.790739
v -2.120188 1.233219 -3.790739
v -2.272891 0.180781 -3.814925
v -2.272891 1.233219 -3.814925
v -2.410647 0.180781 -3.885115
v -2.410647 1.233219 -3.885115
v -2.519970 0.180781 -3.994438
v -2.519970 1.233219 -3.994438
v -2.590160 0.180781 -4.132193
v -2.590160 1.233219 -4.132193
v -2.614345 0.180781 -4.284896
v -2.614345 1.233219 -4.284896
v -2.590160 0.180781 -4.437599
v -2.590160 1.233219 -4.437599
v -2.519970 0.180781 -4.575355
v -2.519970 1.233219 -4.575355
v -2.410647 0.180781 -4.684678
v -2.410647 1.233219 -4.684678
v -2.272891 0.180781 -4.754868
v -2.272891 1.233219 -4.754868
v -2.120188 0.180781 -4.779054
v -2.120188 1.233219 -4.779054
v -1.967485 0.180781 -4.754868
v -1.967485 1.233219 -4.754868
v -1.829729 0.180781 -4.684678
v -1.829729 1.233219 -4.684678
v -1.720406 0.180781 -4.575355
v -1.720406 1.233219 -4.575355
v -1.650216 0.759617 -4.437599
v -1.620304 0.707000 -4.447318
v -1.650216 0.654384 -4.437599
v -1.626031 0.654384 -4.284896
v -1.594580 0.707000 -4.284896
v -1.626031 0.759617 -4.284896
v -1.650217 0.654384 -4.132193
v -1.620305 0.707000 -4.122474
v -1.650217 0.759617 -4.132193
v -1.720406 0.654384 -3.994438
v -1.694961 0.707000 -3.975951
v -1.720406 0.759617 -3.994438
v -1.829729 0.654384 -3.885115
v -1.811243 0.707000 -3.859670
v -1.829729 0.759617 -3.885115
v -1.967485 0.654384 -3.814925
v -1.957766 0.707000 -3.785013
v -1.967485 0.759617 -3.814925
v -2.120188 0.654384 -3.790739
v -2.120188 0.707000 -3.759288
v -2.120188 0.759617 -3.790739
v -2.272891 0.654384 -3.814925
v -2.282609 0.707000 -3.785013
v -2.272891 0.759617 -3.814925
v -2.410647 0.654384 -3.885115
v -2.429133 0.707000 -3.859670
v -2.410647 0.759617 -3.885115
v -2.519970 0.654384 -3.994438
v -2.545414 0.707000 -3.975951
v -2.519970 0.759617 -3.994438
v -2.590160 0.654384 -4.132193
v -2.620072 0.707000 -4.122474
v -2.590160 0.759617 -4.132193
v -2.614345 0.654384 -4.284896
v -2.645796 0.707000 -4.284896
v -2.614345 0.759617 -4.284896
v -2.590160 0.654384 -4.437599
v -2.620071 0.707000 -4.447318
v -2.590160 0.759617 -4.437599
v -2.519970 0.654384 -4.575355
v -2.545414 0.707000 -4.593841
v -2.519970 0.759617 -4.575355
v -2.410647 0.654384 -4.684678
v -2.429133 0.707000 -4.710122
v -2.410647 0.759617 -4.684678
v -2.272891 0.654384 -4.754868
v -2.282609 0.707000 -4.784779
v -2.272891 0.759617 -4.754868
v -2.120188 0.654384 -4.779054
v -2.120188 0.707000 -4.810504
v -2.120188 0.759617 -4.779054
v -1.967485 0.654384 -4.754868
v -1.957766 0.707000 -4.784780
v -1.967485 0.759617 -4.754868
v -1.829729 0.654384 -4.684678
v -1.811243 0.707000 -4.710122
v -1.829729 0.759617 -4.684678
v -1.720406 0.654384 -4.575355
v -1.694961 0.707000 -4.593841
v -1.720406 0.759617 -4.575355
vt 0.232890 0.537833
vt 0.210475 0.506982
vt 0.501547 0.439061
vt 0.479001 0.407928
vt 0.179625 0.484567
vt 0.513367 0.475641
vt 0.143357 0.472783
vt 0.513304 0.514082
vt 0.105223 0.472783
vt 0.501362 0.550620
vt 0.068956 0.484567
vt 0.478723 0.581685
vt 0.038105 0.506982
vt 0.447589 0.604234
vt 0.015690 0.537833
vt 0.411008 0.616055
vt 0.003906 0.574100
vt 0.372565 0.615990
vt 0.003906 0.612234
vt 0.336024 0.604051
vt 0.015690 0.648502
vt 0.304963 0.581401
vt 0.038105 0.679353
vt 0.282426 0.550261
vt 0.068956 0.701767
vt 0.270617 0.513684
vt 0.105223 0.713551
vt 0.270670 0.475248
vt 0.143357 0.713551
vt 0.282601 0.438707
vt 0.179625 0.701767
vt 0.305243 0.407641
vt 0.210475 0.679353
vt 0.336380 0.385095
vt 0.232890 0.648502
vt 0.372959 0.373272
vt 0.244674 0.612234
vt 0.411403 0.373336
vt 0.244674 0.574100
vt 0.447944 0.385278
vt 0.930554 0.014020
vt 0.915769 0.326084
vt 0.883061 0.107230
vt 0.899426 0.003906
vt 0.866697 0.003906
vt 0.835569 0.014020
vt 0.809090 0.033258
vt 0.789852 0.059737
vt 0.779738 0.090865
vt 0.779738 0.123595
vt 0.789852 0.154722
vt 0.809090 0.181202
vt 0.835569 0.200440
vt 0.866696 0.210554
vt 0.899426 0.210554
vt 0.930554 0.200440
vt 0.957033 0.181202
vt 0.976271 0.154723
vt 0.986385 0.123595
vt 0.986385 0.090865
vt 0.976271 0.059737
vt 0.200440 0.938031
vt 0.915769 0.788013
vt 0.107230 0.890539
vt 0.934791 0.814315
vt 0.944747 0.845203
vt 0.944666 0.877659
vt 0.934555 0.908508
vt 0.915440 0.934723
vt 0.889152 0.953744
vt 0.858257 0.963707
vt 0.825789 0.963630
vt 0.794946 0.953511
vt 0.768755 0.934355
vt 0.749781 0.908048
vt 0.739871 0.877162
vt 0.739900 0.844730
vt 0.749960 0.813898
vt 0.769074 0.787675
vt 0.795372 0.768638
vt 0.826271 0.758676
vt 0.858732 0.758755
vt 0.928138 0.313675
vt 0.897536 0.291313
vt 0.861451 0.279500
vt 0.823464 0.279440
vt 0.787358 0.291122
vt 0.756623 0.313396
vt 0.734288 0.344104
vt 0.722571 0.380192
vt 0.722571 0.418017
vt 0.734144 0.454061
vt 0.756355 0.484827
vt 0.787023 0.507221
vt 0.823086 0.519018
vt 0.861048 0.519091
vt 0.897188 0.507400
vt 0.927916 0.485104
vt 0.950195 0.454476
vt 0.961992 0.418448
vt 0.962059 0.380479
vt 0.950370 0.344354
vt 0.571174 0.737457
vt 0.609499 0.765324
vt 0.928138 0.775604
vt 0.897536 0.753242
vt 0.654571 0.779984
vt 0.950370 0.806283
vt 0.701971 0.779993
vt 0.962059 0.842407
vt 0.747047 0.765352
vt 0.961992 0.880377
vt 0.785395 0.737500
vt 0.950195 0.916405
vt 0.813254 0.699156
vt 0.927916 0.947033
vt 0.827895 0.654084
vt 0.897188 0.969329
vt 0.827895 0.606711
vt 0.861048 0.981020
vt 0.813275 0.561646
vt 0.823086 0.980947
vt 0.785433 0.523293
vt 0.787023 0.969150
vt 0.747096 0.495423
vt 0.756355 0.946756
vt 0.702025 0.480768
vt 0.734144 0.915990
vt 0.654629 0.480756
vt 0.722571 0.879946
vt 0.609548 0.495398
vt 0.722571 0.842121
vt 0.571205 0.523256
vt 0.734288 0.806034
vt 0.543354 0.561587
vt 0.756622 0.775326
vt 0.528699 0.606650
vt 0.787358 0.753052
vt 0.528689 0.654044
vt 0.823464 0.741370
vt 0.543329 0.699120
vt 0.861450 0.741430
vt 0.568380 0.686192
vt 0.591010 0.717425
vt 0.556510 0.649492
vt 0.556565 0.610920
vt 0.568538 0.574256
vt 0.591246 0.543081
vt 0.622480 0.520448
vt 0.659182 0.508578
vt 0.697755 0.508634
vt 0.734423 0.520604
vt 0.765594 0.543323
vt 0.788216 0.574563
vt 0.800073 0.611261
vt 0.800029 0.649826
vt 0.788067 0.686494
vt 0.765356 0.717671
vt 0.734119 0.740301
vt 0.697419 0.752173
vt 0.658844 0.752118
vt 0.622177 0.740145
vt 0.570152 0.298134
vt 0.539354 0.287458
vt 0.107401 0.368356
vt 0.165130 0.387130
vt 0.513379 0.267781
vt 0.058316 0.332665
vt 0.494697 0.241051
vt 0.022664 0.283580
vt 0.485206 0.209857
vt 0.003906 0.225862
vt 0.485830 0.177261
vt 0.003906 0.165168
vt 0.496506 0.146464
vt 0.022663 0.107451
vt 0.516143 0.120435
vt 0.058319 0.058364
vt 0.542870 0.101762
vt 0.107417 0.022673
vt 0.574058 0.092277
vt 0.165156 0.003906
vt 0.606645 0.092909
vt 0.225868 0.003916
vt 0.637451 0.103570
vt 0.283591 0.022687
vt 0.663440 0.123240
vt 0.332688 0.058386
vt 0.682070 0.149985
vt 0.368334 0.107504
vt 0.691509 0.181176
vt 0.387052 0.165212
vt 0.690934 0.213779
vt 0.387053 0.225852
vt 0.680301 0.244599
vt 0.368326 0.283566
vt 0.660659 0.270610
vt 0.332669 0.332682
vt 0.633934 0.289261
vt 0.283565 0.368371
vt 0.602744 0.298757
vt 0.225840 0.387132
vt 0.558041 0.387129
vt 0.491050 0.974049
vt 0.463755 0.954196
vt 0.500310 0.368356
vt 0.177239 0.298135
vt 0.146442 0.287457
vt 0.451224 0.332666
vt 0.415571 0.283582
vt 0.396813 0.225865
vt 0.396813 0.165172
vt 0.415569 0.107459
vt 0.451217 0.058372
vt 0.500309 0.022678
vt 0.558043 0.003906
vt 0.618755 0.003909
vt 0.676479 0.022674
vt 0.725580 0.058367
vt 0.761232 0.107483
vt 0.779956 0.165191
vt 0.779962 0.225834
vt 0.761238 0.283551
vt 0.725582 0.332671
vt 0.676479 0.368363
vt 0.618753 0.387129
vt 0.120467 0.267779
vt 0.101788 0.241046
vt 0.092299 0.209851
vt 0.092923 0.177255
vt 0.103600 0.146458
vt 0.123239 0.120431
vt 0.149967 0.101760
vt 0.181157 0.092277
vt 0.213744 0.092912
vt 0.244550 0.103576
vt 0.270537 0.123249
vt 0.289164 0.149995
vt 0.298599 0.181187
vt 0.298025 0.213789
vt 0.287391 0.244607
vt 0.267747 0.270617
vt 0.241021 0.289267
vt 0.209831 0.298760
vt 0.443940 0.926890
vt 0.433514 0.894795
vt 0.433521 0.861044
vt 0.443962 0.828948
vt 0.463805 0.801659
vt 0.491102 0.781823
vt 0.523203 0.771395
vt 0.556959 0.771403
vt 0.589054 0.781845
vt 0.616354 0.801693
vt 0.636179 0.829009
vt 0.646584 0.861111
vt 0.646561 0.894842
vt 0.636143 0.926930
vt 0.616311 0.954235
vt 0.589003 0.974073
vt 0.556904 0.984495
vt 0.523150 0.984490
vt 0.558785 0.996084
vt 0.521357 0.996094
vt 0.525076 0.972718
vt 0.555096 0.972707
vt 0.594374 0.984513
vt 0.583641 0.963418
vt 0.624650 0.962500
vt 0.607913 0.945762
vt 0.646630 0.932211
vt 0.625537 0.921472
vt 0.658164 0.896635
vt 0.634794 0.892919
vt 0.658175 0.859243
vt 0.634794 0.862902
vt 0.646624 0.823648
vt 0.625518 0.834361
vt 0.624628 0.793362
vt 0.607873 0.810082
vt 0.594347 0.771366
vt 0.583584 0.792442
vt 0.558755 0.759801
vt 0.555030 0.783175
vt 0.521319 0.759806
vt 0.525014 0.783186
vt 0.485725 0.771385
vt 0.496472 0.792474
vt 0.455470 0.793390
vt 0.472196 0.810129
vt 0.433483 0.823653
vt 0.454558 0.834422
vt 0.421918 0.859250
vt 0.445293 0.862971
vt 0.421925 0.896679
vt 0.445304 0.892986
vt 0.433498 0.932256
vt 0.454593 0.921534
vt 0.455477 0.962522
vt 0.472240 0.945815
vt 0.485754 0.984527
vt 0.496526 0.963451
vt 0.627864 0.728943
vt 0.599876 0.708530
vt 0.490403 0.444765
vt 0.470163 0.416791
vt 0.660789 0.739707
vt 0.501005 0.477619
vt 0.695429 0.739768
vt 0.500936 0.512142
vt 0.728395 0.729120
vt 0.490200 0.544958
vt 0.756455 0.708806
vt 0.469853 0.572851
vt 0.776861 0.680816
vt 0.441884 0.593089
vt 0.787618 0.647891
vt 0.409030 0.603693
vt 0.787672 0.613248
vt 0.374504 0.603623
vt 0.777031 0.580281
vt 0.341691 0.592887
vt 0.756724 0.552220
vt 0.313805 0.572537
vt 0.728739 0.531808
vt 0.293573 0.544565
vt 0.695812 0.521043
vt 0.282975 0.511707
vt 0.661169 0.520982
vt 0.283039 0.477180
vt 0.628207 0.531630
vt 0.293767 0.444369
vt 0.600149 0.551943
vt 0.314111 0.416478
vt 0.579740 0.579935
vt 0.342082 0.396239
vt 0.568976 0.612864
vt 0.374939 0.385634
vt 0.568915 0.647504
vt 0.409462 0.385704
vt 0.579561 0.680467
vt 0.442273 0.396440
vt 0.210553 0.906904
vt 0.889571 0.768866
vt 0.210553 0.874174
vt 0.200440 0.843046
vt 0.181202 0.816567
vt 0.154723 0.797329
vt 0.123595 0.787215
vt 0.090865 0.787215
vt 0.059737 0.797329
vt 0.033258 0.816567
vt 0.014020 0.843046
vt 0.003906 0.874174
vt 0.003906 0.906904
vt 0.014021 0.938031
vt 0.033258 0.964511
vt 0.059738 0.983748
vt 0.090865 0.993863
vt 0.123595 0.993863
vt 0.154723 0.983748
vt 0.181202 0.964511
vt 0.934791 0.352386
vt 0.957033 0.033259
vt 0.944748 0.383274
vt 0.944666 0.415730
vt 0.934555 0.446579
vt 0.915440 0.472793
vt 0.889152 0.491815
vt 0.858257 0.501777
vt 0.825789 0.501701
vt 0.794947 0.491581
vt 0.768755 0.472426
vt 0.749781 0.446119
vt 0.739871 0.415233
vt 0.739901 0.382801
vt 0.749960 0.351968
vt 0.769075 0.325745
vt 0.795372 0.306709
vt 0.826272 0.296746
vt 0.858733 0.296825
vt 0.889571 0.306937
vt 0.415144 0.784487
vt 0.405030 0.815615
vt 0.415144 0.751757
vt 0.405030 0.720629
vt 0.385792 0.694150
vt 0.359313 0.674913
vt 0.328185 0.664799
vt 0.295456 0.664799
vt 0.264328 0.674913
vt 0.237849 0.694151
vt 0.218611 0.720630
vt 0.208497 0.751757
vt 0.208497 0.784487
vt 0.218611 0.815615
vt 0.237849 0.842094
vt 0.264328 0.861332
vt 0.295456 0.871446
vt 0.328185 0.871446
vt 0.359313 0.861332
vt 0.385792 0.842094
vt 0.227614 0.576802
vt 0.217500 0.545674
vt 0.227614 0.609532
vt 0.217500 0.640660
vt 0.198262 0.667139
vt 0.171783 0.686377
vt 0.140655 0.696491
vt 0.107925 0.696491
vt 0.076797 0.686377
vt 0.050319 0.667139
vt 0.031080 0.640660
vt 0.020967 0.609532
vt 0.020966 0.576802
vt 0.031080 0.545675
vt 0.050318 0.519196
vt 0.076797 0.499958
vt 0.107925 0.489843
vt 0.140655 0.489843
vt 0.171783 0.499958
vt 0.198262 0.519196
vt 0.432204 0.787189
vt 0.420421 0.823457
vt 0.432204 0.749055
vt 0.420421 0.712788
vt 0.398006 0.681937
vt 0.367155 0.659522
vt 0.330888 0.647738
vt 0.292753 0.647738
vt 0.256486 0.659522
vt 0.225635 0.681937
vt 0.203220 0.712788
vt 0.191437 0.749055
vt 0.191437 0.787189
vt 0.203221 0.823457
vt 0.225635 0.854308
vt 0.256486 0.876722
vt 0.292754 0.888506
vt 0.330888 0.888506
vt 0.367155 0.876722
vt 0.398006 0.854308
vt 0.461958 0.357407
vt 0.500939 0.385750
vt 0.416115 0.342497
vt 0.367906 0.342489
vt 0.322060 0.357381
vt 0.283057 0.385709
vt 0.254722 0.424709
vt 0.239832 0.470551
vt 0.239832 0.518734
vt 0.254704 0.564570
vt 0.283021 0.603577
vt 0.322014 0.631923
vt 0.367855 0.646828
vt 0.416061 0.646839
vt 0.461912 0.631947
vt 0.500911 0.603612
vt 0.529237 0.564625
vt 0.544143 0.518792
vt 0.544152 0.470588
vt 0.529261 0.424742
vn 0.951057 0.000000 -0.309016
vn 0.809017 0.000000 -0.587785
vn 0.794327 0.189696 -0.577113
vn 0.933788 0.189696 -0.303405
vn 0.587785 0.000000 -0.809017
vn 0.577113 0.189696 -0.794328
vn 0.309016 0.000000 -0.951057
vn 0.303405 0.189696 -0.933788
vn -0.000001 0.000000 -1.000000
vn -0.000001 0.189696 -0.981843
vn -0.309017 0.000000 -0.951057
vn -0.303406 0.189696 -0.933788
vn -0.587785 0.000000 -0.809017
vn -0.577112 0.189696 -0.794328
vn -0.809017 0.000000 -0.587785
vn -0.794328 0.189696 -0.577113
vn -0.951057 0.000000 -0.309016
vn -0.933788 0.189696 -0.303406
vn -1.000000 0.000000 -0.000002
vn -0.981843 0.189696 -0.000002
vn -0.951056 0.000000 0.309017
vn -0.933788 0.189696 0.303406
vn -0.809016 0.000000 0.587786
vn -0.794327 0.189696 0.577114
vn -0.587785 0.000000 0.809017
vn -0.577112 0.189696 0.794328
vn -0.309017 0.000000 0.951057
vn -0.303406 0.189696 0.933788
vn 0.000000 0.000000 1.000000
vn 0.000000 0.189696 0.981843
vn 0.309017 0.000000 0.951057
vn 0.303406 0.189696 0.933788
vn 0.587785 0.000000 0.809017
vn 0.577112 0.189696 0.794328
vn 0.809018 -0.000000 0.587784
vn 0.794328 0.189695 0.577112
vn 0.951057 -0.000000 0.309016
vn 0.933789 0.189696 0.303405
vn 1.000000 0.000000 0.000002
vn 0.981843 0.189696 0.000002
vn 0.000000 -1.000000 0.000000
vn 0.000000 -1.000000 0.000000
vn 0.000000 -1.000000 0.000000
vn 0.000000 -1.000000 0.000000
vn 0.000000 -1.000000 0.000000
vn 0.000000 -1.000000 0.000000
vn 0.000000 -1.000000 0.000000
vn 0.000000 -1.000000 0.000000
vn 0.000000 -1.000000 0.000000
vn 0.000000 -1.000000 -0.000000
vn 0.000000 -1.000000 0.000000
vn 0.000000 -1.000000 0.000000
vn 0.000000 -1.000000 0.000000
vn 0.000000 -1.000000 0.000000
vn 0.000000 -1.000000 0.000000
vn 0.000000 -1.000000 0.000000
vn 0.000000 -1.000000 0.000000
vn 0.000000 -1.000000 0.000000
vn 0.000000 -1.000000 0.000000
vn 0.000000 -1.000000 -0.000000
vn 0.000000 -1.000000 0.000000
vn 0.000000 1.000000 -0.000000
vn 0.000000 1.000000 -0.000000
vn 0.000000 1.000000 0.000000
vn 0.000000 1.000000 0.000000
vn 0.000000 1.000000 0.000000
vn 0.000000 1.000000 -0.000000
vn 0.000000 1.000000 -0.000000
vn 0.000000 1.000000 0.000000
vn 0.000000 1.000000 0.000000
vn 0.000000 1.000000 -0.000000
vn 0.000000 1.000000 -0.000000
vn 0.000000 1.000000 0.000000
vn 0.000000 1.000000 0.000000
vn 0.000000 1.000000 0.000000
vn 0.000000 1.000000 0.000000
vn 0.000000 1.000000 -0.000000
vn 0.000000 1.000000 -0.000000
vn 0.000000 1.000000 0.000000
vn 0.000000 1.000000 0.000000
vn 0.000000 1.000000 0.000000
vn 0.000000 1.000000 0.000000
vn -0.000000 -1.000000 0.000000
vn -0.000000 -1.000000 0.000000
vn -0.000000 -1.000000 0.000000
vn -0.000000 -1.000000 0.000000
vn -0.000000 -1.000000 0.000000
vn -0.000000 -1.000000 0.000000
vn 0.000000 -1.000000 0.000000
vn 0.000000 -1.000000 0.000000
vn 0.000000 -1.000000 0.000000
vn 0.000000 -1.000000 0.000000
vn 0.000000 -1.000000 0.000000
vn 0.000000 -1.000000 0.000000
vn 0.000000 -1.000000 0.000000
vn 0.000000 -1.000000 0.000000
vn 0.000000 -1.000000 0.000000
vn 0.000000 -1.000000 0.000000
vn -0.000000 -1.000000 0.000000
vn -0.000000 -1.000000 0.000000
vn -0.000000 -1.000000 0.000000
vn -0.000000 -1.000000 0.000000
vn -0.000000 -1.000000 0.000000
vn -0.000000 -1.000000 0.000000
vn -0.000000 -1.000000 0.000000
vn -0.000000 -1.000000 0.000000
vn 0.000000 -1.000000 0.000000
vn 0.000000 -1.000000 0.000000
vn 0.000000 -1.000000 0.000000
vn 0.000000 -1.000000 0.000000
vn 0.000000 -1.000000 0.000000
vn 0.000000 -1.000000 0.000000
vn 0.000000 -1.000000 0.000000
vn 0.000000 -1.000000 0.000000
vn 0.000000 -1.000000 0.000000
vn 0.000000 -1.000000 0.000000
vn 0.000000 -1.000000 0.000000
vn 0.000000 -1.000000 0.000000
vn 0.000000 -1.000000 0.000000
vn 0.000000 -1.000000 0.000000
vn 0.000000 -1.000000 0.000000
vn 0.000000 -1.000000 0.000000
vn 0.000000 1.000000 0.000000
vn 0.000000 1.000000 0.000000
vn 0.000000 1.000000 0.000000
vn 0.000000 1.000000 0.000000
vn 0.000000 1.000000 -0.000000
vn 0.000000 1.000000 -0.000000
vn 0.000000 1.000000 -0.000001
vn 0.000000 1.000000 -0.000001
vn 0.000000 1.000000 -0.000000
vn 0.000000 1.000000 -0.000000
vn 0.000000 1.000000 -0.000000
vn 0.000000 1.000000 -0.000000
vn 0.000000 1.000000 -0.000000
vn 0.000000 1.000000 -0.000000
vn 0.000000 1.000000 0.000000
vn 0.000000 1.000000 0.000000
vn 0.000000 1.000000 0.000000
vn 0.000000 1.000000 0.000000
vn 0.000000 1.000000 0.000000
vn 0.000000 1.000000 0.000000
vn 0.000000 1.000000 0.000000
vn 0.000000 1.000000 0.000000
vn 0.000000 1.000000 -0.000000
vn 0.000000 1.000000 -0.000000
vn 0.000000 1.000000 0.000000
vn 0.000000 1.000000 0.000000
vn 0.000000 1.000000 0.000001
vn 0.000000 1.000000 0.000001
vn 0.000000 1.000000 0.000000
vn 0.000000 1.000000 0.000000
vn 0.000000 1.000000 0.000000
vn 0.000000 1.000000 0.000000
vn 0.000000 1.000000 0.000000
vn 0.000000 1.000000 0.000000
vn 0.000000 1.000000 -0.000000
vn 0.000000 1.000000 -0.000000
vn 0.000000 1.000000 0.000000
vn 0.000000 1.000000 0.000000
vn 0.000000 1.000000 0.000000
vn 0.000000 1.000000 0.000000
vn -0.809017 0.000000 0.587785
vn -0.951057 0.000000 0.309017
vn -0.951057 0.000000 0.309017
vn -0.809017 0.000000 0.587785
vn -0.587786 0.000000 0.809017
vn -0.587786 0.000000 0.809017
vn -0.309017 0.000000 0.951057
vn -0.309017 0.000000 0.951057
vn 0.000000 0.000000 1.000000
vn 0.000000 0.000000 1.000000
vn 0.309017 0.000000 0.951057
vn 0.309017 0.000000 0.951057
vn 0.587785 0.000000 0.809017
vn 0.587785 0.000000 0.809017
vn 0.809017 0.000000 0.587785
vn 0.809017 0.000000 0.587785
vn 0.951057 0.000000 0.309016
vn 0.951057 0.000000 0.309016
vn 1.000000 0.000000 0.000001
vn 1.000000 0.000000 0.000001
vn 0.951056 0.000000 -0.309018
vn 0.951056 0.000000 -0.309018
vn 0.809017 0.000000 -0.587785
vn 0.809017 0.000000 -0.587785
vn 0.587786 0.000000 -0.809017
vn 0.587786 0.000000 -0.809017
vn 0.309016 0.000000 -0.951057
vn 0.309016 0.000000 -0.951057
vn -0.000000 0.000000 -1.000000
vn -0.000000 0.000000 -1.000000
vn -0.309016 0.000000 -0.951057
vn -0.309016 0.000000 -0.951057
vn -0.587785 0.000000 -0.809017
vn -0.587785 0.000000 -0.809017
vn -0.809017 0.000000 -0.587785
vn -0.809017 0.000000 -0.587785
vn -0.951057 0.000000 -0.309016
vn -0.951057 0.000000 -0.309016
vn -1.000000 0.000000 0.000000
vn -1.000000 0.000000 0.000000
vn -0.951057 0.000000 0.309016
vn -0.809017 0.000000 0.587785
vn -0.809017 0.000000 0.587785
vn -0.951057 0.000000 0.309016
vn -0.587785 0.000000 0.809017
vn -0.587785 0.000000 0.809017
vn -0.309017 0.000000 0.951057
vn -0.309017 0.000000 0.951057
vn 0.000000 0.000000 1.000000
vn 0.000000 0.000000 1.000000
vn 0.309017 0.000000 0.951057
vn 0.309017 0.000000 0.951057
vn 0.587785 0.000000 0.809017
vn 0.587785 0.000000 0.809017
vn 0.809017 0.000000 0.587785
vn 0.809017 0.000000 0.587785
vn 0.951057 0.000000 0.309017
vn 0.951057 0.000000 0.309017
vn 1.000000 0.000000 0.000001
vn 1.000000 0.000000 0.000001
vn 0.951056 0.000000 -0.309018
vn 0.951056 0.000000 -0.309018
vn 0.809017 0.000000 -0.587786
vn 0.809017 0.000000 -0.587786
vn 0.587786 0.000000 -0.809017
vn 0.587786 0.000000 -0.809017
vn 0.309016 0.000000 -0.951057
vn 0.309016 0.000000 -0.951057
vn -0.000000 0.000000 -1.000000
vn -0.000000 0.000000 -1.000000
vn -0.309016 0.000000 -0.951057
vn -0.309016 0.000000 -0.951057
vn -0.587785 0.000000 -0.809017
vn -0.587785 0.000000 -0.809017
vn -0.809017 0.000000 -0.587785
vn -0.809017 0.000000 -0.587785
vn -0.951057 0.000000 -0.309016
vn -0.951057 0.000000 -0.309016
vn -1.000000 0.000000 -0.000001
vn -1.000000 0.000000 -0.000001
vn 0.978678 -0.205399 0.000002
vn 0.930779 -0.205398 -0.302427
vn 0.951057 0.000000 -0.309016
vn 1.000000 0.000000 0.000002
vn 0.930779 -0.205398 0.302427
vn 0.951057 0.000000 0.309016
vn 0.791768 -0.205398 0.575252
vn 0.809018 0.000000 0.587784
vn 0.575252 -0.205398 0.791768
vn 0.587785 0.000000 0.809017
vn 0.302428 -0.205398 0.930779
vn 0.309016 0.000000 0.951057
vn 0.000000 -0.205398 0.978678
vn 0.000000 0.000000 1.000000
vn -0.302428 -0.205399 0.930778
vn -0.309017 0.000000 0.951057
vn -0.575252 -0.205399 0.791768
vn -0.587785 0.000000 0.809017
vn -0.791767 -0.205398 0.575254
vn -0.809016 0.000000 0.587786
vn -0.930778 -0.205398 0.302428
vn -0.951056 0.000000 0.309017
vn -0.978678 -0.205399 -0.000001
vn -1.000000 0.000000 -0.000002
vn -0.930779 -0.205399 -0.302428
vn -0.951057 0.000000 -0.309016
vn -0.791768 -0.205398 -0.575253
vn -0.809017 0.000000 -0.587785
vn -0.575252 -0.205399 -0.791768
vn -0.587785 0.000000 -0.809017
vn -0.302429 -0.205399 -0.930778
vn -0.309017 0.000000 -0.951056
vn -0.000001 -0.205399 -0.978678
vn -0.000001 0.000000 -1.000000
vn 0.302427 -0.205399 -0.930779
vn 0.309016 -0.000000 -0.951057
vn 0.575253 -0.205399 -0.791767
vn 0.587785 -0.000000 -0.809017
vn 0.791767 -0.205398 -0.575253
vn 0.809017 -0.000000 -0.587785
vn 0.693288 0.684550 -0.225262
vn 0.728966 0.684550 0.000001
vn 0.728967 -0.684549 0.000001
vn 0.693289 -0.684550 -0.225262
vn 0.693289 0.684549 0.225262
vn 0.693289 -0.684549 0.225262
vn 0.589747 0.684549 0.428475
vn 0.589748 -0.684548 0.428475
vn 0.428475 0.684549 0.589747
vn 0.428476 -0.684548 0.589747
vn 0.225263 0.684550 0.693288
vn 0.225263 -0.684549 0.693289
vn 0.000000 0.684550 0.728966
vn 0.000000 -0.684550 0.728966
vn -0.225262 0.684550 0.693288
vn -0.225262 -0.684550 0.693288
vn -0.428475 0.684550 0.589746
vn -0.428475 -0.684549 0.589747
vn -0.589746 0.684550 0.428476
vn -0.589746 -0.684549 0.428477
vn -0.693288 0.684550 0.225263
vn -0.693288 -0.684550 0.225263
vn -0.728966 0.684550 -0.000001
vn -0.728966 -0.684550 -0.000001
vn -0.693288 0.684550 -0.225262
vn -0.693289 -0.684549 -0.225262
vn -0.589746 0.684550 -0.428475
vn -0.589747 -0.684549 -0.428476
vn -0.428475 0.684550 -0.589746
vn -0.428475 -0.684549 -0.589747
vn -0.225262 0.684550 -0.693288
vn -0.225262 -0.684550 -0.693288
vn -0.000001 0.684550 -0.728966
vn -0.000001 -0.684550 -0.728966
vn 0.225262 0.684550 -0.693288
vn 0.225262 -0.684550 -0.693288
vn 0.428475 0.684550 -0.589746
vn 0.428476 -0.684549 -0.589746
vn 0.589746 0.684549 -0.428476
vn 0.589747 -0.684549 -0.428476
vn 0.816338 -0.513068 -0.265242
vn 0.951057 -0.000000 -0.309015
vn 1.000000 0.000000 0.000002
vn 0.858348 -0.513068 0.000001
vn 0.816338 0.513068 -0.265242
vn 0.858348 0.513068 0.000001
vn 1.000000 0.000000 0.000002
vn 0.951057 0.000000 -0.309015
vn 0.951057 0.000000 -0.309015
vn 1.000000 0.000000 0.000002
vn 0.951057 0.000000 0.309015
vn 0.951057 0.000000 0.309015
vn 0.809018 0.000000 0.587784
vn 0.809018 0.000000 0.587784
vn 0.587784 0.000000 0.809018
vn 0.587784 0.000000 0.809018
vn 0.309016 0.000000 0.951057
vn 0.309016 0.000000 0.951057
vn 0.000000 0.000000 1.000000
vn 0.000000 0.000000 1.000000
vn -0.309017 0.000000 0.951057
vn -0.309017 0.000000 0.951057
vn -0.587784 -0.000000 0.809018
vn -0.587784 -0.000000 0.809018
vn -0.809016 -0.000000 0.587786
vn -0.809016 -0.000000 0.587786
vn -0.951057 0.000000 0.309017
vn -0.951057 0.000000 0.309017
vn -1.000000 0.000000 -0.000002
vn -1.000000 0.000000 -0.000002
vn -0.951057 0.000000 -0.309016
vn -0.951057 0.000000 -0.309016
vn -0.809017 0.000000 -0.587785
vn -0.809017 0.000000 -0.587785
vn -0.587784 0.000000 -0.809018
vn -0.587784 0.000000 -0.809018
vn -0.309017 0.000000 -0.951056
vn -0.309017 0.000000 -0.951056
vn -0.000001 -0.000000 -1.000000
vn -0.000001 -0.000000 -1.000000
vn 0.309016 -0.000000 -0.951057
vn 0.309016 -0.000000 -0.951057
vn 0.587785 -0.000000 -0.809017
vn 0.587785 -0.000000 -0.809017
vn 0.809017 0.000000 -0.587785
vn 0.809017 0.000000 -0.587785
vn 1.000000 0.000000 0.000002
vn 0.951057 0.000000 -0.309015
vn 0.951057 0.000000 -0.309015
vn 1.000000 0.000000 0.000002
vn 0.951057 0.000000 0.309015
vn 0.951057 0.000000 0.309015
vn 0.809018 0.000000 0.587784
vn 0.809018 0.000000 0.587784
vn 0.587784 0.000000 0.809018
vn 0.587784 0.000000 0.809018
vn 0.309016 0.000000 0.951057
vn 0.309016 0.000000 0.951057
vn 0.000000 0.000000 1.000000
vn 0.000000 0.000000 1.000000
vn -0.309017 0.000000 0.951057
vn -0.309017 0.000000 0.951057
vn -0.587784 0.000000 0.809018
vn -0.587784 0.000000 0.809018
vn -0.809016 0.000000 0.587786
vn -0.809016 0.000000 0.587786
vn -0.951057 0.000000 0.309017
vn -0.951057 0.000000 0.309017
vn -1.000000 0.000000 -0.000002
vn -1.000000 0.000000 -0.000002
vn -0.951057 0.000000 -0.309016
vn -0.951057 0.000000 -0.309016
vn -0.809017 0.000000 -0.587785
vn -0.809017 0.000000 -0.587785
vn -0.587784 0.000000 -0.809018
vn -0.587784 0.000000 -0.809018
vn -0.309017 0.000000 -0.951056
vn -0.309017 0.000000 -0.951056
vn -0.000001 -0.000000 -1.000000
vn -0.000001 -0.000000 -1.000000
vn 0.309016 -0.000000 -0.951057
vn 0.309016 -0.000000 -0.951057
vn 0.587785 -0.000000 -0.809017
vn 0.587785 -0.000000 -0.809017
vn 0.809017 0.000000 -0.587785
vn 0.809017 0.000000 -0.587785
vn 0.951057 0.000000 0.309015
vn 0.816338 -0.513068 0.265242
vn 0.816338 0.513068 0.265242
vn 0.809018 0.000000 0.587784
vn 0.694419 -0.513068 0.504523
vn 0.694419 0.513068 0.504523
vn 0.587784 0.000000 0.809018
vn 0.504524 -0.513068 0.694419
vn 0.504524 0.513068 0.694419
vn 0.309017 0.000000 0.951057
vn 0.265244 -0.513068 0.816338
vn 0.265244 0.513068 0.816338
vn 0.000000 0.000000 1.000000
vn 0.000000 -0.513068 0.858348
vn 0.000000 0.513067 0.858348
vn -0.309017 -0.000000 0.951057
vn -0.265244 -0.513067 0.816338
vn -0.265244 0.513067 0.816338
vn -0.587784 0.000000 0.809018
vn -0.504523 -0.513068 0.694419
vn -0.504523 0.513068 0.694419
vn -0.809017 0.000000 0.587786
vn -0.694417 -0.513068 0.504525
vn -0.694417 0.513068 0.504525
vn -0.951057 0.000000 0.309016
vn -0.816337 -0.513068 0.265244
vn -0.816337 0.513068 0.265244
vn -1.000000 0.000000 -0.000002
vn -0.858348 -0.513067 -0.000002
vn -0.858348 0.513067 -0.000002
vn -0.951057 -0.000000 -0.309016
vn -0.816338 -0.513068 -0.265243
vn -0.816338 0.513068 -0.265243
vn -0.809017 -0.000000 -0.587785
vn -0.694418 -0.513069 -0.504524
vn -0.694418 0.513068 -0.504524
vn -0.587784 0.000000 -0.809018
vn -0.504523 -0.513068 -0.694419
vn -0.504523 0.513068 -0.694419
vn -0.309017 0.000000 -0.951057
vn -0.265244 -0.513067 -0.816338
vn -0.265244 0.513067 -0.816338
vn -0.000001 -0.000000 -1.000000
vn -0.000001 -0.513067 -0.858348
vn -0.000001 0.513068 -0.858348
vn 0.309016 -0.000000 -0.951057
vn 0.265244 -0.513068 -0.816338
vn 0.265244 0.513068 -0.816338
vn 0.587785 0.000000 -0.809017
vn 0.504524 -0.513068 -0.694418
vn 0.504524 0.513068 -0.694418
vn 0.809017 0.000000 -0.587785
vn 0.694418 -0.513068 -0.504524
vn 0.694418 0.513068 -0.504524
s 1
g Item_Barril_1 Obj_base
usemtl initialShadingGroup
f 1/444/1 2/462/2 142/3/3 123/4/4
f 2/462/2 3/461/5 141/6/6 142/3/3
f 3/461/5 4/460/7 140/8/8 141/6/6
f 4/460/7 5/459/9 139/10/10 140/8/8
f 5/459/9 6/458/11 138/12/12 139/10/10
f 6/458/11 7/457/13 137/14/14 138/12/12
f 7/457/13 8/456/15 136/16/16 137/14/14
f 8/456/15 9/455/17 135/18/18 136/16/16
f 9/455/17 10/454/19 134/20/20 135/18/18
f 10/454/19 11/453/21 133/22/22 134/20/20
f 11/453/21 12/452/23 132/24/24 133/22/22
f 12/452/23 13/451/25 131/26/26 132/24/24
f 13/451/25 14/450/27 130/28/28 131/26/26
f 14/450/27 15/449/29 129/30/30 130/28/28
f 15/449/29 16/448/31 128/32/32 129/30/30
f 16/448/31 17/447/33 127/34/34 128/32/32
f 17/447/33 18/446/35 126/36/36 127/34/34
f 18/446/35 19/445/37 125/38/38 126/36/36
f 19/445/37 20/443/39 124/40/40 125/38/38
f 20/443/39 1/444/1 123/4/4 124/40/40
s 2
f 82/41/41 81/364/42 83/43/43
f 84/44/44 82/41/41 83/43/43
f 85/45/45 84/44/44 83/43/43
f 86/46/46 85/45/45 83/43/43
f 87/47/47 86/46/46 83/43/43
f 88/48/48 87/47/47 83/43/43
f 89/49/49 88/48/48 83/43/43
f 90/50/50 89/49/49 83/43/43
f 91/51/51 90/50/50 83/43/43
f 92/52/52 91/51/51 83/43/43
f 93/53/53 92/52/52 83/43/43
f 94/54/54 93/53/53 83/43/43
f 95/55/55 94/54/54 83/43/43
f 96/56/56 95/55/55 83/43/43
f 97/57/57 96/56/56 83/43/43
f 98/58/58 97/57/57 83/43/43
f 99/59/59 98/58/58 83/43/43
f 100/60/60 99/59/59 83/43/43
f 101/61/61 100/60/60 83/43/43
f 81/364/42 101/61/61 83/43/43
s 3
f 102/62/62 103/362/63 104/64/64
f 103/362/63 105/361/65 104/64/64
f 105/361/65 106/360/66 104/64/64
f 106/360/66 107/359/67 104/64/64
f 107/359/67 108/358/68 104/64/64
f 108/358/68 109/357/69 104/64/64
f 109/357/69 110/356/70 104/64/64
f 110/356/70 111/355/71 104/64/64
f 111/355/71 112/354/72 104/64/64
f 112/354/72 113/353/73 104/64/64
f 113/353/73 114/352/74 104/64/64
f 114/352/74 115/351/75 104/64/64
f 115/351/75 116/350/76 104/64/64
f 116/350/76 117/349/77 104/64/64
f 117/349/77 118/348/78 104/64/64
f 118/348/78 119/347/79 104/64/64
f 119/347/79 120/346/80 104/64/64
f 120/346/80 121/345/81 104/64/64
f 121/345/81 122/343/82 104/64/64
f 122/343/82 102/62/62 104/64/64
s 4
f 2/2/83 1/1/84 41/404/85 42/422/86
f 3/5/87 2/2/83 42/422/86 43/421/88
f 4/7/89 3/5/87 43/421/88 44/420/90
f 5/9/91 4/7/89 44/420/90 45/419/92
f 6/11/93 5/9/91 45/419/92 46/418/94
f 7/13/95 6/11/93 46/418/94 47/417/96
f 8/15/97 7/13/95 47/417/96 48/416/98
f 9/17/99 8/15/97 48/416/98 49/415/100
f 10/19/101 9/17/99 49/415/100 50/414/102
f 11/21/103 10/19/101 50/414/102 51/413/104
f 12/23/105 11/21/103 51/413/104 52/412/106
f 13/25/107 12/23/105 52/412/106 53/411/108
f 14/27/109 13/25/107 53/411/108 54/410/110
f 15/29/111 14/27/109 54/410/110 55/409/112
f 16/31/113 15/29/111 55/409/112 56/408/114
f 17/33/115 16/31/113 56/408/114 57/407/116
f 18/35/117 17/33/115 57/407/116 58/406/118
f 19/37/119 18/35/117 58/406/118 59/405/120
f 20/39/121 19/37/119 59/405/120 60/403/122
f 1/1/84 20/39/121 60/403/122 41/404/85
s 5
f 21/424/123 22/442/124 62/402/125 61/384/126
f 22/442/124 23/441/127 63/401/128 62/402/125
f 23/441/127 24/440/129 64/400/130 63/401/128
f 24/440/129 25/439/131 65/399/132 64/400/130
f 25/439/131 26/438/133 66/398/134 65/399/132
f 26/438/133 27/437/135 67/397/136 66/398/134
f 27/437/135 28/436/137 68/396/138 67/397/136
f 28/436/137 29/435/139 69/395/140 68/396/138
f 29/435/139 30/434/141 70/394/142 69/395/140
f 30/434/141 31/433/143 71/393/144 70/394/142
f 31/433/143 32/432/145 72/392/146 71/393/144
f 32/432/145 33/431/147 73/391/148 72/392/146
f 33/431/147 34/430/149 74/390/150 73/391/148
f 34/430/149 35/429/151 75/389/152 74/390/150
f 35/429/151 36/428/153 76/388/154 75/389/152
f 36/428/153 37/427/155 77/387/156 76/388/154
f 37/427/155 38/426/157 78/386/158 77/387/156
f 38/426/157 39/425/159 79/385/160 78/386/158
f 39/425/159 40/423/161 80/383/162 79/385/160
f 40/423/161 21/424/123 61/384/126 80/383/162
s 6
f 42/84/163 41/83/164 81/42/165 82/382/166
f 43/85/167 42/84/163 82/382/166 84/381/168
f 44/86/169 43/85/167 84/381/168 85/380/170
f 45/87/171 44/86/169 85/380/170 86/379/172
f 46/88/173 45/87/171 86/379/172 87/378/174
f 47/89/175 46/88/173 87/378/174 88/377/176
f 48/90/177 47/89/175 88/377/176 89/376/178
f 49/91/179 48/90/177 89/376/178 90/375/180
f 50/92/181 49/91/179 90/375/180 91/374/182
f 51/93/183 50/92/181 91/374/182 92/373/184
f 52/94/185 51/93/183 92/373/184 93/372/186
f 53/95/187 52/94/185 93/372/186 94/371/188
f 54/96/189 53/95/187 94/371/188 95/370/190
f 55/97/191 54/96/189 95/370/190 96/369/192
f 56/98/193 55/97/191 96/369/192 97/368/194
f 57/99/195 56/98/193 97/368/194 98/367/196
f 58/100/197 57/99/195 98/367/196 99/366/198
f 59/101/199 58/100/197 99/366/198 100/365/200
f 60/102/201 59/101/199 100/365/200 101/363/202
f 41/83/164 60/102/201 101/363/202 81/42/165
s 7
f 61/106/203 62/105/204 103/63/205 102/344/206
f 62/105/204 63/108/207 105/65/208 103/63/205
f 63/108/207 64/110/209 106/66/210 105/65/208
f 64/110/209 65/112/211 107/67/212 106/66/210
f 65/112/211 66/114/213 108/68/214 107/67/212
f 66/114/213 67/116/215 109/69/216 108/68/214
f 67/116/215 68/118/217 110/70/218 109/69/216
f 68/118/217 69/120/219 111/71/220 110/70/218
f 69/120/219 70/122/221 112/72/222 111/71/220
f 70/122/221 71/124/223 113/73/224 112/72/222
f 71/124/223 72/126/225 114/74/226 113/73/224
f 72/126/225 73/128/227 115/75/228 114/74/226
f 73/128/227 74/130/229 116/76/230 115/75/228
f 74/130/229 75/132/231 117/77/232 116/76/230
f 75/132/231 76/134/233 118/78/234 117/77/232
f 76/134/233 77/136/235 119/79/236 118/78/234
f 77/136/235 78/138/237 120/80/238 119/79/236
f 78/138/237 79/140/239 121/81/240 120/80/238
f 79/140/239 80/142/241 122/82/242 121/81/240
f 80/142/241 61/106/203 102/344/206 122/82/242
s 8
f 144/143/243 143/144/244 21/103/245 40/141/246
f 145/145/247 144/143/243 40/141/246 39/139/248
f 146/146/249 145/145/247 39/139/248 38/137/250
f 147/147/251 146/146/249 38/137/250 37/135/252
f 148/148/253 147/147/251 37/135/252 36/133/254
f 149/149/255 148/148/253 36/133/254 35/131/256
f 150/150/257 149/149/255 35/131/256 34/129/258
f 151/151/259 150/150/257 34/129/258 33/127/260
f 152/152/261 151/151/259 33/127/260 32/125/262
f 153/153/263 152/152/261 32/125/262 31/123/264
f 154/154/265 153/153/263 31/123/264 30/121/266
f 155/155/267 154/154/265 30/121/266 29/119/268
f 156/156/269 155/155/267 29/119/268 28/117/270
f 157/157/271 156/156/269 28/117/270 27/115/272
f 158/158/273 157/157/271 27/115/272 26/113/274
f 159/159/275 158/158/273 26/113/274 25/111/276
f 160/160/277 159/159/275 25/111/276 24/109/278
f 161/161/279 160/160/277 24/109/278 23/107/280
f 162/162/281 161/161/279 23/107/280 22/104/282
f 143/144/244 162/162/281 22/104/282 21/103/245
s 1
f 124/40/40 123/4/4 163/306/283 164/342/284
s 8
f 143/144/244 144/143/243 166/341/285 165/304/286
s 1
f 125/38/38 124/40/40 164/342/284 167/340/287
s 8
f 144/143/243 145/145/247 168/339/288 166/341/285
s 1
f 126/36/36 125/38/38 167/340/287 169/338/289
s 8
f 145/145/247 146/146/249 170/337/290 168/339/288
s 1
f 127/34/34 126/36/36 169/338/289 171/336/291
s 8
f 146/146/249 147/147/251 172/335/292 170/337/290
s 1
f 128/32/32 127/34/34 171/336/291 173/334/293
s 8
f 147/147/251 148/148/253 174/333/294 172/335/292
s 1
f 129/30/30 128/32/32 173/334/293 175/332/295
s 8
f 148/148/253 149/149/255 176/331/296 174/333/294
s 1
f 130/28/28 129/30/30 175/332/295 177/330/297
s 8
f 149/149/255 150/150/257 178/329/298 176/331/296
s 1
f 131/26/26 130/28/28 177/330/297 179/328/299
s 8
f 150/150/257 151/151/259 180/327/300 178/329/298
s 1
f 132/24/24 131/26/26 179/328/299 181/326/301
s 8
f 151/151/259 152/152/261 182/325/302 180/327/300
s 1
f 133/22/22 132/24/24 181/326/301 183/324/303
s 8
f 152/152/261 153/153/263 184/323/304 182/325/302
s 1
f 134/20/20 133/22/22 183/324/303 185/322/305
s 8
f 153/153/263 154/154/265 186/321/306 184/323/304
s 1
f 135/18/18 134/20/20 185/322/305 187/320/307
s 8
f 154/154/265 155/155/267 188/319/308 186/321/306
s 1
f 136/16/16 135/18/18 187/320/307 189/318/309
s 8
f 155/155/267 156/156/269 190/317/310 188/319/308
s 1
f 137/14/14 136/16/16 189/318/309 191/316/311
s 8
f 156/156/269 157/157/271 192/315/312 190/317/310
s 1
f 138/12/12 137/14/14 191/316/311 193/314/313
s 8
f 157/157/271 158/158/273 194/313/314 192/315/312
s 1
f 139/10/10 138/12/12 193/314/313 195/312/315
s 8
f 158/158/273 159/159/275 196/311/316 194/313/314
s 1
f 140/8/8 139/10/10 195/312/315 197/310/317
s 8
f 159/159/275 160/160/277 198/309/318 196/311/316
s 1
f 141/6/6 140/8/8 197/310/317 199/308/319
s 8
f 160/160/277 161/161/279 200/307/320 198/309/318
s 1
f 142/3/3 141/6/6 199/308/319 201/305/321
s 8
f 161/161/279 162/162/281 202/303/322 200/307/320
s 1
f 123/4/4 142/3/3 201/305/321 163/306/283
s 8
f 162/162/281 143/144/244 165/304/286 202/303/322
s 9
f 205/302/323 204/204/324 207/205/325 206/300/326
f 204/204/324 203/301/327 208/299/328 207/205/325
s 10
f 164/164/329 163/163/330 205/203/331 206/206/332
f 167/167/333 164/164/329 206/206/332 209/209/334
f 169/169/335 167/167/333 209/209/334 212/210/336
f 171/171/337 169/169/335 212/210/336 215/211/338
f 173/173/339 171/171/337 215/211/338 218/212/340
f 175/175/341 173/173/339 218/212/340 221/213/342
f 177/177/343 175/175/341 221/213/342 224/214/344
f 179/179/345 177/177/343 224/214/344 227/215/346
f 181/181/347 179/179/345 227/215/346 230/216/348
f 183/183/349 181/181/347 230/216/348 233/217/350
f 185/185/351 183/183/349 233/217/350 236/218/352
f 187/187/353 185/185/351 236/218/352 239/219/354
f 189/189/355 187/187/353 239/219/354 242/220/356
f 191/191/357 189/189/355 242/220/356 245/221/358
f 193/193/359 191/191/357 245/221/358 248/222/360
f 195/195/361 193/193/359 248/222/360 251/223/362
f 197/197/363 195/195/361 251/223/362 254/224/364
f 199/199/365 197/197/363 254/224/364 257/225/366
f 201/201/367 199/199/365 257/225/366 260/226/368
f 163/163/330 201/201/367 260/226/368 205/203/331
s 11
f 208/208/369 203/207/370 165/166/371 166/165/372
f 211/227/373 208/208/369 166/165/372 168/168/374
f 214/228/375 211/227/373 168/168/374 170/170/376
f 217/229/377 214/228/375 170/170/376 172/172/378
f 220/230/379 217/229/377 172/172/378 174/174/380
f 223/231/381 220/230/379 174/174/380 176/176/382
f 226/232/383 223/231/381 176/176/382 178/178/384
f 229/233/385 226/232/383 178/178/384 180/180/386
f 232/234/387 229/233/385 180/180/386 182/182/388
f 235/235/389 232/234/387 182/182/388 184/184/390
f 238/236/391 235/235/389 184/184/390 186/186/392
f 241/237/393 238/236/391 186/186/392 188/188/394
f 244/238/395 241/237/393 188/188/394 190/190/396
f 247/239/397 244/238/395 190/190/396 192/192/398
f 250/240/399 247/239/397 192/192/398 194/194/400
f 253/241/401 250/240/399 194/194/400 196/196/402
f 256/242/403 253/241/401 196/196/402 198/198/404
f 259/243/405 256/242/403 198/198/404 200/200/406
f 262/244/407 259/243/405 200/200/406 202/202/408
f 203/207/370 262/244/407 202/202/408 165/166/371
s 9
f 206/300/326 207/205/325 210/245/409 209/298/410
f 207/205/325 208/299/328 211/297/411 210/245/409
f 209/298/410 210/245/409 213/246/412 212/296/413
f 210/245/409 211/297/411 214/295/414 213/246/412
f 212/296/413 213/246/412 216/247/415 215/294/416
f 213/246/412 214/295/414 217/293/417 216/247/415
f 215/294/416 216/247/415 219/248/418 218/292/419
f 216/247/415 217/293/417 220/291/420 219/248/418
f 218/292/419 219/248/418 222/249/421 221/290/422
f 219/248/418 220/291/420 223/289/423 222/249/421
f 221/290/422 222/249/421 225/250/424 224/288/425
f 222/249/421 223/289/423 226/287/426 225/250/424
f 224/288/425 225/250/424 228/251/427 227/286/428
f 225/250/424 226/287/426 229/285/429 228/251/427
f 227/286/428 228/251/427 231/252/430 230/284/431
f 228/251/427 229/285/429 232/283/432 231/252/430
f 230/284/431 231/252/430 234/253/433 233/282/434
f 231/252/430 232/283/432 235/281/435 234/253/433
f 233/282/434 234/253/433 237/254/436 236/280/437
f 234/253/433 235/281/435 238/279/438 237/254/436
f 236/280/437 237/254/436 240/255/439 239/278/440
f 237/254/436 238/279/438 241/277/441 240/255/439
f 239/278/440 240/255/439 243/256/442 242/276/443
f 240/255/439 241/277/441 244/275/444 243/256/442
f 242/276/443 243/256/442 246/257/445 245/274/446
f 243/256/442 244/275/444 247/273/447 246/257/445
f 245/274/446 246/257/445 249/258/448 248/272/449
f 246/257/445 247/273/447 250/271/450 249/258/448
f 248/272/449 249/258/448 252/259/451 251/270/452
f 249/258/448 250/271/450 253/269/453 252/259/451
f 251/270/452 252/259/451 255/260/454 254/268/455
f 252/259/451 253/269/453 256/267/456 255/260/454
f 254/268/455 255/260/454 258/261/457 257/266/458
f 255/260/454 256/267/456 259/263/459 258/261/457
f 257/266/458 258/261/457 261/262/460 260/265/461
f 258/261/457 259/263/459 262/264/462 261/262/460
f 203/301/327 204/204/324 261/262/460 262/264/462
f 204/204/324 205/302/323 260/265/461 261/262/460
