# This file uses centimeters as units for non-parametric coordinates.

mtllib Item_Tubo_3.mtl
g default
v 3.836633 1.093728 1.720954
v 1.987986 1.093728 1.720954
v 2.164516 0.550424 1.720954
v 2.626678 0.214644 1.720954
v 3.197942 0.214644 1.720954
v 3.660105 0.550424 1.720954
v 3.836633 1.093728 1.408054
v 1.987986 1.093728 1.408054
v 2.164516 0.550424 1.408054
v 2.626678 0.214644 1.408054
v 3.197942 0.214644 1.408054
v 3.660105 0.550424 1.408054
v 3.660105 0.011337 1.408054
v 3.836633 0.011343 1.408054
v 3.836633 0.011343 1.720954
v 3.660105 0.011337 1.720954
v 1.987986 0.011343 1.408054
v 2.164516 0.011337 1.408054
v 2.164516 0.011337 1.720954
v 1.987986 0.011343 1.720954
v 2.626678 0.011334 1.408054
v 2.626678 0.011334 1.720954
v 3.197942 0.011334 1.408054
v 3.197942 0.011334 1.720954
v 3.836633 1.093728 -1.408054
v 1.987986 1.093728 -1.408054
v 2.164516 0.550424 -1.408054
v 2.626678 0.214644 -1.408054
v 3.197942 0.214644 -1.408054
v 3.660105 0.550424 -1.408054
v 3.836633 1.093728 -1.720954
v 1.987986 1.093728 -1.720954
v 2.164516 0.550424 -1.720954
v 2.626678 0.214644 -1.720954
v 3.197942 0.214644 -1.720954
v 3.660105 0.550424 -1.720954
v 3.660105 0.011337 -1.720954
v 3.836633 0.011343 -1.720954
v 3.836633 0.011343 -1.408054
v 3.660105 0.011337 -1.408054
v 1.987986 0.011343 -1.720954
v 2.164516 0.011337 -1.720954
v 2.164516 0.011337 -1.408054
v 1.987986 0.011343 -1.408054
v 2.626678 0.011334 -1.720954
v 2.626678 0.011334 -1.408054
v 3.197942 0.011334 -1.720954
v 3.197942 0.011334 -1.408054
v 3.660104 0.550424 3.129008
v 3.197942 0.214644 3.129008
v 2.626678 0.214644 3.129008
v 2.164516 0.550424 3.129008
v 1.987986 1.093728 3.129008
v 2.164516 1.637032 3.129008
v 2.626678 1.972813 3.129008
v 3.197942 1.972812 3.129008
v 3.660104 1.637032 3.129008
v 3.836633 1.093728 3.129008
v 3.660104 0.550424 -3.129008
v 3.197942 0.214644 -3.129008
v 2.626678 0.214644 -3.129008
v 2.164516 0.550424 -3.129008
v 1.987986 1.093728 -3.129008
v 2.164516 1.637032 -3.129008
v 2.626678 1.972813 -3.129008
v 3.197942 1.972812 -3.129008
v 3.660104 1.637032 -3.129008
v 3.836633 1.093728 -3.129008
v 3.836633 1.093728 -0.000000
v 3.660104 1.637032 -0.000000
v 3.197942 1.972812 -0.000000
v 2.626678 1.972813 -0.000000
v 2.164516 1.637032 -0.000000
v 1.987986 1.093728 -0.000000
v 2.164516 0.550424 0.000000
v 2.626678 0.214644 0.000000
v 3.197942 0.214644 0.000000
v 3.660104 0.550424 0.000000
v 3.536128 0.640498 3.265368
v 3.150587 0.360386 3.265368
v 2.674032 0.360386 3.265368
v 2.288492 0.640498 3.265368
v 2.141228 1.093728 3.265368
v 2.288492 1.546958 3.265368
v 2.674032 1.827070 3.265368
v 3.150586 1.827070 3.265368
v 3.536128 1.546958 3.265368
v 3.683390 1.093728 3.265368
v 3.536128 0.640498 -3.265368
v 3.150587 0.360386 -3.265368
v 2.674032 0.360386 -3.265368
v 2.288492 0.640498 -3.265368
v 2.141228 1.093728 -3.265368
v 2.288492 1.546958 -3.265368
v 2.674032 1.827070 -3.265368
v 3.150586 1.827070 -3.265368
v 3.536128 1.546958 -3.265368
v 3.683390 1.093728 -3.265368
v 3.406104 0.734966 3.367146
v 3.100923 0.513238 3.367146
v 2.723697 0.513238 3.367146
v 2.418515 0.734966 3.367146
v 2.301946 1.093728 3.367146
v 2.418515 1.452491 3.367146
v 2.723697 1.674218 3.367146
v 3.100922 1.674218 3.367146
v 3.406104 1.452491 3.367146
v 3.522673 1.093728 3.367146
v 3.406104 0.734966 -3.367146
v 3.100923 0.513238 -3.367146
v 2.723697 0.513238 -3.367146
v 2.418515 0.734966 -3.367146
v 2.301946 1.093728 -3.367146
v 2.418515 1.452491 -3.367146
v 2.723697 1.674218 -3.367146
v 3.100922 1.674218 -3.367146
v 3.406104 1.452491 -3.367146
v 3.522673 1.093728 -3.367146
v 3.263985 0.838221 3.426380
v 2.912310 1.093728 3.474089
v 3.046638 0.680309 3.426380
v 2.777982 0.680309 3.426380
v 2.560634 0.838221 3.426380
v 2.477614 1.093728 3.426380
v 2.560634 1.349235 3.426380
v 2.777982 1.507148 3.426380
v 3.046638 1.507148 3.426380
v 3.263985 1.349235 3.426380
v 3.347004 1.093728 3.426380
v 3.263985 0.838221 -3.426380
v 2.912310 1.093728 -3.474089
v 3.046638 0.680309 -3.426380
v 2.777982 0.680309 -3.426380
v 2.560634 0.838221 -3.426380
v 2.477614 1.093728 -3.426380
v 2.560634 1.349235 -3.426380
v 2.777982 1.507148 -3.426380
v 3.046638 1.507148 -3.426380
v 3.263985 1.349235 -3.426380
v 3.347004 1.093728 -3.426380
v 3.836633 1.093728 1.564504
v 3.660104 1.637032 1.564504
v 3.197942 1.972812 1.564504
v 2.626678 1.972813 1.564504
v 2.164516 1.637032 1.564504
v 1.987986 1.093728 1.564504
v 2.164516 0.550424 1.564504
v 2.626678 0.214644 1.564504
v 3.197942 0.214644 1.564504
v 3.660104 0.550424 1.564504
v 3.836633 1.093728 -1.564504
v 3.660104 1.637032 -1.564504
v 3.197942 1.972812 -1.564504
v 2.626678 1.972813 -1.564504
v 2.164516 1.637032 -1.564504
v 1.987986 1.093728 -1.564504
v 2.164516 0.550424 -1.564504
v 2.626678 0.214644 -1.564504
v 3.197942 0.214644 -1.564504
v 3.660104 0.550424 -1.564504
v 3.206644 2.250336 -2.461216
v 3.024735 2.250336 -2.593380
v 2.799885 2.250336 -2.593380
v 2.617977 2.250336 -2.461216
v 2.548494 2.250336 -2.247370
v 2.617977 2.250336 -2.033524
v 2.799885 2.250336 -1.901360
v 3.024735 2.250336 -1.901360
v 3.206644 2.250336 -2.033524
v 3.276126 2.250336 -2.247370
v 2.912310 1.890460 -2.247370
v 3.206644 2.200916 -2.461216
v 3.276126 2.200916 -2.247370
v 3.206644 2.200916 -2.033524
v 3.024735 2.200916 -1.901360
v 2.799885 2.200916 -1.901360
v 2.617977 2.200916 -2.033524
v 2.548494 2.200916 -2.247370
v 2.617977 2.200916 -2.461216
v 2.799885 2.200916 -2.593380
v 3.024735 2.200916 -2.593380
v 3.178892 1.905096 -2.441053
v 3.014135 1.905096 -2.560756
v 3.014135 2.186280 -2.560756
v 3.178892 2.186280 -2.441053
v 2.810486 1.905096 -2.560756
v 2.810486 2.186280 -2.560756
v 2.645729 1.905096 -2.441053
v 2.645729 2.186280 -2.441053
v 2.582797 1.905096 -2.247370
v 2.582797 2.186280 -2.247370
v 2.645729 1.905096 -2.053688
v 2.645729 2.186280 -2.053688
v 2.810486 1.905096 -1.933985
v 2.810486 2.186280 -1.933985
v 3.014135 1.905096 -1.933985
v 3.014135 2.186280 -1.933985
v 3.178892 1.905096 -2.053688
v 3.178892 2.186280 -2.053688
v 3.241823 1.905096 -2.247370
v 3.241823 2.186280 -2.247370
v 3.160185 2.252561 -2.427462
v 3.006990 2.252561 -2.538764
v 2.817631 2.252561 -2.538764
v 2.664436 2.252561 -2.427462
v 2.605921 2.252561 -2.247370
v 2.664436 2.252561 -2.067279
v 2.817631 2.252561 -1.955976
v 3.006990 2.252561 -1.955976
v 3.160185 2.252561 -2.067279
v 3.218700 2.252561 -2.247370
v 3.160185 2.218981 -2.427462
v 3.006990 2.218981 -2.538764
v 2.912310 2.242724 -2.247370
v 2.817631 2.218981 -2.538764
v 2.664436 2.218981 -2.427462
v 2.605921 2.218981 -2.247370
v 2.664436 2.218981 -2.067279
v 2.817631 2.218981 -1.955976
v 3.006990 2.218981 -1.955976
v 3.160185 2.218981 -2.067279
v 3.218700 2.218981 -2.247370
vt 0.350415 0.945900
vt 0.257529 0.749310
vt 0.822391 0.490380
vt 0.822390 0.511134
vt 0.350415 0.749310
vt 0.685474 0.516006
vt 0.313627 0.770064
vt 0.303972 0.749310
vt 0.685473 0.570343
vt 0.313627 0.824401
vt 0.685473 0.637506
vt 0.313627 0.891564
vt 0.919799 0.272560
vt 0.257529 0.876566
vt 0.949646 0.490380
vt 0.956587 0.272560
vt 0.812730 0.495252
vt 0.919799 0.071070
vt 0.956587 0.071070
vt 0.303972 0.876566
vt 0.919799 0.138233
vt 0.956587 0.138233
vt 0.919799 0.205397
vt 0.956587 0.205397
vt 0.822390 0.565471
vt 0.313627 0.945900
vt 0.350415 0.891564
vt 0.685474 0.691842
vt 0.822390 0.632634
vt 0.350415 0.824401
vt 0.822390 0.686970
vt 0.350415 0.770064
vt 0.822391 0.707725
vt 0.313627 0.749310
vt 0.685474 0.495252
vt 0.267184 0.749310
vt 0.956587 0.003907
vt 0.949646 0.707725
vt 0.919799 0.003907
vt 0.267184 0.876566
vt 0.220741 0.749310
vt 0.313627 0.966655
vt 0.685474 0.712597
vt 0.350415 0.966655
vt 0.956587 0.339723
vt 0.220741 0.876566
vt 0.919799 0.339723
vt 0.812730 0.712597
vt 0.748854 0.691842
vt 0.709376 0.637506
vt 0.709376 0.570343
vt 0.748854 0.516006
vt 0.885770 0.511134
vt 0.846293 0.565471
vt 0.846293 0.632634
vt 0.885770 0.686970
vt 0.148960 0.945900
vt 0.148960 0.966655
vt 0.112173 0.966655
vt 0.112173 0.945900
vt 0.148960 0.749310
vt 0.148960 0.770065
vt 0.112173 0.770065
vt 0.112173 0.749310
vt 0.148960 0.824401
vt 0.112173 0.824401
vt 0.148960 0.891564
vt 0.112173 0.891564
vt 0.748854 0.918838
vt 0.812730 0.939592
vt 0.685474 0.939592
vt 0.685474 0.918838
vt 0.102517 0.876566
vt 0.065730 0.876566
vt 0.065730 0.749310
vt 0.102517 0.749310
vt 0.949646 0.717375
vt 0.885770 0.738130
vt 0.822390 0.738130
vt 0.822391 0.717375
vt 0.812730 0.722247
vt 0.748854 0.743002
vt 0.685474 0.743002
vt 0.685474 0.722247
vt 0.885770 0.913965
vt 0.949646 0.934720
vt 0.822391 0.934720
vt 0.822390 0.913965
vt 0.396858 0.876566
vt 0.360070 0.876566
vt 0.360070 0.749310
vt 0.396858 0.749310
vt 0.709376 0.797338
vt 0.685473 0.797338
vt 0.846293 0.859629
vt 0.822390 0.859629
vt 0.709376 0.864501
vt 0.685473 0.864501
vt 0.846293 0.792466
vt 0.822390 0.792466
vt 0.996094 0.349374
vt 0.996094 0.416537
vt 0.959306 0.416537
vt 0.959306 0.349374
vt 0.996094 0.483700
vt 0.959306 0.483700
vt 0.996094 0.550864
vt 0.959306 0.550864
vt 0.996094 0.618027
vt 0.959306 0.618027
vt 0.996094 0.685190
vt 0.959306 0.685190
vt 0.071070 0.555721
vt 0.138233 0.555721
vt 0.138233 0.739659
vt 0.071070 0.739660
vt 0.003906 0.555721
vt 0.003906 0.739660
vt 0.608376 0.555721
vt 0.675539 0.555721
vt 0.675539 0.739659
vt 0.608376 0.739660
vt 0.541212 0.555721
vt 0.541212 0.739660
vt 0.474049 0.555721
vt 0.474049 0.739659
vt 0.406886 0.555721
vt 0.406886 0.739660
vt 0.339723 0.555721
vt 0.339723 0.739659
vt 0.272559 0.555721
vt 0.272559 0.739659
vt 0.205396 0.555721
vt 0.205396 0.739660
vt 0.845328 0.106247
vt 0.797726 0.121926
vt 0.827064 0.081223
vt 0.797547 0.071748
vt 0.768093 0.081437
vt 0.749958 0.106589
vt 0.750070 0.137596
vt 0.768386 0.162613
vt 0.797910 0.172086
vt 0.827372 0.162397
vt 0.845546 0.137247
vt 0.797728 0.367595
vt 0.750146 0.383332
vt 0.749925 0.352353
vt 0.768001 0.327169
vt 0.797436 0.317422
vt 0.826981 0.326836
vt 0.845348 0.351817
vt 0.845524 0.382821
vt 0.827440 0.408009
vt 0.798000 0.417762
vt 0.768426 0.408373
vt 0.138233 0.187845
vt 0.205396 0.187845
vt 0.205396 0.371783
vt 0.138233 0.371783
vt 0.272559 0.371783
vt 0.272559 0.187845
vt 0.339723 0.371783
vt 0.339723 0.187845
vt 0.406886 0.371783
vt 0.406886 0.187845
vt 0.474049 0.371783
vt 0.474049 0.187845
vt 0.541212 0.371783
vt 0.541212 0.187845
vt 0.608376 0.371783
vt 0.608376 0.187845
vt 0.675539 0.371783
vt 0.675539 0.187845
vt 0.071070 0.371783
vt 0.003906 0.371783
vt 0.003906 0.187845
vt 0.071070 0.187845
vt 0.886819 0.092733
vt 0.909964 0.085436
vt 0.909964 0.158373
vt 0.886950 0.150671
vt 0.852639 0.045940
vt 0.867077 0.026435
vt 0.797479 0.028173
vt 0.797689 0.003906
vt 0.742416 0.046230
vt 0.728319 0.026477
vt 0.708489 0.093202
vt 0.685473 0.085510
vt 0.708652 0.151141
vt 0.685511 0.158447
vt 0.742836 0.197914
vt 0.728408 0.217426
vt 0.797979 0.215662
vt 0.797771 0.239929
vt 0.853020 0.197619
vt 0.867109 0.217377
vt 0.708641 0.396803
vt 0.685499 0.404105
vt 0.685473 0.331161
vt 0.708489 0.338855
vt 0.728340 0.272127
vt 0.742432 0.291884
vt 0.797717 0.249579
vt 0.797500 0.273845
vt 0.867090 0.272119
vt 0.852649 0.291622
vt 0.909959 0.331125
vt 0.886813 0.338416
vt 0.909959 0.404054
vt 0.886948 0.396349
vt 0.867102 0.463052
vt 0.853011 0.443294
vt 0.797761 0.485601
vt 0.797968 0.461334
vt 0.728397 0.463085
vt 0.742830 0.443576
vt 0.865709 0.099500
vt 0.865883 0.143732
vt 0.839526 0.063819
vt 0.797386 0.050346
vt 0.755379 0.064220
vt 0.729551 0.100135
vt 0.729767 0.144369
vt 0.755940 0.180026
vt 0.798070 0.193488
vt 0.840065 0.179624
vt 0.729752 0.390042
vt 0.729552 0.345788
vt 0.755391 0.309876
vt 0.797404 0.296018
vt 0.839536 0.309503
vt 0.865694 0.345174
vt 0.865890 0.389405
vt 0.840052 0.425301
vt 0.798054 0.439159
vt 0.755945 0.425691
vt 0.205396 0.003907
vt 0.272559 0.003907
vt 0.339723 0.003907
vt 0.406886 0.003907
vt 0.474049 0.003907
vt 0.541212 0.003907
vt 0.608376 0.003907
vt 0.675539 0.003907
vt 0.003906 0.003907
vt 0.071070 0.003907
vt 0.138233 0.003907
vt 0.948189 0.753214
vt 0.931765 0.758481
vt 0.917472 0.741768
vt 0.946480 0.731283
vt 0.921597 0.772397
vt 0.900197 0.767314
vt 0.921597 0.789656
vt 0.901218 0.798041
vt 0.931617 0.803671
vt 0.920074 0.822417
vt 0.947975 0.809079
vt 0.949709 0.831004
vt 0.964392 0.803819
vt 0.978726 0.820492
vt 0.974554 0.789877
vt 0.995965 0.794991
vt 0.974635 0.772634
vt 0.994968 0.764199
vt 0.964528 0.758643
vt 0.976086 0.739899
vt 0.799503 0.755018
vt 0.812611 0.773059
vt 0.778295 0.784209
vt 0.812611 0.795359
vt 0.799503 0.813400
vt 0.778295 0.820291
vt 0.757087 0.813400
vt 0.743979 0.795359
vt 0.743979 0.773059
vt 0.757087 0.755018
vt 0.778295 0.748127
vt 0.862244 0.576134
vt 0.862219 0.602760
vt 0.856771 0.604575
vt 0.856770 0.574401
vt 0.877915 0.554608
vt 0.874505 0.549988
vt 0.903245 0.546404
vt 0.903201 0.540661
vt 0.928561 0.554656
vt 0.931901 0.549985
vt 0.944191 0.576213
vt 0.949638 0.574397
vt 0.944164 0.602838
vt 0.949638 0.604571
vt 0.928495 0.624364
vt 0.931906 0.628984
vt 0.903163 0.632569
vt 0.903207 0.638311
vt 0.877847 0.624316
vt 0.874507 0.628987
vt 0.471425 0.788072
vt 0.494208 0.819430
vt 0.471425 0.826833
vt 0.866401 0.601399
vt 0.880431 0.620757
vt 0.508289 0.800049
vt 0.903161 0.628170
vt 0.508289 0.776093
vt 0.925907 0.620807
vt 0.494208 0.756712
vt 0.939980 0.601481
vt 0.471425 0.749310
vt 0.940008 0.577574
vt 0.448641 0.756712
vt 0.925977 0.558216
vt 0.434560 0.776093
vt 0.903248 0.550802
vt 0.434560 0.800049
vt 0.880503 0.558165
vt 0.448641 0.819430
vt 0.866428 0.577491
vt 0.812683 0.589936
vt 0.797143 0.611326
vt 0.793171 0.605859
vt 0.806257 0.587848
vt 0.771998 0.619496
vt 0.771998 0.612739
vt 0.746853 0.611326
vt 0.750825 0.605859
vt 0.731313 0.589936
vt 0.737739 0.587848
vt 0.731313 0.563497
vt 0.737739 0.565585
vt 0.746853 0.542108
vt 0.750825 0.547574
vt 0.771998 0.533938
vt 0.771998 0.540695
vt 0.797143 0.542108
vt 0.793171 0.547575
vt 0.812683 0.563497
vt 0.806257 0.565586
vt 0.662199 0.756251
vt 0.675575 0.774546
vt 0.672170 0.775680
vt 0.660104 0.759166
vt 0.675664 0.797220
vt 0.672240 0.796148
vt 0.662407 0.815622
vt 0.660258 0.812748
vt 0.640903 0.822738
vt 0.640843 0.819150
vt 0.619249 0.815812
vt 0.621333 0.812890
vt 0.605868 0.797457
vt 0.609282 0.796344
vt 0.605856 0.774855
vt 0.609282 0.775929
vt 0.618994 0.756477
vt 0.621163 0.759335
vt 0.640551 0.749310
vt 0.640598 0.752898
vn 0.000014 -1.000000 0.000000
vn 0.000032 -1.000000 0.000000
vn 0.000032 -1.000000 0.000000
vn 0.000014 -1.000000 0.000000
vn -0.000032 -1.000000 0.000000
vn -0.000014 -1.000000 0.000000
vn -0.000014 -1.000000 0.000000
vn -0.000032 -1.000000 0.000000
vn -0.000003 -1.000000 0.000000
vn -0.000003 -1.000000 0.000000
vn 0.000003 -1.000000 0.000000
vn 0.000003 -1.000000 0.000000
vn -0.000000 0.000000 -1.000000
vn -0.000000 0.000000 -1.000000
vn -0.000000 0.000000 -1.000000
vn -0.000000 0.000000 -1.000000
vn 1.000000 0.000000 0.000000
vn 1.000000 0.000000 0.000000
vn 1.000000 0.000000 0.000000
vn 1.000000 0.000000 0.000000
vn 0.000000 0.000000 1.000000
vn 0.000000 0.000000 1.000000
vn 0.000000 0.000000 1.000000
vn 0.000000 0.000000 1.000000
vn 0.000001 0.000000 -1.000000
vn 0.000001 0.000000 -1.000000
vn 0.000001 0.000000 -1.000000
vn 0.000001 0.000000 -1.000000
vn 0.000000 0.000000 1.000000
vn 0.000000 0.000000 1.000000
vn 0.000000 0.000000 1.000000
vn 0.000000 0.000000 1.000000
vn -1.000000 0.000000 0.000000
vn -1.000000 0.000000 0.000000
vn -1.000000 0.000000 0.000000
vn -1.000000 0.000000 0.000000
vn 0.000000 0.000000 -1.000000
vn 0.000000 0.000000 -1.000000
vn 0.000000 0.000000 1.000000
vn 0.000000 0.000000 1.000000
vn 0.000000 0.000000 -1.000000
vn 0.000000 0.000000 -1.000000
vn 0.000000 0.000000 1.000000
vn 0.000000 0.000000 1.000000
vn 0.951057 0.309017 0.000000
vn 0.809017 0.587786 -0.000000
vn 0.809017 0.587786 -0.000000
vn 0.951057 0.309017 0.000000
vn 0.309017 0.951057 -0.000000
vn 0.309017 0.951057 -0.000000
vn -0.309017 0.951057 -0.000000
vn -0.309017 0.951057 -0.000000
vn -0.809018 0.587784 0.000000
vn -0.809018 0.587784 0.000000
vn -0.951058 0.309013 0.000000
vn -0.951058 0.309013 0.000000
vn 0.000014 -1.000000 0.000000
vn 0.000032 -1.000000 0.000000
vn 0.000032 -1.000000 0.000000
vn 0.000014 -1.000000 0.000000
vn -0.000032 -1.000000 0.000000
vn -0.000014 -1.000000 0.000000
vn -0.000014 -1.000000 0.000000
vn -0.000032 -1.000000 0.000000
vn -0.000003 -1.000000 0.000000
vn -0.000003 -1.000000 0.000000
vn 0.000003 -1.000000 0.000000
vn 0.000003 -1.000000 0.000000
vn -0.000000 0.000000 -1.000000
vn 0.000000 0.000000 -1.000000
vn 0.000000 0.000000 -1.000000
vn -0.000000 0.000000 -1.000000
vn 1.000000 0.000000 0.000000
vn 1.000000 0.000000 0.000000
vn 1.000000 0.000000 0.000000
vn 1.000000 0.000000 0.000000
vn -0.000001 0.000000 1.000000
vn -0.000001 0.000000 1.000000
vn -0.000001 0.000000 1.000000
vn -0.000001 0.000000 1.000000
vn 0.000000 0.000000 -1.000000
vn 0.000000 0.000000 -1.000000
vn 0.000000 0.000000 -1.000000
vn 0.000000 0.000000 -1.000000
vn 0.000000 0.000000 1.000000
vn 0.000000 0.000000 1.000000
vn 0.000000 0.000000 1.000000
vn 0.000000 0.000000 1.000000
vn -1.000000 0.000000 0.000000
vn -1.000000 0.000000 0.000000
vn -1.000000 0.000000 0.000000
vn -1.000000 0.000000 0.000000
vn 0.000000 0.000000 -1.000000
vn 0.000000 0.000000 -1.000000
vn 0.000000 0.000000 1.000000
vn 0.000000 0.000000 1.000000
vn -0.000000 0.000000 -1.000000
vn -0.000000 0.000000 -1.000000
vn -0.000000 0.000000 1.000000
vn -0.000000 0.000000 1.000000
vn 0.951057 0.309017 0.000000
vn 0.809017 0.587785 -0.000000
vn 0.809017 0.587785 -0.000000
vn 0.951057 0.309017 0.000000
vn 0.309017 0.951056 -0.000000
vn 0.309017 0.951057 -0.000000
vn -0.309017 0.951057 -0.000000
vn -0.309017 0.951057 -0.000000
vn -0.809018 0.587784 0.000000
vn -0.809018 0.587784 0.000000
vn -0.951058 0.309013 0.000000
vn -0.951058 0.309013 0.000000
vn 0.309017 -0.951057 0.000000
vn 0.809018 -0.587784 0.000000
vn 0.809018 -0.587784 0.000000
vn 0.309017 -0.951057 0.000000
vn -0.309017 -0.951057 0.000000
vn -0.309017 -0.951056 0.000000
vn -0.809017 -0.587785 0.000000
vn -0.809017 -0.587785 0.000000
vn -1.000000 0.000000 0.000000
vn -1.000000 0.000000 0.000000
vn -0.809017 0.587786 0.000000
vn -0.809017 0.587786 0.000000
vn -0.309017 0.951057 0.000000
vn -0.309017 0.951057 0.000000
vn 0.309017 0.951056 0.000000
vn 0.309017 0.951056 0.000000
vn 0.809017 0.587785 0.000000
vn 0.809017 0.587785 0.000000
vn 1.000000 0.000000 0.000000
vn 1.000000 0.000000 0.000000
vn 0.191815 -0.139361 0.971486
vn -0.000000 -0.000000 1.000000
vn 0.073267 -0.225492 0.971486
vn -0.073267 -0.225492 0.971486
vn -0.191815 -0.139362 0.971486
vn -0.237096 0.000000 0.971486
vn -0.191814 0.139362 0.971486
vn -0.073267 0.225492 0.971486
vn 0.073266 0.225492 0.971486
vn 0.191814 0.139361 0.971486
vn 0.237095 -0.000000 0.971486
vn -0.000000 0.000000 -1.000000
vn 0.191815 -0.139361 -0.971486
vn 0.073266 -0.225492 -0.971486
vn -0.073267 -0.225492 -0.971486
vn -0.191815 -0.139362 -0.971486
vn -0.237096 -0.000000 -0.971486
vn -0.191815 0.139362 -0.971486
vn -0.073266 0.225492 -0.971486
vn 0.073267 0.225492 -0.971486
vn 0.191814 0.139361 -0.971486
vn 0.237096 -0.000000 -0.971486
vn 0.809018 -0.587784 0.000000
vn 1.000000 0.000000 0.000000
vn 1.000000 0.000000 0.000000
vn 0.809018 -0.587784 0.000000
vn 0.809017 0.587785 0.000000
vn 0.809017 0.587785 0.000000
vn 0.309017 0.951056 0.000000
vn 0.309017 0.951056 0.000000
vn -0.309017 0.951057 0.000000
vn -0.309017 0.951057 0.000000
vn -0.809017 0.587786 0.000000
vn -0.809017 0.587786 0.000000
vn -1.000000 0.000000 0.000000
vn -1.000000 0.000000 0.000000
vn -0.809017 -0.587785 0.000000
vn -0.809017 -0.587785 0.000000
vn -0.309017 -0.951057 0.000000
vn -0.309017 -0.951057 0.000000
vn 0.309017 -0.951057 0.000000
vn 0.309017 -0.951057 0.000000
vn 0.502185 -0.364858 0.784021
vn 0.537800 -0.390734 0.747060
vn 0.664757 0.000000 0.747059
vn 0.620735 0.000000 0.784020
vn 0.191817 -0.590354 0.784021
vn 0.205421 -0.632221 0.747060
vn -0.191818 -0.590354 0.784020
vn -0.205421 -0.632222 0.747059
vn -0.502185 -0.364859 0.784020
vn -0.537800 -0.390734 0.747059
vn -0.620735 -0.000000 0.784020
vn -0.664757 0.000000 0.747060
vn -0.502185 0.364859 0.784020
vn -0.537800 0.390735 0.747059
vn -0.191818 0.590354 0.784020
vn -0.205421 0.632222 0.747059
vn 0.191817 0.590354 0.784020
vn 0.205422 0.632221 0.747060
vn 0.502186 0.364859 0.784020
vn 0.537800 0.390734 0.747060
vn 0.502185 -0.364858 -0.784021
vn 0.537800 -0.390734 -0.747060
vn 0.205422 -0.632221 -0.747060
vn 0.191817 -0.590354 -0.784021
vn -0.205421 -0.632222 -0.747059
vn -0.191818 -0.590354 -0.784020
vn -0.537800 -0.390734 -0.747059
vn -0.502186 -0.364859 -0.784020
vn -0.664757 0.000000 -0.747060
vn -0.620735 0.000000 -0.784020
vn -0.537800 0.390735 -0.747059
vn -0.502186 0.364859 -0.784020
vn -0.205421 0.632222 -0.747059
vn -0.191818 0.590354 -0.784020
vn 0.205422 0.632222 -0.747059
vn 0.191817 0.590355 -0.784020
vn 0.537800 0.390734 -0.747060
vn 0.502185 0.364859 -0.784020
vn 0.664757 0.000000 -0.747059
vn 0.620735 0.000000 -0.784020
vn 0.376230 -0.273347 0.885287
vn 0.465046 -0.000000 0.885286
vn 0.143707 -0.442285 0.885286
vn -0.143707 -0.442285 0.885286
vn -0.376231 -0.273347 0.885286
vn -0.465047 0.000000 0.885286
vn -0.376231 0.273347 0.885286
vn -0.143707 0.442285 0.885286
vn 0.143707 0.442286 0.885286
vn 0.376231 0.273347 0.885286
vn 0.376230 -0.273347 -0.885287
vn 0.143708 -0.442285 -0.885286
vn -0.143707 -0.442285 -0.885286
vn -0.376231 -0.273347 -0.885286
vn -0.465047 -0.000000 -0.885286
vn -0.376231 0.273347 -0.885286
vn -0.143707 0.442285 -0.885286
vn 0.143707 0.442286 -0.885286
vn 0.376231 0.273347 -0.885286
vn 0.465046 -0.000000 -0.885286
vn 1.000000 0.000000 0.000000
vn 0.809017 0.587785 0.000000
vn 0.309017 0.951056 0.000000
vn -0.309017 0.951057 0.000000
vn -0.809017 0.587786 0.000000
vn -1.000000 0.000000 0.000000
vn -0.809017 -0.587785 0.000000
vn -0.309017 -0.951056 0.000000
vn 0.309017 -0.951057 0.000000
vn 0.809018 -0.587784 0.000000
vn 0.809017 0.000000 -0.587785
vn 0.309017 0.000000 -0.951056
vn 0.309017 0.000000 -0.951056
vn 0.809017 0.000000 -0.587785
vn -0.309017 0.000000 -0.951056
vn -0.309017 0.000000 -0.951056
vn -0.809016 0.000000 -0.587786
vn -0.809016 0.000000 -0.587786
vn -1.000000 0.000000 0.000000
vn -1.000000 0.000000 0.000000
vn -0.809016 0.000000 0.587787
vn -0.809016 0.000000 0.587787
vn -0.309017 0.000000 0.951057
vn -0.309017 0.000000 0.951057
vn 0.309017 0.000000 0.951057
vn 0.309017 0.000000 0.951057
vn 0.809017 0.000000 0.587785
vn 0.809017 0.000000 0.587785
vn 1.000000 0.000000 0.000000
vn 1.000000 0.000000 0.000000
vn 0.062508 0.997011 -0.045415
vn 0.023876 0.997011 -0.073484
vn -0.000000 1.000000 -0.000000
vn -0.023876 0.997011 -0.073483
vn -0.062508 0.997011 -0.045415
vn -0.077264 0.997011 0.000000
vn -0.062508 0.997011 0.045415
vn -0.023876 0.997011 0.073483
vn 0.023876 0.997011 0.073484
vn 0.062508 0.997011 0.045415
vn 0.077264 0.997011 0.000000
vn 0.915681 -0.401906 -0.000000
vn 0.740802 -0.401905 -0.538224
vn 0.809017 0.000000 -0.587785
vn 1.000000 0.000000 0.000000
vn 0.740801 -0.401906 0.538224
vn 0.809017 0.000000 0.587785
vn 0.282961 -0.401907 0.870864
vn 0.309018 0.000000 0.951056
vn -0.282961 -0.401909 0.870863
vn -0.309017 0.000000 0.951057
vn -0.740800 -0.401908 0.538224
vn -0.809016 0.000000 0.587786
vn -0.915681 -0.401907 0.000000
vn -1.000000 0.000000 0.000000
vn -0.740800 -0.401907 -0.538224
vn -0.809016 0.000000 -0.587786
vn -0.282961 -0.401908 -0.870863
vn -0.309018 0.000000 -0.951056
vn 0.282962 -0.401906 -0.870864
vn 0.309018 0.000000 -0.951056
vn -0.000000 -1.000000 -0.000000
vn 0.013712 -0.999015 -0.042203
vn 0.035899 -0.999015 -0.026082
vn 0.317493 -0.919776 -0.230671
vn 0.121272 -0.919777 -0.373234
vn -0.013712 -0.999015 -0.042202
vn -0.121271 -0.919778 -0.373232
vn -0.035899 -0.999015 -0.026083
vn -0.317491 -0.919778 -0.230670
vn -0.044374 -0.999015 0.000000
vn -0.392440 -0.919778 0.000000
vn -0.035899 -0.999015 0.026082
vn -0.317490 -0.919778 0.230670
vn -0.013712 -0.999015 0.042202
vn -0.121270 -0.919779 0.373230
vn 0.013712 -0.999015 0.042202
vn 0.121271 -0.919778 0.373232
vn 0.035899 -0.999015 0.026082
vn 0.317492 -0.919777 0.230671
vn 0.044374 -0.999015 0.000000
vn 0.392442 -0.919777 -0.000000
vn 0.031324 0.999250 -0.022758
vn 0.011965 0.999250 -0.036822
vn 0.011965 0.999250 -0.036822
vn 0.031324 0.999250 -0.022757
vn -0.011965 0.999250 -0.036822
vn -0.011965 0.999250 -0.036822
vn -0.031324 0.999250 -0.022757
vn -0.031324 0.999250 -0.022757
vn -0.038719 0.999250 0.000000
vn -0.038719 0.999250 0.000000
vn -0.031324 0.999250 0.022759
vn -0.031324 0.999250 0.022759
vn -0.011965 0.999250 0.036824
vn -0.011965 0.999250 0.036824
vn 0.011965 0.999250 0.036823
vn 0.011965 0.999250 0.036823
vn 0.031324 0.999250 0.022757
vn 0.031324 0.999250 0.022757
vn 0.038719 0.999250 -0.000000
vn 0.038719 0.999250 -0.000000
vn -0.809017 0.000000 0.587785
vn -0.309017 0.000000 0.951057
vn -0.309017 0.000000 0.951057
vn -0.809017 0.000000 0.587785
vn 0.309018 0.000000 0.951056
vn 0.309018 0.000000 0.951056
vn 0.809019 0.000000 0.587783
vn 0.809019 0.000000 0.587783
vn 1.000000 0.000000 0.000000
vn 1.000000 0.000000 0.000000
vn 0.809018 0.000000 -0.587784
vn 0.809018 0.000000 -0.587784
vn 0.309017 0.000000 -0.951056
vn 0.309017 0.000000 -0.951056
vn -0.309017 0.000000 -0.951057
vn -0.309017 0.000000 -0.951057
vn -0.809017 0.000000 -0.587785
vn -0.809017 0.000000 -0.587785
vn -1.000000 0.000000 0.000000
vn -1.000000 0.000000 0.000000
s 1
g Item_Tubo_3 Obj_base
usemtl initialShadingGroup
f 13/1/1 14/44/2 15/42/3 16/26/4
f 17/5/5 18/32/6 19/7/7 20/34/8
f 18/32/6 21/30/9 22/10/10 19/7/7
f 21/30/9 23/27/11 24/12/12 22/10/10
f 23/27/11 13/1/1 16/26/4 24/12/12
s 3
f 12/49/13 7/48/14 14/43/15 13/28/16
s off
f 7/14/17 1/46/18 15/41/19 14/2/20
s 4
f 1/15/21 6/53/22 16/4/23 15/3/24
s 3
f 8/17/25 9/52/26 18/6/27 17/35/28
s 4
f 3/56/29 2/38/30 20/33/31 19/31/32
s off
f 2/20/33 8/40/34 17/36/35 20/8/36
s 3
f 9/52/26 10/51/37 21/9/38 18/6/27
s 4
f 4/55/39 3/56/29 19/31/32 22/29/40
s 3
f 10/51/37 11/50/41 23/11/42 21/9/38
s 4
f 5/54/43 4/55/39 22/29/40 24/25/44
s 3
f 11/50/41 12/49/13 13/28/16 23/11/42
s 4
f 6/53/22 5/54/43 24/25/44 16/4/23
s 7
f 2/37/45 3/19/46 9/18/47 8/39/48
f 3/19/46 4/22/49 10/21/50 9/18/47
f 4/22/49 5/24/51 11/23/52 10/21/50
f 5/24/51 6/16/53 12/13/54 11/23/52
f 6/16/53 1/45/55 7/47/56 12/13/54
s 8
f 37/57/57 38/58/58 39/59/59 40/60/60
f 41/61/61 42/62/62 43/63/63 44/64/64
f 42/62/62 45/65/65 46/66/66 43/63/63
f 45/65/65 47/67/67 48/68/68 46/66/66
f 47/67/67 37/57/57 40/60/60 48/68/68
s 10
f 36/69/69 31/70/70 38/71/71 37/72/72
s off
f 31/73/73 25/74/74 39/75/75 38/76/76
s 11
f 25/77/77 30/78/78 40/79/79 39/80/80
s 10
f 32/81/81 33/82/82 42/83/83 41/84/84
s 11
f 27/85/85 26/86/86 44/87/87 43/88/88
s off
f 26/89/89 32/90/90 41/91/91 44/92/92
s 10
f 33/82/82 34/93/93 45/94/94 42/83/83
s 11
f 28/95/95 27/85/85 43/88/88 46/96/96
s 10
f 34/93/93 35/97/97 47/98/98 45/94/94
s 11
f 29/99/99 28/95/95 46/96/96 48/100/100
s 10
f 35/97/97 36/69/69 37/72/72 47/98/98
s 11
f 30/78/78 29/99/99 48/100/100 40/79/79
s 14
f 26/101/101 27/102/102 33/103/103 32/104/104
f 27/102/102 28/105/105 34/106/106 33/103/103
f 28/105/105 29/107/107 35/108/108 34/106/106
f 29/107/107 30/109/109 36/110/110 35/108/108
f 30/109/109 25/111/111 31/112/112 36/110/110
s 15
f 149/113/113 150/114/114 49/115/115 50/116/116
f 148/117/117 149/113/113 50/116/116 51/118/118
f 147/119/119 148/120/117 51/121/118 52/122/120
f 146/123/121 147/119/119 52/122/120 53/124/122
f 145/125/123 146/123/121 53/124/122 54/126/124
f 144/127/125 145/125/123 54/126/124 55/128/126
f 143/129/127 144/127/125 55/128/126 56/130/128
f 142/131/129 143/129/127 56/130/128 57/132/130
f 141/133/131 142/131/129 57/132/130 58/134/132
f 141/133/131 58/134/132 49/115/115 150/114/114
s 16
f 119/135/133 120/136/134 121/137/135
f 121/137/135 120/136/134 122/138/136
f 122/138/136 120/136/134 123/139/137
f 123/139/137 120/136/134 124/140/138
f 124/140/138 120/136/134 125/141/139
f 125/141/139 120/136/134 126/142/140
f 126/142/140 120/136/134 127/143/141
f 127/143/141 120/136/134 128/144/142
f 128/144/142 120/136/134 129/145/143
f 119/135/133 129/145/143 120/136/134
s 17
f 131/146/144 130/147/145 132/148/146
f 131/146/144 132/148/146 133/149/147
f 131/146/144 133/149/147 134/150/148
f 131/146/144 134/150/148 135/151/149
f 131/146/144 135/151/149 136/152/150
f 131/146/144 136/152/150 137/153/151
f 131/146/144 137/153/151 138/154/152
f 131/146/144 138/154/152 139/155/153
f 131/146/144 139/155/153 140/156/154
f 131/146/144 140/156/154 130/147/145
s 15
f 160/157/155 151/158/156 69/159/157 78/160/158
f 70/161/159 69/159/157 151/158/156 152/162/160
f 71/163/161 70/161/159 152/162/160 153/164/162
f 72/165/163 71/163/161 153/164/162 154/166/164
f 73/167/165 72/165/163 154/166/164 155/168/166
f 74/169/167 73/167/165 155/168/166 156/170/168
f 75/171/169 74/169/167 156/170/168 157/172/170
f 76/173/171 75/171/169 157/172/170 158/174/172
f 77/175/173 76/176/171 158/177/172 159/178/174
f 78/160/158 77/175/173 159/178/174 160/157/155
s 16
f 79/179/175 49/180/176 58/181/177 88/182/178
f 80/183/179 50/184/180 49/180/176 79/179/175
f 81/185/181 51/186/182 50/184/180 80/183/179
f 82/187/183 52/188/184 51/186/182 81/185/181
f 83/189/185 53/190/186 52/188/184 82/187/183
f 84/191/187 54/192/188 53/190/186 83/189/185
f 85/193/189 55/194/190 54/192/188 84/191/187
f 86/195/191 56/196/192 55/194/190 85/193/189
f 87/197/193 57/198/194 56/196/192 86/195/191
f 88/182/178 58/181/177 57/198/194 87/197/193
s 17
f 89/199/195 59/200/196 60/201/197 90/202/198
f 90/202/198 60/201/197 61/203/199 91/204/200
f 91/204/200 61/203/199 62/205/201 92/206/202
f 92/206/202 62/205/201 63/207/203 93/208/204
f 93/208/204 63/207/203 64/209/205 94/210/206
f 94/210/206 64/209/205 65/211/207 95/212/208
f 95/212/208 65/211/207 66/213/209 96/214/210
f 96/214/210 66/213/209 67/215/211 97/216/212
f 97/216/212 67/215/211 68/217/213 98/218/214
f 98/218/214 68/217/213 59/200/196 89/199/195
s 16
f 99/219/215 79/179/175 88/182/178 108/220/216
f 100/221/217 80/183/179 79/179/175 99/219/215
f 101/222/218 81/185/181 80/183/179 100/221/217
f 102/223/219 82/187/183 81/185/181 101/222/218
f 103/224/220 83/189/185 82/187/183 102/223/219
f 104/225/221 84/191/187 83/189/185 103/224/220
f 105/226/222 85/193/189 84/191/187 104/225/221
f 106/227/223 86/195/191 85/193/189 105/226/222
f 107/228/224 87/197/193 86/195/191 106/227/223
f 108/220/216 88/182/178 87/197/193 107/228/224
s 17
f 109/229/225 89/199/195 90/202/198 110/230/226
f 110/230/226 90/202/198 91/204/200 111/231/227
f 111/231/227 91/204/200 92/206/202 112/232/228
f 112/232/228 92/206/202 93/208/204 113/233/229
f 113/233/229 93/208/204 94/210/206 114/234/230
f 114/234/230 94/210/206 95/212/208 115/235/231
f 115/235/231 95/212/208 96/214/210 116/236/232
f 116/236/232 96/214/210 97/216/212 117/237/233
f 117/237/233 97/216/212 98/218/214 118/238/234
f 118/238/234 98/218/214 89/199/195 109/229/225
s 16
f 119/135/133 99/219/215 108/220/216 129/145/143
f 119/135/133 121/137/135 100/221/217 99/219/215
f 121/137/135 122/138/136 101/222/218 100/221/217
f 122/138/136 123/139/137 102/223/219 101/222/218
f 123/139/137 124/140/138 103/224/220 102/223/219
f 124/140/138 125/141/139 104/225/221 103/224/220
f 125/141/139 126/142/140 105/226/222 104/225/221
f 126/142/140 127/143/141 106/227/223 105/226/222
f 127/143/141 128/144/142 107/228/224 106/227/223
f 128/144/142 129/145/143 108/220/216 107/228/224
s 17
f 130/147/145 109/229/225 110/230/226 132/148/146
f 132/148/146 110/230/226 111/231/227 133/149/147
f 133/149/147 111/231/227 112/232/228 134/150/148
f 134/150/148 112/232/228 113/233/229 135/151/149
f 135/151/149 113/233/229 114/234/230 136/152/150
f 136/152/150 114/234/230 115/235/231 137/153/151
f 137/153/151 115/235/231 116/236/232 138/154/152
f 138/154/152 116/236/232 117/237/233 139/155/153
f 139/155/153 117/237/233 118/238/234 140/156/154
f 130/147/145 140/156/154 118/238/234 109/229/225
s 15
f 78/160/158 69/159/157 141/133/131 150/114/114
f 69/159/157 70/161/159 142/131/129 141/133/131
f 70/161/159 71/163/161 143/129/127 142/131/129
f 71/163/161 72/165/163 144/127/125 143/129/127
f 72/165/163 73/167/165 145/125/123 144/127/125
f 73/167/165 74/169/167 146/123/121 145/125/123
f 74/169/167 75/171/169 147/119/119 146/123/121
f 75/171/169 76/173/171 148/120/117 147/119/119
f 76/176/171 77/175/173 149/113/113 148/117/117
f 77/175/173 78/160/158 150/114/114 149/113/113
f 152/162/160 151/158/156 68/239/235 67/240/236
f 153/164/162 152/162/160 67/240/236 66/241/237
f 154/166/164 153/164/162 66/241/237 65/242/238
f 155/168/166 154/166/164 65/242/238 64/243/239
f 156/170/168 155/168/166 64/243/239 63/244/240
f 157/172/170 156/170/168 63/244/240 62/245/241
f 158/174/172 157/172/170 62/245/241 61/246/242
f 159/178/174 158/177/172 61/247/242 60/248/243
f 160/157/155 159/178/174 60/248/243 59/249/244
f 68/239/235 151/158/156 160/157/155 59/249/244
s 21
f 182/250/245 183/251/246 184/252/247 185/253/248
f 183/251/246 186/254/249 187/255/250 184/252/247
f 186/254/249 188/256/251 189/257/252 187/255/250
f 188/256/251 190/258/253 191/259/254 189/257/252
f 190/258/253 192/260/255 193/261/256 191/259/254
f 192/260/255 194/262/257 195/263/258 193/261/256
f 194/262/257 196/264/259 197/265/260 195/263/258
f 196/264/259 198/266/261 199/267/262 197/265/260
f 198/266/261 200/268/263 201/269/264 199/267/262
f 200/268/263 182/250/245 185/253/248 201/269/264
s 22
f 212/270/265 213/271/266 214/272/267
f 213/271/266 215/273/268 214/272/267
f 215/273/268 216/274/269 214/272/267
f 216/274/269 217/275/270 214/272/267
f 217/275/270 218/276/271 214/272/267
f 218/276/271 219/277/272 214/272/267
f 219/277/272 220/278/273 214/272/267
f 220/278/273 221/279/274 214/272/267
f 221/279/274 222/280/275 214/272/267
f 222/280/275 212/270/265 214/272/267
s 23
f 173/281/276 172/282/277 161/283/278 170/284/279
f 174/285/280 173/281/276 170/284/279 169/286/281
f 175/287/282 174/285/280 169/286/281 168/288/283
f 176/289/284 175/287/282 168/288/283 167/290/285
f 177/291/286 176/289/284 167/290/285 166/292/287
f 178/293/288 177/291/286 166/292/287 165/294/289
f 179/295/290 178/293/288 165/294/289 164/296/291
f 180/297/292 179/295/290 164/296/291 163/298/293
f 181/299/294 180/297/292 163/298/293 162/300/295
f 172/282/277 181/299/294 162/300/295 161/283/278
s 24
f 171/301/296 183/302/297 182/303/298
s 23
f 181/299/294 172/282/277 185/304/299 184/305/300
s 24
f 171/301/296 186/306/301 183/302/297
s 23
f 180/297/292 181/299/294 184/305/300 187/307/302
s 24
f 171/301/296 188/308/303 186/306/301
s 23
f 179/295/290 180/297/292 187/307/302 189/309/304
s 24
f 171/301/296 190/310/305 188/308/303
s 23
f 178/293/288 179/295/290 189/309/304 191/311/306
s 24
f 171/301/296 192/312/307 190/310/305
s 23
f 177/291/286 178/293/288 191/311/306 193/313/308
s 24
f 171/301/296 194/314/309 192/312/307
s 23
f 176/289/284 177/291/286 193/313/308 195/315/310
s 24
f 171/301/296 196/316/311 194/314/309
s 23
f 175/287/282 176/289/284 195/315/310 197/317/312
s 24
f 171/301/296 198/318/313 196/316/311
s 23
f 174/285/280 175/287/282 197/317/312 199/319/314
s 24
f 171/301/296 200/320/315 198/318/313
s 23
f 173/281/276 174/285/280 199/319/314 201/321/316
s 24
f 171/301/296 182/303/298 200/320/315
s 23
f 172/282/277 173/281/276 201/321/316 185/304/299
s 25
f 161/322/317 162/323/318 203/324/319 202/325/320
f 162/323/318 163/326/321 204/327/322 203/324/319
f 163/326/321 164/328/323 205/329/324 204/327/322
f 164/328/323 165/330/325 206/331/326 205/329/324
f 165/330/325 166/332/327 207/333/328 206/331/326
f 166/332/327 167/334/329 208/335/330 207/333/328
f 167/334/329 168/336/331 209/337/332 208/335/330
f 168/336/331 169/338/333 210/339/334 209/337/332
f 169/338/333 170/340/335 211/341/336 210/339/334
f 170/340/335 161/322/317 202/325/320 211/341/336
s 26
f 202/342/337 203/343/338 213/344/339 212/345/340
f 203/343/338 204/346/341 215/347/342 213/344/339
f 204/346/341 205/348/343 216/349/344 215/347/342
f 205/348/343 206/350/345 217/351/346 216/349/344
f 206/350/345 207/352/347 218/353/348 217/351/346
f 207/352/347 208/354/349 219/355/350 218/353/348
f 208/354/349 209/356/351 220/357/352 219/355/350
f 209/356/351 210/358/353 221/359/354 220/357/352
f 210/358/353 211/360/355 222/361/356 221/359/354
f 211/360/355 202/342/337 212/345/340 222/361/356
